<ttFont>
    <TTGlyph name=".notdef" xMin="33" yMin="0" xMax="298" yMax="666">
      <contour>
        <pt x="33" y="0" on="1"/>
        <pt x="33" y="666" on="1"/>
        <pt x="298" y="666" on="1"/>
        <pt x="298" y="0" on="1"/>
      </contour>
      <contour>
        <pt x="66" y="33" on="1"/>
        <pt x="265" y="33" on="1"/>
        <pt x="265" y="633" on="1"/>
        <pt x="66" y="633" on="1"/>
      </contour>
    </TTGlyph>
    <TTGlyph name="A" xMin="-50" yMin="-14" xMax="1160" yMax="902">
      <contour>
        <pt x="404" y="342" on="1"/>
        <pt x="438" y="342" on="1"/>
        <pt x="478" y="342" on="0"/>
        <pt x="632" y="318" on="0"/>
        <pt x="690" y="318" on="0"/>
        <pt x="706" y="320" on="1"/>
        <pt x="720" y="434" on="0"/>
        <pt x="766" y="638" on="0"/>
        <pt x="790" y="740" on="0"/>
        <pt x="806" y="801" on="0"/>
        <pt x="806" y="808" on="0"/>
        <pt x="804" y="808" on="1"/>
        <pt x="796" y="808" on="0"/>
        <pt x="776" y="780" on="1"/>
      </contour>
      <contour>
        <pt x="372" y="306" on="1"/>
        <pt x="180" y="87" on="0"/>
        <pt x="102" y="22" on="1"/>
        <pt x="73" y="0" on="0"/>
        <pt x="16" y="-6" on="1"/>
        <pt x="13" y="-6" on="0"/>
        <pt x="-26" y="-14" on="0"/>
        <pt x="-50" y="-14" on="0"/>
        <pt x="-50" y="-6" on="1"/>
        <pt x="-50" y="4" on="0"/>
        <pt x="-34" y="8" on="1"/>
        <pt x="4" y="21" on="0"/>
        <pt x="30" y="44" on="1"/>
        <pt x="181" y="176" on="0"/>
        <pt x="509" y="507" on="0"/>
        <pt x="746" y="784" on="1"/>
        <pt x="762" y="802" on="0"/>
        <pt x="783" y="827" on="0"/>
        <pt x="805" y="847" on="0"/>
        <pt x="815" y="856" on="0"/>
        <pt x="836" y="868" on="0"/>
        <pt x="839" y="870" on="1"/>
        <pt x="852" y="876" on="0"/>
        <pt x="879" y="885" on="0"/>
        <pt x="914" y="902" on="0"/>
        <pt x="928" y="902" on="0"/>
        <pt x="928" y="894" on="1"/>
        <pt x="928" y="892" on="1"/>
        <pt x="928" y="881" on="0"/>
        <pt x="906" y="832" on="0"/>
        <pt x="906" y="830" on="1"/>
        <pt x="878" y="754" on="0"/>
        <pt x="809" y="462" on="0"/>
        <pt x="792" y="332" on="1"/>
        <pt x="860" y="349" on="0"/>
        <pt x="916" y="394" on="1"/>
        <pt x="934" y="408" on="0"/>
        <pt x="942" y="408" on="0"/>
        <pt x="942" y="397" on="0"/>
        <pt x="898" y="362" on="0"/>
        <pt x="823" y="322" on="0"/>
        <pt x="790" y="314" on="1"/>
        <pt x="780" y="227" on="0"/>
        <pt x="780" y="178" on="1"/>
        <pt x="780" y="26" on="0"/>
        <pt x="844" y="26" on="1"/>
        <pt x="881" y="26" on="0"/>
        <pt x="998" y="97" on="0"/>
        <pt x="1117" y="201" on="0"/>
        <pt x="1148" y="248" on="1"/>
        <pt x="1152" y="254" on="0"/>
        <pt x="1160" y="254" on="0"/>
        <pt x="1160" y="248" on="0"/>
        <pt x="1158" y="244" on="1"/>
        <pt x="1104" y="172" on="0"/>
        <pt x="997" y="78" on="0"/>
        <pt x="850" y="-8" on="0"/>
        <pt x="728" y="-8" on="0"/>
        <pt x="692" y="67" on="0"/>
        <pt x="692" y="226" on="0"/>
        <pt x="702" y="296" on="1"/>
        <pt x="612" y="286" on="0"/>
        <pt x="541" y="286" on="0"/>
        <pt x="409" y="308" on="0"/>
        <pt x="378" y="308" on="0"/>
      </contour>
    </TTGlyph>
    <TTGlyph name="AE" xMin="-50" yMin="-24" xMax="1520" yMax="902">
      <contour>
        <pt x="1304" y="250" on="1"/>
        <pt x="1300" y="276" on="1"/>
        <pt x="1300" y="282" on="0"/>
        <pt x="1304" y="282" on="1"/>
        <pt x="1328" y="266" on="1"/>
        <pt x="1330" y="265" on="0"/>
        <pt x="1335" y="260" on="0"/>
        <pt x="1338" y="258" on="0"/>
        <pt x="1340" y="256" on="1"/>
        <pt x="1341" y="256" on="0"/>
        <pt x="1342" y="254" on="1"/>
        <pt x="1344" y="251" on="0"/>
        <pt x="1344" y="244" on="1"/>
        <pt x="1344" y="214" on="0"/>
        <pt x="1291" y="127" on="0"/>
        <pt x="1198" y="38" on="0"/>
        <pt x="1044" y="-24" on="0"/>
        <pt x="956" y="-24" on="1"/>
        <pt x="818" y="-24" on="0"/>
        <pt x="696" y="95" on="0"/>
        <pt x="696" y="208" on="1"/>
        <pt x="696" y="248" on="0"/>
        <pt x="702" y="296" on="1"/>
        <pt x="612" y="286" on="0"/>
        <pt x="541" y="286" on="0"/>
        <pt x="409" y="308" on="0"/>
        <pt x="378" y="308" on="0"/>
        <pt x="372" y="306" on="1"/>
        <pt x="180" y="87" on="0"/>
        <pt x="102" y="22" on="1"/>
        <pt x="73" y="0" on="0"/>
        <pt x="16" y="-6" on="1"/>
        <pt x="13" y="-6" on="0"/>
        <pt x="-26" y="-14" on="0"/>
        <pt x="-50" y="-14" on="0"/>
        <pt x="-50" y="-6" on="1"/>
        <pt x="-50" y="4" on="0"/>
        <pt x="-34" y="8" on="1"/>
        <pt x="4" y="21" on="0"/>
        <pt x="30" y="44" on="1"/>
        <pt x="181" y="176" on="0"/>
        <pt x="509" y="507" on="0"/>
        <pt x="746" y="784" on="1"/>
        <pt x="762" y="802" on="0"/>
        <pt x="783" y="827" on="0"/>
        <pt x="805" y="847" on="0"/>
        <pt x="815" y="856" on="0"/>
        <pt x="836" y="868" on="0"/>
        <pt x="839" y="870" on="1"/>
        <pt x="852" y="876" on="0"/>
        <pt x="879" y="885" on="0"/>
        <pt x="914" y="902" on="0"/>
        <pt x="928" y="902" on="0"/>
        <pt x="928" y="894" on="1"/>
        <pt x="928" y="892" on="1"/>
        <pt x="928" y="881" on="0"/>
        <pt x="906" y="832" on="0"/>
        <pt x="906" y="830" on="1"/>
        <pt x="852" y="686" on="0"/>
        <pt x="806" y="426" on="1"/>
        <pt x="857" y="466" on="0"/>
        <pt x="996" y="525" on="0"/>
        <pt x="1082" y="550" on="0"/>
        <pt x="1082" y="554" on="1"/>
        <pt x="1082" y="562" on="0"/>
        <pt x="1070" y="570" on="1"/>
        <pt x="1010" y="611" on="0"/>
        <pt x="1010" y="754" on="0"/>
        <pt x="1171" y="886" on="0"/>
        <pt x="1308" y="886" on="1"/>
        <pt x="1357" y="886" on="0"/>
        <pt x="1412" y="874" on="1"/>
        <pt x="1520" y="849" on="0"/>
        <pt x="1520" y="806" on="1"/>
        <pt x="1520" y="794" on="0"/>
        <pt x="1498" y="759" on="0"/>
        <pt x="1484" y="730" on="0"/>
        <pt x="1476" y="730" on="0"/>
        <pt x="1472" y="742" on="1"/>
        <pt x="1460" y="783" on="0"/>
        <pt x="1361" y="862" on="0"/>
        <pt x="1222" y="862" on="0"/>
        <pt x="1178" y="848" on="1"/>
        <pt x="1133" y="836" on="0"/>
        <pt x="1113" y="814" on="1"/>
        <pt x="1078" y="776" on="0"/>
        <pt x="1078" y="699" on="0"/>
        <pt x="1121" y="619" on="0"/>
        <pt x="1154" y="600" on="1"/>
        <pt x="1194" y="581" on="0"/>
        <pt x="1194" y="576" on="1"/>
        <pt x="1194" y="559" on="0"/>
        <pt x="1178" y="539" on="0"/>
        <pt x="1152" y="536" on="1"/>
        <pt x="1064" y="526" on="0"/>
        <pt x="930" y="474" on="0"/>
        <pt x="851" y="409" on="0"/>
        <pt x="826" y="367" on="1"/>
        <pt x="784" y="296" on="0"/>
        <pt x="784" y="204" on="1"/>
        <pt x="784" y="154" on="0"/>
        <pt x="826" y="78" on="0"/>
        <pt x="860" y="58" on="1"/>
        <pt x="927" y="18" on="0"/>
        <pt x="1000" y="18" on="1"/>
        <pt x="1139" y="18" on="0"/>
        <pt x="1304" y="160" on="0"/>
      </contour>
      <contour>
        <pt x="404" y="342" on="1"/>
        <pt x="438" y="342" on="1"/>
        <pt x="478" y="342" on="0"/>
        <pt x="632" y="318" on="0"/>
        <pt x="690" y="318" on="0"/>
        <pt x="706" y="320" on="1"/>
        <pt x="720" y="434" on="0"/>
        <pt x="766" y="638" on="0"/>
        <pt x="790" y="740" on="0"/>
        <pt x="806" y="801" on="0"/>
        <pt x="806" y="808" on="0"/>
        <pt x="804" y="808" on="1"/>
        <pt x="796" y="808" on="0"/>
        <pt x="776" y="780" on="1"/>
      </contour>
    </TTGlyph>
    <TTGlyph name="AEacute" xMin="-50" yMin="-24" xMax="1520" yMax="1160">
      <contour>
        <pt x="1304" y="250" on="1"/>
        <pt x="1300" y="276" on="1"/>
        <pt x="1300" y="282" on="0"/>
        <pt x="1304" y="282" on="1"/>
        <pt x="1328" y="266" on="1"/>
        <pt x="1330" y="265" on="0"/>
        <pt x="1335" y="260" on="0"/>
        <pt x="1338" y="258" on="0"/>
        <pt x="1340" y="256" on="1"/>
        <pt x="1341" y="256" on="0"/>
        <pt x="1342" y="254" on="1"/>
        <pt x="1344" y="251" on="0"/>
        <pt x="1344" y="244" on="1"/>
        <pt x="1344" y="214" on="0"/>
        <pt x="1291" y="127" on="0"/>
        <pt x="1198" y="38" on="0"/>
        <pt x="1044" y="-24" on="0"/>
        <pt x="956" y="-24" on="1"/>
        <pt x="818" y="-24" on="0"/>
        <pt x="696" y="95" on="0"/>
        <pt x="696" y="208" on="1"/>
        <pt x="696" y="248" on="0"/>
        <pt x="702" y="296" on="1"/>
        <pt x="612" y="286" on="0"/>
        <pt x="541" y="286" on="0"/>
        <pt x="409" y="308" on="0"/>
        <pt x="378" y="308" on="0"/>
        <pt x="372" y="306" on="1"/>
        <pt x="180" y="87" on="0"/>
        <pt x="102" y="22" on="1"/>
        <pt x="73" y="0" on="0"/>
        <pt x="16" y="-6" on="1"/>
        <pt x="13" y="-6" on="0"/>
        <pt x="-26" y="-14" on="0"/>
        <pt x="-50" y="-14" on="0"/>
        <pt x="-50" y="-6" on="1"/>
        <pt x="-50" y="4" on="0"/>
        <pt x="-34" y="8" on="1"/>
        <pt x="4" y="21" on="0"/>
        <pt x="30" y="44" on="1"/>
        <pt x="181" y="176" on="0"/>
        <pt x="509" y="507" on="0"/>
        <pt x="746" y="784" on="1"/>
        <pt x="762" y="802" on="0"/>
        <pt x="783" y="827" on="0"/>
        <pt x="805" y="847" on="0"/>
        <pt x="815" y="856" on="0"/>
        <pt x="836" y="868" on="0"/>
        <pt x="839" y="870" on="1"/>
        <pt x="852" y="876" on="0"/>
        <pt x="879" y="885" on="0"/>
        <pt x="914" y="902" on="0"/>
        <pt x="928" y="902" on="0"/>
        <pt x="928" y="894" on="1"/>
        <pt x="928" y="892" on="1"/>
        <pt x="928" y="881" on="0"/>
        <pt x="906" y="832" on="0"/>
        <pt x="906" y="830" on="1"/>
        <pt x="852" y="686" on="0"/>
        <pt x="806" y="426" on="1"/>
        <pt x="857" y="466" on="0"/>
        <pt x="996" y="525" on="0"/>
        <pt x="1082" y="550" on="0"/>
        <pt x="1082" y="554" on="1"/>
        <pt x="1082" y="562" on="0"/>
        <pt x="1070" y="570" on="1"/>
        <pt x="1010" y="611" on="0"/>
        <pt x="1010" y="754" on="0"/>
        <pt x="1171" y="886" on="0"/>
        <pt x="1308" y="886" on="1"/>
        <pt x="1357" y="886" on="0"/>
        <pt x="1412" y="874" on="1"/>
        <pt x="1520" y="849" on="0"/>
        <pt x="1520" y="806" on="1"/>
        <pt x="1520" y="794" on="0"/>
        <pt x="1498" y="759" on="0"/>
        <pt x="1484" y="730" on="0"/>
        <pt x="1476" y="730" on="0"/>
        <pt x="1472" y="742" on="1"/>
        <pt x="1460" y="783" on="0"/>
        <pt x="1361" y="862" on="0"/>
        <pt x="1222" y="862" on="0"/>
        <pt x="1178" y="848" on="1"/>
        <pt x="1133" y="836" on="0"/>
        <pt x="1113" y="814" on="1"/>
        <pt x="1078" y="776" on="0"/>
        <pt x="1078" y="699" on="0"/>
        <pt x="1121" y="619" on="0"/>
        <pt x="1154" y="600" on="1"/>
        <pt x="1194" y="581" on="0"/>
        <pt x="1194" y="576" on="1"/>
        <pt x="1194" y="559" on="0"/>
        <pt x="1178" y="539" on="0"/>
        <pt x="1152" y="536" on="1"/>
        <pt x="1064" y="526" on="0"/>
        <pt x="930" y="474" on="0"/>
        <pt x="851" y="409" on="0"/>
        <pt x="826" y="367" on="1"/>
        <pt x="784" y="296" on="0"/>
        <pt x="784" y="204" on="1"/>
        <pt x="784" y="154" on="0"/>
        <pt x="826" y="78" on="0"/>
        <pt x="860" y="58" on="1"/>
        <pt x="927" y="18" on="0"/>
        <pt x="1000" y="18" on="1"/>
        <pt x="1139" y="18" on="0"/>
        <pt x="1304" y="160" on="0"/>
      </contour>
      <contour>
        <pt x="404" y="342" on="1"/>
        <pt x="438" y="342" on="1"/>
        <pt x="478" y="342" on="0"/>
        <pt x="632" y="318" on="0"/>
        <pt x="690" y="318" on="0"/>
        <pt x="706" y="320" on="1"/>
        <pt x="720" y="434" on="0"/>
        <pt x="766" y="638" on="0"/>
        <pt x="790" y="740" on="0"/>
        <pt x="806" y="801" on="0"/>
        <pt x="806" y="808" on="0"/>
        <pt x="804" y="808" on="1"/>
        <pt x="796" y="808" on="0"/>
        <pt x="776" y="780" on="1"/>
      </contour>
      <contour>
        <pt x="1028" y="1016" on="1"/>
        <pt x="1266" y="1154" on="1"/>
        <pt x="1275" y="1160" on="0"/>
        <pt x="1282" y="1160" on="1"/>
        <pt x="1286" y="1160" on="0"/>
        <pt x="1286" y="1144" on="0"/>
        <pt x="1273" y="1119" on="0"/>
        <pt x="1266" y="1116" on="1"/>
        <pt x="1234" y="1102" on="0"/>
        <pt x="1170" y="1072" on="1"/>
        <pt x="1018" y="1000" on="0"/>
        <pt x="1006" y="1000" on="0"/>
        <pt x="1006" y="1003" on="0"/>
      </contour>
    </TTGlyph>
    <TTGlyph name="Aacute" xMin="-50" yMin="-14" xMax="1160" yMax="1160">
      <contour>
        <pt x="404" y="342" on="1"/>
        <pt x="438" y="342" on="1"/>
        <pt x="478" y="342" on="0"/>
        <pt x="632" y="318" on="0"/>
        <pt x="690" y="318" on="0"/>
        <pt x="706" y="320" on="1"/>
        <pt x="720" y="434" on="0"/>
        <pt x="766" y="638" on="0"/>
        <pt x="790" y="740" on="0"/>
        <pt x="806" y="801" on="0"/>
        <pt x="806" y="808" on="0"/>
        <pt x="804" y="808" on="1"/>
        <pt x="796" y="808" on="0"/>
        <pt x="776" y="780" on="1"/>
      </contour>
      <contour>
        <pt x="372" y="306" on="1"/>
        <pt x="180" y="87" on="0"/>
        <pt x="102" y="22" on="1"/>
        <pt x="73" y="0" on="0"/>
        <pt x="16" y="-6" on="1"/>
        <pt x="13" y="-6" on="0"/>
        <pt x="-26" y="-14" on="0"/>
        <pt x="-50" y="-14" on="0"/>
        <pt x="-50" y="-6" on="1"/>
        <pt x="-50" y="4" on="0"/>
        <pt x="-34" y="8" on="1"/>
        <pt x="4" y="21" on="0"/>
        <pt x="30" y="44" on="1"/>
        <pt x="181" y="176" on="0"/>
        <pt x="509" y="507" on="0"/>
        <pt x="746" y="784" on="1"/>
        <pt x="762" y="802" on="0"/>
        <pt x="783" y="827" on="0"/>
        <pt x="805" y="847" on="0"/>
        <pt x="815" y="856" on="0"/>
        <pt x="836" y="868" on="0"/>
        <pt x="839" y="870" on="1"/>
        <pt x="852" y="876" on="0"/>
        <pt x="879" y="885" on="0"/>
        <pt x="914" y="902" on="0"/>
        <pt x="928" y="902" on="0"/>
        <pt x="928" y="894" on="1"/>
        <pt x="928" y="892" on="1"/>
        <pt x="928" y="881" on="0"/>
        <pt x="906" y="832" on="0"/>
        <pt x="906" y="830" on="1"/>
        <pt x="878" y="754" on="0"/>
        <pt x="809" y="462" on="0"/>
        <pt x="792" y="332" on="1"/>
        <pt x="860" y="349" on="0"/>
        <pt x="916" y="394" on="1"/>
        <pt x="934" y="408" on="0"/>
        <pt x="942" y="408" on="0"/>
        <pt x="942" y="397" on="0"/>
        <pt x="898" y="362" on="0"/>
        <pt x="823" y="322" on="0"/>
        <pt x="790" y="314" on="1"/>
        <pt x="780" y="227" on="0"/>
        <pt x="780" y="178" on="1"/>
        <pt x="780" y="26" on="0"/>
        <pt x="844" y="26" on="1"/>
        <pt x="881" y="26" on="0"/>
        <pt x="998" y="97" on="0"/>
        <pt x="1117" y="201" on="0"/>
        <pt x="1148" y="248" on="1"/>
        <pt x="1152" y="254" on="0"/>
        <pt x="1160" y="254" on="0"/>
        <pt x="1160" y="248" on="0"/>
        <pt x="1158" y="244" on="1"/>
        <pt x="1104" y="172" on="0"/>
        <pt x="997" y="78" on="0"/>
        <pt x="850" y="-8" on="0"/>
        <pt x="728" y="-8" on="0"/>
        <pt x="692" y="67" on="0"/>
        <pt x="692" y="226" on="0"/>
        <pt x="702" y="296" on="1"/>
        <pt x="612" y="286" on="0"/>
        <pt x="541" y="286" on="0"/>
        <pt x="409" y="308" on="0"/>
        <pt x="378" y="308" on="0"/>
      </contour>
      <contour>
        <pt x="866" y="1016" on="1"/>
        <pt x="1104" y="1154" on="1"/>
        <pt x="1113" y="1160" on="0"/>
        <pt x="1120" y="1160" on="1"/>
        <pt x="1124" y="1160" on="0"/>
        <pt x="1124" y="1144" on="0"/>
        <pt x="1111" y="1119" on="0"/>
        <pt x="1104" y="1116" on="1"/>
        <pt x="1072" y="1102" on="0"/>
        <pt x="1008" y="1072" on="1"/>
        <pt x="856" y="1000" on="0"/>
        <pt x="844" y="1000" on="0"/>
        <pt x="844" y="1003" on="0"/>
      </contour>
    </TTGlyph>
    <TTGlyph name="Abreve" xMin="-50" yMin="-14" xMax="1196" yMax="1176">
      <contour>
        <pt x="404" y="342" on="1"/>
        <pt x="438" y="342" on="1"/>
        <pt x="478" y="342" on="0"/>
        <pt x="632" y="318" on="0"/>
        <pt x="690" y="318" on="0"/>
        <pt x="706" y="320" on="1"/>
        <pt x="720" y="434" on="0"/>
        <pt x="766" y="638" on="0"/>
        <pt x="790" y="740" on="0"/>
        <pt x="806" y="801" on="0"/>
        <pt x="806" y="808" on="0"/>
        <pt x="804" y="808" on="1"/>
        <pt x="796" y="808" on="0"/>
        <pt x="776" y="780" on="1"/>
      </contour>
      <contour>
        <pt x="372" y="306" on="1"/>
        <pt x="180" y="87" on="0"/>
        <pt x="102" y="22" on="1"/>
        <pt x="73" y="0" on="0"/>
        <pt x="16" y="-6" on="1"/>
        <pt x="13" y="-6" on="0"/>
        <pt x="-26" y="-14" on="0"/>
        <pt x="-50" y="-14" on="0"/>
        <pt x="-50" y="-6" on="1"/>
        <pt x="-50" y="4" on="0"/>
        <pt x="-34" y="8" on="1"/>
        <pt x="4" y="21" on="0"/>
        <pt x="30" y="44" on="1"/>
        <pt x="181" y="176" on="0"/>
        <pt x="509" y="507" on="0"/>
        <pt x="746" y="784" on="1"/>
        <pt x="762" y="802" on="0"/>
        <pt x="783" y="827" on="0"/>
        <pt x="805" y="847" on="0"/>
        <pt x="815" y="856" on="0"/>
        <pt x="836" y="868" on="0"/>
        <pt x="839" y="870" on="1"/>
        <pt x="852" y="876" on="0"/>
        <pt x="879" y="885" on="0"/>
        <pt x="914" y="902" on="0"/>
        <pt x="928" y="902" on="0"/>
        <pt x="928" y="894" on="1"/>
        <pt x="928" y="892" on="1"/>
        <pt x="928" y="881" on="0"/>
        <pt x="906" y="832" on="0"/>
        <pt x="906" y="830" on="1"/>
        <pt x="878" y="754" on="0"/>
        <pt x="809" y="462" on="0"/>
        <pt x="792" y="332" on="1"/>
        <pt x="860" y="349" on="0"/>
        <pt x="916" y="394" on="1"/>
        <pt x="934" y="408" on="0"/>
        <pt x="942" y="408" on="0"/>
        <pt x="942" y="397" on="0"/>
        <pt x="898" y="362" on="0"/>
        <pt x="823" y="322" on="0"/>
        <pt x="790" y="314" on="1"/>
        <pt x="780" y="227" on="0"/>
        <pt x="780" y="178" on="1"/>
        <pt x="780" y="26" on="0"/>
        <pt x="844" y="26" on="1"/>
        <pt x="881" y="26" on="0"/>
        <pt x="998" y="97" on="0"/>
        <pt x="1117" y="201" on="0"/>
        <pt x="1148" y="248" on="1"/>
        <pt x="1152" y="254" on="0"/>
        <pt x="1160" y="254" on="0"/>
        <pt x="1160" y="248" on="0"/>
        <pt x="1158" y="244" on="1"/>
        <pt x="1104" y="172" on="0"/>
        <pt x="997" y="78" on="0"/>
        <pt x="850" y="-8" on="0"/>
        <pt x="728" y="-8" on="0"/>
        <pt x="692" y="67" on="0"/>
        <pt x="692" y="226" on="0"/>
        <pt x="702" y="296" on="1"/>
        <pt x="612" y="286" on="0"/>
        <pt x="541" y="286" on="0"/>
        <pt x="409" y="308" on="0"/>
        <pt x="378" y="308" on="0"/>
      </contour>
      <contour>
        <pt x="934" y="1174" on="1"/>
        <pt x="924" y="1148" on="0"/>
        <pt x="924" y="1097" on="0"/>
        <pt x="969" y="1060" on="0"/>
        <pt x="1002" y="1060" on="1"/>
        <pt x="1086" y="1060" on="0"/>
        <pt x="1146" y="1148" on="1"/>
        <pt x="1151" y="1153" on="0"/>
        <pt x="1185" y="1174" on="0"/>
        <pt x="1194" y="1174" on="1"/>
        <pt x="1196" y="1174" on="1"/>
        <pt x="1196" y="1166" on="0"/>
        <pt x="1128" y="1099" on="0"/>
        <pt x="1009" y="1032" on="0"/>
        <pt x="912" y="1032" on="0"/>
        <pt x="876" y="1075" on="0"/>
        <pt x="876" y="1123" on="0"/>
        <pt x="886" y="1150" on="1"/>
        <pt x="889" y="1157" on="0"/>
        <pt x="923" y="1176" on="0"/>
        <pt x="932" y="1176" on="1"/>
      </contour>
    </TTGlyph>
    <TTGlyph name="Acircumflex" xMin="-50" yMin="-14" xMax="1160" yMax="1166">
      <contour>
        <pt x="404" y="342" on="1"/>
        <pt x="438" y="342" on="1"/>
        <pt x="478" y="342" on="0"/>
        <pt x="632" y="318" on="0"/>
        <pt x="690" y="318" on="0"/>
        <pt x="706" y="320" on="1"/>
        <pt x="720" y="434" on="0"/>
        <pt x="766" y="638" on="0"/>
        <pt x="790" y="740" on="0"/>
        <pt x="806" y="801" on="0"/>
        <pt x="806" y="808" on="0"/>
        <pt x="804" y="808" on="1"/>
        <pt x="796" y="808" on="0"/>
        <pt x="776" y="780" on="1"/>
      </contour>
      <contour>
        <pt x="372" y="306" on="1"/>
        <pt x="180" y="87" on="0"/>
        <pt x="102" y="22" on="1"/>
        <pt x="73" y="0" on="0"/>
        <pt x="16" y="-6" on="1"/>
        <pt x="13" y="-6" on="0"/>
        <pt x="-26" y="-14" on="0"/>
        <pt x="-50" y="-14" on="0"/>
        <pt x="-50" y="-6" on="1"/>
        <pt x="-50" y="4" on="0"/>
        <pt x="-34" y="8" on="1"/>
        <pt x="4" y="21" on="0"/>
        <pt x="30" y="44" on="1"/>
        <pt x="181" y="176" on="0"/>
        <pt x="509" y="507" on="0"/>
        <pt x="746" y="784" on="1"/>
        <pt x="762" y="802" on="0"/>
        <pt x="783" y="827" on="0"/>
        <pt x="805" y="847" on="0"/>
        <pt x="815" y="856" on="0"/>
        <pt x="836" y="868" on="0"/>
        <pt x="839" y="870" on="1"/>
        <pt x="852" y="876" on="0"/>
        <pt x="879" y="885" on="0"/>
        <pt x="914" y="902" on="0"/>
        <pt x="928" y="902" on="0"/>
        <pt x="928" y="894" on="1"/>
        <pt x="928" y="892" on="1"/>
        <pt x="928" y="881" on="0"/>
        <pt x="906" y="832" on="0"/>
        <pt x="906" y="830" on="1"/>
        <pt x="878" y="754" on="0"/>
        <pt x="809" y="462" on="0"/>
        <pt x="792" y="332" on="1"/>
        <pt x="860" y="349" on="0"/>
        <pt x="916" y="394" on="1"/>
        <pt x="934" y="408" on="0"/>
        <pt x="942" y="408" on="0"/>
        <pt x="942" y="397" on="0"/>
        <pt x="898" y="362" on="0"/>
        <pt x="823" y="322" on="0"/>
        <pt x="790" y="314" on="1"/>
        <pt x="780" y="227" on="0"/>
        <pt x="780" y="178" on="1"/>
        <pt x="780" y="26" on="0"/>
        <pt x="844" y="26" on="1"/>
        <pt x="881" y="26" on="0"/>
        <pt x="998" y="97" on="0"/>
        <pt x="1117" y="201" on="0"/>
        <pt x="1148" y="248" on="1"/>
        <pt x="1152" y="254" on="0"/>
        <pt x="1160" y="254" on="0"/>
        <pt x="1160" y="248" on="0"/>
        <pt x="1158" y="244" on="1"/>
        <pt x="1104" y="172" on="0"/>
        <pt x="997" y="78" on="0"/>
        <pt x="850" y="-8" on="0"/>
        <pt x="728" y="-8" on="0"/>
        <pt x="692" y="67" on="0"/>
        <pt x="692" y="226" on="0"/>
        <pt x="702" y="296" on="1"/>
        <pt x="612" y="286" on="0"/>
        <pt x="541" y="286" on="0"/>
        <pt x="409" y="308" on="0"/>
        <pt x="378" y="308" on="0"/>
      </contour>
      <contour>
        <pt x="1006" y="1150" on="1"/>
        <pt x="1027" y="1166" on="0"/>
        <pt x="1045" y="1166" on="0"/>
        <pt x="1049" y="1154" on="0"/>
        <pt x="1100" y="1053" on="0"/>
        <pt x="1100" y="1027" on="1"/>
        <pt x="1100" y="1025" on="0"/>
        <pt x="1076" y="1014" on="0"/>
        <pt x="1060" y="1000" on="0"/>
        <pt x="1058" y="1000" on="1"/>
        <pt x="1056" y="999" on="1"/>
        <pt x="1056" y="1000" on="1"/>
        <pt x="1033" y="1057" on="0"/>
        <pt x="1004" y="1118" on="1"/>
        <pt x="812" y="1012" on="1"/>
        <pt x="794" y="1002" on="0"/>
        <pt x="782" y="1002" on="1"/>
        <pt x="780" y="1004" on="1"/>
        <pt x="780" y="1006" on="0"/>
        <pt x="800" y="1018" on="1"/>
        <pt x="900" y="1080" on="0"/>
      </contour>
    </TTGlyph>
    <TTGlyph name="Adieresis" xMin="-50" yMin="-14" xMax="1160" yMax="1124">
      <contour>
        <pt x="404" y="342" on="1"/>
        <pt x="438" y="342" on="1"/>
        <pt x="478" y="342" on="0"/>
        <pt x="632" y="318" on="0"/>
        <pt x="690" y="318" on="0"/>
        <pt x="706" y="320" on="1"/>
        <pt x="720" y="434" on="0"/>
        <pt x="766" y="638" on="0"/>
        <pt x="790" y="740" on="0"/>
        <pt x="806" y="801" on="0"/>
        <pt x="806" y="808" on="0"/>
        <pt x="804" y="808" on="1"/>
        <pt x="796" y="808" on="0"/>
        <pt x="776" y="780" on="1"/>
      </contour>
      <contour>
        <pt x="372" y="306" on="1"/>
        <pt x="180" y="87" on="0"/>
        <pt x="102" y="22" on="1"/>
        <pt x="73" y="0" on="0"/>
        <pt x="16" y="-6" on="1"/>
        <pt x="13" y="-6" on="0"/>
        <pt x="-26" y="-14" on="0"/>
        <pt x="-50" y="-14" on="0"/>
        <pt x="-50" y="-6" on="1"/>
        <pt x="-50" y="4" on="0"/>
        <pt x="-34" y="8" on="1"/>
        <pt x="4" y="21" on="0"/>
        <pt x="30" y="44" on="1"/>
        <pt x="181" y="176" on="0"/>
        <pt x="509" y="507" on="0"/>
        <pt x="746" y="784" on="1"/>
        <pt x="762" y="802" on="0"/>
        <pt x="783" y="827" on="0"/>
        <pt x="805" y="847" on="0"/>
        <pt x="815" y="856" on="0"/>
        <pt x="836" y="868" on="0"/>
        <pt x="839" y="870" on="1"/>
        <pt x="852" y="876" on="0"/>
        <pt x="879" y="885" on="0"/>
        <pt x="914" y="902" on="0"/>
        <pt x="928" y="902" on="0"/>
        <pt x="928" y="894" on="1"/>
        <pt x="928" y="892" on="1"/>
        <pt x="928" y="881" on="0"/>
        <pt x="906" y="832" on="0"/>
        <pt x="906" y="830" on="1"/>
        <pt x="878" y="754" on="0"/>
        <pt x="809" y="462" on="0"/>
        <pt x="792" y="332" on="1"/>
        <pt x="860" y="349" on="0"/>
        <pt x="916" y="394" on="1"/>
        <pt x="934" y="408" on="0"/>
        <pt x="942" y="408" on="0"/>
        <pt x="942" y="397" on="0"/>
        <pt x="898" y="362" on="0"/>
        <pt x="823" y="322" on="0"/>
        <pt x="790" y="314" on="1"/>
        <pt x="780" y="227" on="0"/>
        <pt x="780" y="178" on="1"/>
        <pt x="780" y="26" on="0"/>
        <pt x="844" y="26" on="1"/>
        <pt x="881" y="26" on="0"/>
        <pt x="998" y="97" on="0"/>
        <pt x="1117" y="201" on="0"/>
        <pt x="1148" y="248" on="1"/>
        <pt x="1152" y="254" on="0"/>
        <pt x="1160" y="254" on="0"/>
        <pt x="1160" y="248" on="0"/>
        <pt x="1158" y="244" on="1"/>
        <pt x="1104" y="172" on="0"/>
        <pt x="997" y="78" on="0"/>
        <pt x="850" y="-8" on="0"/>
        <pt x="728" y="-8" on="0"/>
        <pt x="692" y="67" on="0"/>
        <pt x="692" y="226" on="0"/>
        <pt x="702" y="296" on="1"/>
        <pt x="612" y="286" on="0"/>
        <pt x="541" y="286" on="0"/>
        <pt x="409" y="308" on="0"/>
        <pt x="378" y="308" on="0"/>
      </contour>
      <contour>
        <pt x="856" y="1054" on="1"/>
        <pt x="856" y="1076" on="0"/>
        <pt x="876" y="1100" on="1"/>
        <pt x="894" y="1124" on="0"/>
        <pt x="930" y="1124" on="0"/>
        <pt x="948" y="1103" on="0"/>
        <pt x="948" y="1065" on="0"/>
        <pt x="912" y="1018" on="0"/>
        <pt x="888" y="1018" on="1"/>
        <pt x="856" y="1018" on="0"/>
      </contour>
      <contour>
        <pt x="1008" y="1054" on="1"/>
        <pt x="1008" y="1076" on="0"/>
        <pt x="1028" y="1100" on="1"/>
        <pt x="1046" y="1124" on="0"/>
        <pt x="1082" y="1124" on="0"/>
        <pt x="1100" y="1103" on="0"/>
        <pt x="1100" y="1065" on="0"/>
        <pt x="1064" y="1018" on="0"/>
        <pt x="1040" y="1018" on="1"/>
        <pt x="1008" y="1018" on="0"/>
      </contour>
    </TTGlyph>
    <TTGlyph name="Agrave" xMin="-50" yMin="-14" xMax="1160" yMax="1242">
      <contour>
        <pt x="404" y="342" on="1"/>
        <pt x="438" y="342" on="1"/>
        <pt x="478" y="342" on="0"/>
        <pt x="632" y="318" on="0"/>
        <pt x="690" y="318" on="0"/>
        <pt x="706" y="320" on="1"/>
        <pt x="720" y="434" on="0"/>
        <pt x="766" y="638" on="0"/>
        <pt x="790" y="740" on="0"/>
        <pt x="806" y="801" on="0"/>
        <pt x="806" y="808" on="0"/>
        <pt x="804" y="808" on="1"/>
        <pt x="796" y="808" on="0"/>
        <pt x="776" y="780" on="1"/>
      </contour>
      <contour>
        <pt x="372" y="306" on="1"/>
        <pt x="180" y="87" on="0"/>
        <pt x="102" y="22" on="1"/>
        <pt x="73" y="0" on="0"/>
        <pt x="16" y="-6" on="1"/>
        <pt x="13" y="-6" on="0"/>
        <pt x="-26" y="-14" on="0"/>
        <pt x="-50" y="-14" on="0"/>
        <pt x="-50" y="-6" on="1"/>
        <pt x="-50" y="4" on="0"/>
        <pt x="-34" y="8" on="1"/>
        <pt x="4" y="21" on="0"/>
        <pt x="30" y="44" on="1"/>
        <pt x="181" y="176" on="0"/>
        <pt x="509" y="507" on="0"/>
        <pt x="746" y="784" on="1"/>
        <pt x="762" y="802" on="0"/>
        <pt x="783" y="827" on="0"/>
        <pt x="805" y="847" on="0"/>
        <pt x="815" y="856" on="0"/>
        <pt x="836" y="868" on="0"/>
        <pt x="839" y="870" on="1"/>
        <pt x="852" y="876" on="0"/>
        <pt x="879" y="885" on="0"/>
        <pt x="914" y="902" on="0"/>
        <pt x="928" y="902" on="0"/>
        <pt x="928" y="894" on="1"/>
        <pt x="928" y="892" on="1"/>
        <pt x="928" y="881" on="0"/>
        <pt x="906" y="832" on="0"/>
        <pt x="906" y="830" on="1"/>
        <pt x="878" y="754" on="0"/>
        <pt x="809" y="462" on="0"/>
        <pt x="792" y="332" on="1"/>
        <pt x="860" y="349" on="0"/>
        <pt x="916" y="394" on="1"/>
        <pt x="934" y="408" on="0"/>
        <pt x="942" y="408" on="0"/>
        <pt x="942" y="397" on="0"/>
        <pt x="898" y="362" on="0"/>
        <pt x="823" y="322" on="0"/>
        <pt x="790" y="314" on="1"/>
        <pt x="780" y="227" on="0"/>
        <pt x="780" y="178" on="1"/>
        <pt x="780" y="26" on="0"/>
        <pt x="844" y="26" on="1"/>
        <pt x="881" y="26" on="0"/>
        <pt x="998" y="97" on="0"/>
        <pt x="1117" y="201" on="0"/>
        <pt x="1148" y="248" on="1"/>
        <pt x="1152" y="254" on="0"/>
        <pt x="1160" y="254" on="0"/>
        <pt x="1160" y="248" on="0"/>
        <pt x="1158" y="244" on="1"/>
        <pt x="1104" y="172" on="0"/>
        <pt x="997" y="78" on="0"/>
        <pt x="850" y="-8" on="0"/>
        <pt x="728" y="-8" on="0"/>
        <pt x="692" y="67" on="0"/>
        <pt x="692" y="226" on="0"/>
        <pt x="702" y="296" on="1"/>
        <pt x="612" y="286" on="0"/>
        <pt x="541" y="286" on="0"/>
        <pt x="409" y="308" on="0"/>
        <pt x="378" y="308" on="0"/>
      </contour>
      <contour>
        <pt x="952" y="1011" on="0"/>
        <pt x="956" y="1003" on="0"/>
        <pt x="956" y="1000" on="0"/>
        <pt x="944" y="1000" on="0"/>
        <pt x="940" y="1008" on="1"/>
        <pt x="828" y="1192" on="1"/>
        <pt x="826" y="1194" on="0"/>
        <pt x="826" y="1217" on="0"/>
        <pt x="838" y="1242" on="0"/>
        <pt x="855" y="1242" on="0"/>
        <pt x="860" y="1232" on="1"/>
        <pt x="946" y="1024" on="1"/>
        <pt x="947" y="1022" on="0"/>
      </contour>
    </TTGlyph>
    <TTGlyph name="Alpha" xMin="-50" yMin="-14" xMax="1160" yMax="902">
      <contour>
        <pt x="404" y="342" on="1"/>
        <pt x="438" y="342" on="1"/>
        <pt x="478" y="342" on="0"/>
        <pt x="632" y="318" on="0"/>
        <pt x="690" y="318" on="0"/>
        <pt x="706" y="320" on="1"/>
        <pt x="720" y="434" on="0"/>
        <pt x="766" y="638" on="0"/>
        <pt x="790" y="740" on="0"/>
        <pt x="806" y="801" on="0"/>
        <pt x="806" y="808" on="0"/>
        <pt x="804" y="808" on="1"/>
        <pt x="796" y="808" on="0"/>
        <pt x="776" y="780" on="1"/>
      </contour>
      <contour>
        <pt x="372" y="306" on="1"/>
        <pt x="180" y="87" on="0"/>
        <pt x="102" y="22" on="1"/>
        <pt x="73" y="0" on="0"/>
        <pt x="16" y="-6" on="1"/>
        <pt x="13" y="-6" on="0"/>
        <pt x="-26" y="-14" on="0"/>
        <pt x="-50" y="-14" on="0"/>
        <pt x="-50" y="-6" on="1"/>
        <pt x="-50" y="4" on="0"/>
        <pt x="-34" y="8" on="1"/>
        <pt x="4" y="21" on="0"/>
        <pt x="30" y="44" on="1"/>
        <pt x="181" y="176" on="0"/>
        <pt x="509" y="507" on="0"/>
        <pt x="746" y="784" on="1"/>
        <pt x="762" y="802" on="0"/>
        <pt x="783" y="827" on="0"/>
        <pt x="805" y="847" on="0"/>
        <pt x="815" y="856" on="0"/>
        <pt x="836" y="868" on="0"/>
        <pt x="839" y="870" on="1"/>
        <pt x="852" y="876" on="0"/>
        <pt x="879" y="885" on="0"/>
        <pt x="914" y="902" on="0"/>
        <pt x="928" y="902" on="0"/>
        <pt x="928" y="894" on="1"/>
        <pt x="928" y="892" on="1"/>
        <pt x="928" y="881" on="0"/>
        <pt x="906" y="832" on="0"/>
        <pt x="906" y="830" on="1"/>
        <pt x="878" y="754" on="0"/>
        <pt x="809" y="462" on="0"/>
        <pt x="792" y="332" on="1"/>
        <pt x="860" y="349" on="0"/>
        <pt x="916" y="394" on="1"/>
        <pt x="934" y="408" on="0"/>
        <pt x="942" y="408" on="0"/>
        <pt x="942" y="397" on="0"/>
        <pt x="898" y="362" on="0"/>
        <pt x="823" y="322" on="0"/>
        <pt x="790" y="314" on="1"/>
        <pt x="780" y="227" on="0"/>
        <pt x="780" y="178" on="1"/>
        <pt x="780" y="26" on="0"/>
        <pt x="844" y="26" on="1"/>
        <pt x="881" y="26" on="0"/>
        <pt x="998" y="97" on="0"/>
        <pt x="1117" y="201" on="0"/>
        <pt x="1148" y="248" on="1"/>
        <pt x="1152" y="254" on="0"/>
        <pt x="1160" y="254" on="0"/>
        <pt x="1160" y="248" on="0"/>
        <pt x="1158" y="244" on="1"/>
        <pt x="1104" y="172" on="0"/>
        <pt x="997" y="78" on="0"/>
        <pt x="850" y="-8" on="0"/>
        <pt x="728" y="-8" on="0"/>
        <pt x="692" y="67" on="0"/>
        <pt x="692" y="226" on="0"/>
        <pt x="702" y="296" on="1"/>
        <pt x="612" y="286" on="0"/>
        <pt x="541" y="286" on="0"/>
        <pt x="409" y="308" on="0"/>
        <pt x="378" y="308" on="0"/>
      </contour>
    </TTGlyph>
    <TTGlyph name="Alphatonos" xMin="-50" yMin="-14" xMax="1160" yMax="1022">
      <contour>
        <pt x="404" y="342" on="1"/>
        <pt x="438" y="342" on="1"/>
        <pt x="478" y="342" on="0"/>
        <pt x="632" y="318" on="0"/>
        <pt x="690" y="318" on="0"/>
        <pt x="706" y="320" on="1"/>
        <pt x="720" y="434" on="0"/>
        <pt x="766" y="638" on="0"/>
        <pt x="790" y="740" on="0"/>
        <pt x="806" y="801" on="0"/>
        <pt x="806" y="808" on="0"/>
        <pt x="804" y="808" on="1"/>
        <pt x="796" y="808" on="0"/>
        <pt x="776" y="780" on="1"/>
      </contour>
      <contour>
        <pt x="372" y="306" on="1"/>
        <pt x="180" y="87" on="0"/>
        <pt x="102" y="22" on="1"/>
        <pt x="73" y="0" on="0"/>
        <pt x="16" y="-6" on="1"/>
        <pt x="13" y="-6" on="0"/>
        <pt x="-26" y="-14" on="0"/>
        <pt x="-50" y="-14" on="0"/>
        <pt x="-50" y="-6" on="1"/>
        <pt x="-50" y="4" on="0"/>
        <pt x="-34" y="8" on="1"/>
        <pt x="4" y="21" on="0"/>
        <pt x="30" y="44" on="1"/>
        <pt x="181" y="176" on="0"/>
        <pt x="509" y="507" on="0"/>
        <pt x="746" y="784" on="1"/>
        <pt x="762" y="802" on="0"/>
        <pt x="783" y="827" on="0"/>
        <pt x="805" y="847" on="0"/>
        <pt x="815" y="856" on="0"/>
        <pt x="836" y="868" on="0"/>
        <pt x="839" y="870" on="1"/>
        <pt x="852" y="876" on="0"/>
        <pt x="879" y="885" on="0"/>
        <pt x="914" y="902" on="0"/>
        <pt x="928" y="902" on="0"/>
        <pt x="928" y="894" on="1"/>
        <pt x="928" y="892" on="1"/>
        <pt x="928" y="881" on="0"/>
        <pt x="906" y="832" on="0"/>
        <pt x="906" y="830" on="1"/>
        <pt x="878" y="754" on="0"/>
        <pt x="809" y="462" on="0"/>
        <pt x="792" y="332" on="1"/>
        <pt x="860" y="349" on="0"/>
        <pt x="916" y="394" on="1"/>
        <pt x="934" y="408" on="0"/>
        <pt x="942" y="408" on="0"/>
        <pt x="942" y="397" on="0"/>
        <pt x="898" y="362" on="0"/>
        <pt x="823" y="322" on="0"/>
        <pt x="790" y="314" on="1"/>
        <pt x="780" y="227" on="0"/>
        <pt x="780" y="178" on="1"/>
        <pt x="780" y="26" on="0"/>
        <pt x="844" y="26" on="1"/>
        <pt x="881" y="26" on="0"/>
        <pt x="998" y="97" on="0"/>
        <pt x="1117" y="201" on="0"/>
        <pt x="1148" y="248" on="1"/>
        <pt x="1152" y="254" on="0"/>
        <pt x="1160" y="254" on="0"/>
        <pt x="1160" y="248" on="0"/>
        <pt x="1158" y="244" on="1"/>
        <pt x="1104" y="172" on="0"/>
        <pt x="997" y="78" on="0"/>
        <pt x="850" y="-8" on="0"/>
        <pt x="728" y="-8" on="0"/>
        <pt x="692" y="67" on="0"/>
        <pt x="692" y="226" on="0"/>
        <pt x="702" y="296" on="1"/>
        <pt x="612" y="286" on="0"/>
        <pt x="541" y="286" on="0"/>
        <pt x="409" y="308" on="0"/>
        <pt x="378" y="308" on="0"/>
      </contour>
      <contour>
        <pt x="534" y="804" on="1"/>
        <pt x="728" y="1004" on="1"/>
        <pt x="746" y="1022" on="0"/>
        <pt x="754" y="1022" on="0"/>
        <pt x="764" y="999" on="0"/>
        <pt x="764" y="985" on="0"/>
        <pt x="756" y="980" on="1"/>
        <pt x="715" y="944" on="0"/>
        <pt x="586" y="841" on="0"/>
        <pt x="542" y="802" on="1"/>
        <pt x="538" y="794" on="0"/>
        <pt x="528" y="794" on="0"/>
        <pt x="528" y="796" on="1"/>
      </contour>
    </TTGlyph>
    <TTGlyph name="Amacron" xMin="-50" yMin="-14" xMax="1160" yMax="1082">
      <contour>
        <pt x="404" y="342" on="1"/>
        <pt x="438" y="342" on="1"/>
        <pt x="478" y="342" on="0"/>
        <pt x="632" y="318" on="0"/>
        <pt x="690" y="318" on="0"/>
        <pt x="706" y="320" on="1"/>
        <pt x="720" y="434" on="0"/>
        <pt x="766" y="638" on="0"/>
        <pt x="790" y="740" on="0"/>
        <pt x="806" y="801" on="0"/>
        <pt x="806" y="808" on="0"/>
        <pt x="804" y="808" on="1"/>
        <pt x="796" y="808" on="0"/>
        <pt x="776" y="780" on="1"/>
      </contour>
      <contour>
        <pt x="372" y="306" on="1"/>
        <pt x="180" y="87" on="0"/>
        <pt x="102" y="22" on="1"/>
        <pt x="73" y="0" on="0"/>
        <pt x="16" y="-6" on="1"/>
        <pt x="13" y="-6" on="0"/>
        <pt x="-26" y="-14" on="0"/>
        <pt x="-50" y="-14" on="0"/>
        <pt x="-50" y="-6" on="1"/>
        <pt x="-50" y="4" on="0"/>
        <pt x="-34" y="8" on="1"/>
        <pt x="4" y="21" on="0"/>
        <pt x="30" y="44" on="1"/>
        <pt x="181" y="176" on="0"/>
        <pt x="509" y="507" on="0"/>
        <pt x="746" y="784" on="1"/>
        <pt x="762" y="802" on="0"/>
        <pt x="783" y="827" on="0"/>
        <pt x="805" y="847" on="0"/>
        <pt x="815" y="856" on="0"/>
        <pt x="836" y="868" on="0"/>
        <pt x="839" y="870" on="1"/>
        <pt x="852" y="876" on="0"/>
        <pt x="879" y="885" on="0"/>
        <pt x="914" y="902" on="0"/>
        <pt x="928" y="902" on="0"/>
        <pt x="928" y="894" on="1"/>
        <pt x="928" y="892" on="1"/>
        <pt x="928" y="881" on="0"/>
        <pt x="906" y="832" on="0"/>
        <pt x="906" y="830" on="1"/>
        <pt x="878" y="754" on="0"/>
        <pt x="809" y="462" on="0"/>
        <pt x="792" y="332" on="1"/>
        <pt x="860" y="349" on="0"/>
        <pt x="916" y="394" on="1"/>
        <pt x="934" y="408" on="0"/>
        <pt x="942" y="408" on="0"/>
        <pt x="942" y="397" on="0"/>
        <pt x="898" y="362" on="0"/>
        <pt x="823" y="322" on="0"/>
        <pt x="790" y="314" on="1"/>
        <pt x="780" y="227" on="0"/>
        <pt x="780" y="178" on="1"/>
        <pt x="780" y="26" on="0"/>
        <pt x="844" y="26" on="1"/>
        <pt x="881" y="26" on="0"/>
        <pt x="998" y="97" on="0"/>
        <pt x="1117" y="201" on="0"/>
        <pt x="1148" y="248" on="1"/>
        <pt x="1152" y="254" on="0"/>
        <pt x="1160" y="254" on="0"/>
        <pt x="1160" y="248" on="0"/>
        <pt x="1158" y="244" on="1"/>
        <pt x="1104" y="172" on="0"/>
        <pt x="997" y="78" on="0"/>
        <pt x="850" y="-8" on="0"/>
        <pt x="728" y="-8" on="0"/>
        <pt x="692" y="67" on="0"/>
        <pt x="692" y="226" on="0"/>
        <pt x="702" y="296" on="1"/>
        <pt x="612" y="286" on="0"/>
        <pt x="541" y="286" on="0"/>
        <pt x="409" y="308" on="0"/>
        <pt x="378" y="308" on="0"/>
      </contour>
      <contour>
        <pt x="1100" y="1052" on="1"/>
        <pt x="818" y="1054" on="1"/>
        <pt x="804" y="1054" on="0"/>
        <pt x="804" y="1082" on="0"/>
        <pt x="812" y="1082" on="1"/>
        <pt x="1142" y="1080" on="1"/>
        <pt x="1158" y="1080" on="0"/>
        <pt x="1158" y="1070" on="1"/>
        <pt x="1158" y="1052" on="0"/>
      </contour>
    </TTGlyph>
    <TTGlyph name="Aogonek" xMin="-50" yMin="-226" xMax="1160" yMax="902">
      <contour>
        <pt x="404" y="342" on="1"/>
        <pt x="438" y="342" on="1"/>
        <pt x="478" y="342" on="0"/>
        <pt x="632" y="318" on="0"/>
        <pt x="690" y="318" on="0"/>
        <pt x="706" y="320" on="1"/>
        <pt x="720" y="434" on="0"/>
        <pt x="766" y="638" on="0"/>
        <pt x="790" y="740" on="0"/>
        <pt x="806" y="801" on="0"/>
        <pt x="806" y="808" on="0"/>
        <pt x="804" y="808" on="1"/>
        <pt x="796" y="808" on="0"/>
        <pt x="776" y="780" on="1"/>
      </contour>
      <contour>
        <pt x="372" y="306" on="1"/>
        <pt x="180" y="87" on="0"/>
        <pt x="102" y="22" on="1"/>
        <pt x="73" y="0" on="0"/>
        <pt x="16" y="-6" on="1"/>
        <pt x="13" y="-6" on="0"/>
        <pt x="-26" y="-14" on="0"/>
        <pt x="-50" y="-14" on="0"/>
        <pt x="-50" y="-6" on="1"/>
        <pt x="-50" y="4" on="0"/>
        <pt x="-34" y="8" on="1"/>
        <pt x="4" y="21" on="0"/>
        <pt x="30" y="44" on="1"/>
        <pt x="181" y="176" on="0"/>
        <pt x="509" y="507" on="0"/>
        <pt x="746" y="784" on="1"/>
        <pt x="762" y="802" on="0"/>
        <pt x="783" y="827" on="0"/>
        <pt x="805" y="847" on="0"/>
        <pt x="815" y="856" on="0"/>
        <pt x="836" y="868" on="0"/>
        <pt x="839" y="870" on="1"/>
        <pt x="852" y="876" on="0"/>
        <pt x="879" y="885" on="0"/>
        <pt x="914" y="902" on="0"/>
        <pt x="928" y="902" on="0"/>
        <pt x="928" y="894" on="1"/>
        <pt x="928" y="892" on="1"/>
        <pt x="928" y="881" on="0"/>
        <pt x="906" y="832" on="0"/>
        <pt x="906" y="830" on="1"/>
        <pt x="878" y="754" on="0"/>
        <pt x="809" y="462" on="0"/>
        <pt x="792" y="332" on="1"/>
        <pt x="860" y="349" on="0"/>
        <pt x="916" y="394" on="1"/>
        <pt x="934" y="408" on="0"/>
        <pt x="942" y="408" on="0"/>
        <pt x="942" y="397" on="0"/>
        <pt x="898" y="362" on="0"/>
        <pt x="823" y="322" on="0"/>
        <pt x="790" y="314" on="1"/>
        <pt x="780" y="227" on="0"/>
        <pt x="780" y="178" on="1"/>
        <pt x="780" y="26" on="0"/>
        <pt x="844" y="26" on="1"/>
        <pt x="881" y="26" on="0"/>
        <pt x="998" y="97" on="0"/>
        <pt x="1117" y="201" on="0"/>
        <pt x="1148" y="248" on="1"/>
        <pt x="1152" y="254" on="0"/>
        <pt x="1160" y="254" on="0"/>
        <pt x="1160" y="248" on="0"/>
        <pt x="1158" y="244" on="1"/>
        <pt x="1104" y="172" on="0"/>
        <pt x="997" y="78" on="0"/>
        <pt x="850" y="-8" on="0"/>
        <pt x="728" y="-8" on="0"/>
        <pt x="692" y="67" on="0"/>
        <pt x="692" y="226" on="0"/>
        <pt x="702" y="296" on="1"/>
        <pt x="612" y="286" on="0"/>
        <pt x="541" y="286" on="0"/>
        <pt x="409" y="308" on="0"/>
        <pt x="378" y="308" on="0"/>
      </contour>
      <contour>
        <pt x="697" y="-45" on="0"/>
        <pt x="795" y="6" on="0"/>
        <pt x="800" y="6" on="0"/>
        <pt x="800" y="2" on="1"/>
        <pt x="800" y="-1" on="0"/>
        <pt x="732" y="-39" on="0"/>
        <pt x="726" y="-42" on="1"/>
        <pt x="642" y="-96" on="0"/>
        <pt x="642" y="-152" on="1"/>
        <pt x="642" y="-176" on="0"/>
        <pt x="679" y="-210" on="0"/>
        <pt x="718" y="-210" on="0"/>
        <pt x="732" y="-206" on="1"/>
        <pt x="746" y="-202" on="1"/>
        <pt x="754" y="-202" on="0"/>
        <pt x="754" y="-206" on="0"/>
        <pt x="738" y="-212" on="1"/>
        <pt x="696" y="-226" on="0"/>
        <pt x="666" y="-226" on="1"/>
        <pt x="580" y="-226" on="0"/>
        <pt x="580" y="-170" on="1"/>
        <pt x="580" y="-143" on="0"/>
        <pt x="619" y="-93" on="0"/>
        <pt x="658" y="-67" on="0"/>
      </contour>
    </TTGlyph>
    <TTGlyph name="Aring" xMin="-50" yMin="-14" xMax="1160" yMax="1050">
      <contour>
        <pt x="404" y="342" on="1"/>
        <pt x="438" y="342" on="1"/>
        <pt x="478" y="342" on="0"/>
        <pt x="632" y="318" on="0"/>
        <pt x="690" y="318" on="0"/>
        <pt x="706" y="320" on="1"/>
        <pt x="720" y="434" on="0"/>
        <pt x="766" y="638" on="0"/>
        <pt x="790" y="740" on="0"/>
        <pt x="806" y="801" on="0"/>
        <pt x="806" y="808" on="0"/>
        <pt x="804" y="808" on="1"/>
        <pt x="796" y="808" on="0"/>
        <pt x="776" y="780" on="1"/>
      </contour>
      <contour>
        <pt x="834" y="884" on="1"/>
        <pt x="808" y="903" on="0"/>
        <pt x="808" y="982" on="0"/>
        <pt x="880" y="1050" on="0"/>
        <pt x="960" y="1050" on="0"/>
        <pt x="1002" y="1012" on="0"/>
        <pt x="1002" y="945" on="0"/>
        <pt x="947" y="879" on="0"/>
        <pt x="908" y="870" on="1"/>
        <pt x="908" y="868" on="0"/>
        <pt x="810" y="471" on="0"/>
        <pt x="792" y="332" on="1"/>
        <pt x="860" y="349" on="0"/>
        <pt x="916" y="394" on="1"/>
        <pt x="934" y="408" on="0"/>
        <pt x="942" y="408" on="0"/>
        <pt x="942" y="397" on="0"/>
        <pt x="898" y="362" on="0"/>
        <pt x="823" y="322" on="0"/>
        <pt x="790" y="314" on="1"/>
        <pt x="780" y="227" on="0"/>
        <pt x="780" y="178" on="1"/>
        <pt x="780" y="26" on="0"/>
        <pt x="844" y="26" on="1"/>
        <pt x="881" y="26" on="0"/>
        <pt x="998" y="97" on="0"/>
        <pt x="1117" y="201" on="0"/>
        <pt x="1148" y="248" on="1"/>
        <pt x="1152" y="254" on="0"/>
        <pt x="1160" y="254" on="0"/>
        <pt x="1160" y="248" on="0"/>
        <pt x="1158" y="244" on="1"/>
        <pt x="1104" y="172" on="0"/>
        <pt x="997" y="78" on="0"/>
        <pt x="850" y="-8" on="0"/>
        <pt x="728" y="-8" on="0"/>
        <pt x="692" y="67" on="0"/>
        <pt x="692" y="226" on="0"/>
        <pt x="702" y="296" on="1"/>
        <pt x="612" y="286" on="0"/>
        <pt x="541" y="286" on="0"/>
        <pt x="409" y="308" on="0"/>
        <pt x="378" y="308" on="0"/>
        <pt x="372" y="306" on="1"/>
        <pt x="180" y="87" on="0"/>
        <pt x="102" y="22" on="1"/>
        <pt x="73" y="0" on="0"/>
        <pt x="16" y="-6" on="1"/>
        <pt x="13" y="-6" on="0"/>
        <pt x="-26" y="-14" on="0"/>
        <pt x="-50" y="-14" on="0"/>
        <pt x="-50" y="-6" on="1"/>
        <pt x="-50" y="4" on="0"/>
        <pt x="-34" y="8" on="1"/>
        <pt x="4" y="21" on="0"/>
        <pt x="30" y="44" on="1"/>
        <pt x="181" y="176" on="0"/>
        <pt x="509" y="507" on="0"/>
        <pt x="746" y="784" on="1"/>
      </contour>
      <contour>
        <pt x="966" y="986" on="0"/>
        <pt x="933" y="1026" on="0"/>
        <pt x="879" y="1026" on="0"/>
        <pt x="842" y="979" on="0"/>
        <pt x="842" y="926" on="0"/>
        <pt x="877" y="890" on="0"/>
        <pt x="926" y="890" on="0"/>
        <pt x="966" y="932" on="0"/>
      </contour>
    </TTGlyph>
    <TTGlyph name="Aringacute" xMin="-50" yMin="-14" xMax="1206" yMax="1360">
      <contour>
        <pt x="404" y="342" on="1"/>
        <pt x="438" y="342" on="1"/>
        <pt x="478" y="342" on="0"/>
        <pt x="632" y="318" on="0"/>
        <pt x="690" y="318" on="0"/>
        <pt x="706" y="320" on="1"/>
        <pt x="720" y="434" on="0"/>
        <pt x="766" y="638" on="0"/>
        <pt x="790" y="740" on="0"/>
        <pt x="806" y="801" on="0"/>
        <pt x="806" y="808" on="0"/>
        <pt x="804" y="808" on="1"/>
        <pt x="796" y="808" on="0"/>
        <pt x="776" y="780" on="1"/>
      </contour>
      <contour>
        <pt x="834" y="884" on="1"/>
        <pt x="808" y="903" on="0"/>
        <pt x="808" y="982" on="0"/>
        <pt x="880" y="1050" on="0"/>
        <pt x="960" y="1050" on="0"/>
        <pt x="1002" y="1012" on="0"/>
        <pt x="1002" y="945" on="0"/>
        <pt x="947" y="879" on="0"/>
        <pt x="908" y="870" on="1"/>
        <pt x="908" y="868" on="0"/>
        <pt x="810" y="471" on="0"/>
        <pt x="792" y="332" on="1"/>
        <pt x="860" y="349" on="0"/>
        <pt x="916" y="394" on="1"/>
        <pt x="934" y="408" on="0"/>
        <pt x="942" y="408" on="0"/>
        <pt x="942" y="397" on="0"/>
        <pt x="898" y="362" on="0"/>
        <pt x="823" y="322" on="0"/>
        <pt x="790" y="314" on="1"/>
        <pt x="780" y="227" on="0"/>
        <pt x="780" y="178" on="1"/>
        <pt x="780" y="26" on="0"/>
        <pt x="844" y="26" on="1"/>
        <pt x="881" y="26" on="0"/>
        <pt x="998" y="97" on="0"/>
        <pt x="1117" y="201" on="0"/>
        <pt x="1148" y="248" on="1"/>
        <pt x="1152" y="254" on="0"/>
        <pt x="1160" y="254" on="0"/>
        <pt x="1160" y="248" on="0"/>
        <pt x="1158" y="244" on="1"/>
        <pt x="1104" y="172" on="0"/>
        <pt x="997" y="78" on="0"/>
        <pt x="850" y="-8" on="0"/>
        <pt x="728" y="-8" on="0"/>
        <pt x="692" y="67" on="0"/>
        <pt x="692" y="226" on="0"/>
        <pt x="702" y="296" on="1"/>
        <pt x="612" y="286" on="0"/>
        <pt x="541" y="286" on="0"/>
        <pt x="409" y="308" on="0"/>
        <pt x="378" y="308" on="0"/>
        <pt x="372" y="306" on="1"/>
        <pt x="180" y="87" on="0"/>
        <pt x="102" y="22" on="1"/>
        <pt x="73" y="0" on="0"/>
        <pt x="16" y="-6" on="1"/>
        <pt x="13" y="-6" on="0"/>
        <pt x="-26" y="-14" on="0"/>
        <pt x="-50" y="-14" on="0"/>
        <pt x="-50" y="-6" on="1"/>
        <pt x="-50" y="4" on="0"/>
        <pt x="-34" y="8" on="1"/>
        <pt x="4" y="21" on="0"/>
        <pt x="30" y="44" on="1"/>
        <pt x="181" y="176" on="0"/>
        <pt x="509" y="507" on="0"/>
        <pt x="746" y="784" on="1"/>
      </contour>
      <contour>
        <pt x="966" y="986" on="0"/>
        <pt x="933" y="1026" on="0"/>
        <pt x="879" y="1026" on="0"/>
        <pt x="842" y="979" on="0"/>
        <pt x="842" y="926" on="0"/>
        <pt x="877" y="890" on="0"/>
        <pt x="926" y="890" on="0"/>
        <pt x="966" y="932" on="0"/>
      </contour>
      <contour>
        <pt x="948" y="1216" on="1"/>
        <pt x="1186" y="1354" on="1"/>
        <pt x="1195" y="1360" on="0"/>
        <pt x="1202" y="1360" on="1"/>
        <pt x="1206" y="1360" on="0"/>
        <pt x="1206" y="1344" on="0"/>
        <pt x="1193" y="1319" on="0"/>
        <pt x="1186" y="1316" on="1"/>
        <pt x="1154" y="1302" on="0"/>
        <pt x="1090" y="1272" on="1"/>
        <pt x="938" y="1200" on="0"/>
        <pt x="926" y="1200" on="0"/>
        <pt x="926" y="1203" on="0"/>
      </contour>
    </TTGlyph>
    <TTGlyph name="Atilde" xMin="-50" yMin="-14" xMax="1186" yMax="1128">
      <contour>
        <pt x="404" y="342" on="1"/>
        <pt x="438" y="342" on="1"/>
        <pt x="478" y="342" on="0"/>
        <pt x="632" y="318" on="0"/>
        <pt x="690" y="318" on="0"/>
        <pt x="706" y="320" on="1"/>
        <pt x="720" y="434" on="0"/>
        <pt x="766" y="638" on="0"/>
        <pt x="790" y="740" on="0"/>
        <pt x="806" y="801" on="0"/>
        <pt x="806" y="808" on="0"/>
        <pt x="804" y="808" on="1"/>
        <pt x="796" y="808" on="0"/>
        <pt x="776" y="780" on="1"/>
      </contour>
      <contour>
        <pt x="372" y="306" on="1"/>
        <pt x="180" y="87" on="0"/>
        <pt x="102" y="22" on="1"/>
        <pt x="73" y="0" on="0"/>
        <pt x="16" y="-6" on="1"/>
        <pt x="13" y="-6" on="0"/>
        <pt x="-26" y="-14" on="0"/>
        <pt x="-50" y="-14" on="0"/>
        <pt x="-50" y="-6" on="1"/>
        <pt x="-50" y="4" on="0"/>
        <pt x="-34" y="8" on="1"/>
        <pt x="4" y="21" on="0"/>
        <pt x="30" y="44" on="1"/>
        <pt x="181" y="176" on="0"/>
        <pt x="509" y="507" on="0"/>
        <pt x="746" y="784" on="1"/>
        <pt x="762" y="802" on="0"/>
        <pt x="783" y="827" on="0"/>
        <pt x="805" y="847" on="0"/>
        <pt x="815" y="856" on="0"/>
        <pt x="836" y="868" on="0"/>
        <pt x="839" y="870" on="1"/>
        <pt x="852" y="876" on="0"/>
        <pt x="879" y="885" on="0"/>
        <pt x="914" y="902" on="0"/>
        <pt x="928" y="902" on="0"/>
        <pt x="928" y="894" on="1"/>
        <pt x="928" y="892" on="1"/>
        <pt x="928" y="881" on="0"/>
        <pt x="906" y="832" on="0"/>
        <pt x="906" y="830" on="1"/>
        <pt x="878" y="754" on="0"/>
        <pt x="809" y="462" on="0"/>
        <pt x="792" y="332" on="1"/>
        <pt x="860" y="349" on="0"/>
        <pt x="916" y="394" on="1"/>
        <pt x="934" y="408" on="0"/>
        <pt x="942" y="408" on="0"/>
        <pt x="942" y="397" on="0"/>
        <pt x="898" y="362" on="0"/>
        <pt x="823" y="322" on="0"/>
        <pt x="790" y="314" on="1"/>
        <pt x="780" y="227" on="0"/>
        <pt x="780" y="178" on="1"/>
        <pt x="780" y="26" on="0"/>
        <pt x="844" y="26" on="1"/>
        <pt x="881" y="26" on="0"/>
        <pt x="998" y="97" on="0"/>
        <pt x="1117" y="201" on="0"/>
        <pt x="1148" y="248" on="1"/>
        <pt x="1152" y="254" on="0"/>
        <pt x="1160" y="254" on="0"/>
        <pt x="1160" y="248" on="0"/>
        <pt x="1158" y="244" on="1"/>
        <pt x="1104" y="172" on="0"/>
        <pt x="997" y="78" on="0"/>
        <pt x="850" y="-8" on="0"/>
        <pt x="728" y="-8" on="0"/>
        <pt x="692" y="67" on="0"/>
        <pt x="692" y="226" on="0"/>
        <pt x="702" y="296" on="1"/>
        <pt x="612" y="286" on="0"/>
        <pt x="541" y="286" on="0"/>
        <pt x="409" y="308" on="0"/>
        <pt x="378" y="308" on="0"/>
      </contour>
      <contour>
        <pt x="936" y="1128" on="1"/>
        <pt x="957" y="1128" on="0"/>
        <pt x="993" y="1098" on="0"/>
        <pt x="1014" y="1062" on="0"/>
        <pt x="1048" y="1032" on="0"/>
        <pt x="1068" y="1032" on="1"/>
        <pt x="1103" y="1032" on="0"/>
        <pt x="1160" y="1102" on="1"/>
        <pt x="1179" y="1126" on="0"/>
        <pt x="1186" y="1126" on="0"/>
        <pt x="1186" y="1122" on="1"/>
        <pt x="1186" y="1103" on="0"/>
        <pt x="1071" y="998" on="0"/>
        <pt x="1024" y="998" on="1"/>
        <pt x="1001" y="998" on="0"/>
        <pt x="964" y="1028" on="0"/>
        <pt x="954" y="1046" on="1"/>
        <pt x="926" y="1094" on="0"/>
        <pt x="857" y="1094" on="0"/>
        <pt x="800" y="1024" on="1"/>
        <pt x="781" y="1000" on="0"/>
        <pt x="774" y="1000" on="0"/>
        <pt x="774" y="1004" on="1"/>
        <pt x="774" y="1023" on="0"/>
        <pt x="889" y="1128" on="0"/>
      </contour>
    </TTGlyph>
    <TTGlyph name="B" xMin="36" yMin="-146" xMax="926" yMax="886">
      <contour>
        <pt x="342" y="158" on="1"/>
        <pt x="336" y="146" on="1"/>
        <pt x="336" y="90" on="0"/>
        <pt x="434" y="0" on="0"/>
        <pt x="502" y="0" on="1"/>
        <pt x="545" y="0" on="0"/>
        <pt x="650" y="53" on="0"/>
        <pt x="746" y="145" on="0"/>
        <pt x="810" y="289" on="0"/>
        <pt x="810" y="370" on="1"/>
        <pt x="808" y="416" on="0"/>
        <pt x="755" y="476" on="0"/>
        <pt x="664" y="476" on="0"/>
        <pt x="584" y="442" on="0"/>
        <pt x="569" y="442" on="0"/>
        <pt x="560" y="457" on="0"/>
        <pt x="552" y="464" on="0"/>
        <pt x="552" y="474" on="0"/>
        <pt x="575" y="480" on="0"/>
        <pt x="610" y="484" on="0"/>
        <pt x="616" y="486" on="1"/>
        <pt x="693" y="512" on="0"/>
        <pt x="834" y="680" on="0"/>
        <pt x="834" y="762" on="1"/>
        <pt x="834" y="799" on="0"/>
        <pt x="780" y="842" on="0"/>
        <pt x="703" y="842" on="0"/>
        <pt x="662" y="816" on="1"/>
        <pt x="621" y="788" on="0"/>
        <pt x="566" y="726" on="1"/>
        <pt x="453" y="598" on="0"/>
        <pt x="284" y="258" on="1"/>
        <pt x="182" y="51" on="0"/>
        <pt x="126" y="-110" on="1"/>
        <pt x="122" y="-121" on="0"/>
        <pt x="87" y="-130" on="0"/>
        <pt x="45" y="-146" on="0"/>
        <pt x="44" y="-146" on="1"/>
        <pt x="36" y="-146" on="0"/>
        <pt x="36" y="-129" on="0"/>
        <pt x="209" y="204" on="0"/>
        <pt x="238" y="260" on="1"/>
        <pt x="394" y="563" on="0"/>
        <pt x="677" y="886" on="0"/>
        <pt x="812" y="886" on="1"/>
        <pt x="858" y="886" on="0"/>
        <pt x="926" y="843" on="0"/>
        <pt x="926" y="796" on="1"/>
        <pt x="926" y="697" on="0"/>
        <pt x="753" y="515" on="0"/>
        <pt x="660" y="486" on="1"/>
        <pt x="720" y="492" on="0"/>
        <pt x="736" y="492" on="1"/>
        <pt x="808" y="492" on="0"/>
        <pt x="900" y="422" on="0"/>
        <pt x="900" y="340" on="1"/>
        <pt x="900" y="220" on="0"/>
        <pt x="742" y="86" on="1"/>
        <pt x="612" y="-24" on="0"/>
        <pt x="448" y="-24" on="1"/>
        <pt x="373" y="-24" on="0"/>
        <pt x="266" y="68" on="0"/>
        <pt x="266" y="124" on="1"/>
        <pt x="266" y="129" on="0"/>
        <pt x="301" y="140" on="0"/>
        <pt x="317" y="149" on="0"/>
        <pt x="331" y="158" on="0"/>
        <pt x="336" y="162" on="0"/>
        <pt x="342" y="162" on="0"/>
      </contour>
    </TTGlyph>
    <TTGlyph name="Beta" xMin="36" yMin="-146" xMax="926" yMax="886">
      <contour>
        <pt x="342" y="158" on="1"/>
        <pt x="336" y="146" on="1"/>
        <pt x="336" y="90" on="0"/>
        <pt x="434" y="0" on="0"/>
        <pt x="502" y="0" on="1"/>
        <pt x="545" y="0" on="0"/>
        <pt x="650" y="53" on="0"/>
        <pt x="746" y="145" on="0"/>
        <pt x="810" y="289" on="0"/>
        <pt x="810" y="370" on="1"/>
        <pt x="808" y="416" on="0"/>
        <pt x="755" y="476" on="0"/>
        <pt x="664" y="476" on="0"/>
        <pt x="584" y="442" on="0"/>
        <pt x="569" y="442" on="0"/>
        <pt x="560" y="457" on="0"/>
        <pt x="552" y="464" on="0"/>
        <pt x="552" y="474" on="0"/>
        <pt x="575" y="480" on="0"/>
        <pt x="610" y="484" on="0"/>
        <pt x="616" y="486" on="1"/>
        <pt x="693" y="512" on="0"/>
        <pt x="834" y="680" on="0"/>
        <pt x="834" y="762" on="1"/>
        <pt x="834" y="799" on="0"/>
        <pt x="780" y="842" on="0"/>
        <pt x="703" y="842" on="0"/>
        <pt x="662" y="816" on="1"/>
        <pt x="621" y="788" on="0"/>
        <pt x="566" y="726" on="1"/>
        <pt x="453" y="598" on="0"/>
        <pt x="284" y="258" on="1"/>
        <pt x="182" y="51" on="0"/>
        <pt x="126" y="-110" on="1"/>
        <pt x="122" y="-121" on="0"/>
        <pt x="87" y="-130" on="0"/>
        <pt x="45" y="-146" on="0"/>
        <pt x="44" y="-146" on="1"/>
        <pt x="36" y="-146" on="0"/>
        <pt x="36" y="-129" on="0"/>
        <pt x="209" y="204" on="0"/>
        <pt x="238" y="260" on="1"/>
        <pt x="394" y="563" on="0"/>
        <pt x="677" y="886" on="0"/>
        <pt x="812" y="886" on="1"/>
        <pt x="858" y="886" on="0"/>
        <pt x="926" y="843" on="0"/>
        <pt x="926" y="796" on="1"/>
        <pt x="926" y="697" on="0"/>
        <pt x="753" y="515" on="0"/>
        <pt x="660" y="486" on="1"/>
        <pt x="720" y="492" on="0"/>
        <pt x="736" y="492" on="1"/>
        <pt x="808" y="492" on="0"/>
        <pt x="900" y="422" on="0"/>
        <pt x="900" y="340" on="1"/>
        <pt x="900" y="220" on="0"/>
        <pt x="742" y="86" on="1"/>
        <pt x="612" y="-24" on="0"/>
        <pt x="448" y="-24" on="1"/>
        <pt x="373" y="-24" on="0"/>
        <pt x="266" y="68" on="0"/>
        <pt x="266" y="124" on="1"/>
        <pt x="266" y="129" on="0"/>
        <pt x="301" y="140" on="0"/>
        <pt x="317" y="149" on="0"/>
        <pt x="331" y="158" on="0"/>
        <pt x="336" y="162" on="0"/>
        <pt x="342" y="162" on="0"/>
      </contour>
    </TTGlyph>
    <TTGlyph name="C" xMin="160" yMin="-24" xMax="992" yMax="886">
      <contour>
        <pt x="992" y="798" on="0"/>
        <pt x="951" y="756" on="0"/>
        <pt x="939" y="736" on="0"/>
        <pt x="928" y="736" on="0"/>
        <pt x="928" y="744" on="1"/>
        <pt x="928" y="778" on="0"/>
        <pt x="836" y="842" on="0"/>
        <pt x="784" y="842" on="1"/>
        <pt x="684" y="842" on="0"/>
        <pt x="592" y="788" on="1"/>
        <pt x="451" y="696" on="0"/>
        <pt x="256" y="395" on="0"/>
        <pt x="256" y="228" on="1"/>
        <pt x="256" y="136" on="0"/>
        <pt x="370" y="8" on="0"/>
        <pt x="456" y="8" on="1"/>
        <pt x="600" y="8" on="0"/>
        <pt x="761" y="125" on="0"/>
        <pt x="790" y="216" on="1"/>
        <pt x="797" y="240" on="0"/>
        <pt x="802" y="240" on="1"/>
        <pt x="812" y="240" on="0"/>
        <pt x="834" y="205" on="0"/>
        <pt x="834" y="181" on="0"/>
        <pt x="802" y="131" on="0"/>
        <pt x="732" y="69" on="0"/>
        <pt x="639" y="14" on="0"/>
        <pt x="499" y="-24" on="0"/>
        <pt x="422" y="-24" on="1"/>
        <pt x="309" y="-24" on="0"/>
        <pt x="160" y="123" on="0"/>
        <pt x="160" y="234" on="1"/>
        <pt x="160" y="390" on="0"/>
        <pt x="403" y="711" on="0"/>
        <pt x="578" y="810" on="1"/>
        <pt x="710" y="886" on="0"/>
        <pt x="848" y="886" on="1"/>
        <pt x="927" y="886" on="0"/>
        <pt x="971" y="840" on="1"/>
        <pt x="992" y="818" on="0"/>
      </contour>
    </TTGlyph>
    <TTGlyph name="Cacute" xMin="160" yMin="-24" xMax="1034" yMax="1160">
      <contour>
        <pt x="992" y="798" on="0"/>
        <pt x="951" y="756" on="0"/>
        <pt x="939" y="736" on="0"/>
        <pt x="928" y="736" on="0"/>
        <pt x="928" y="744" on="1"/>
        <pt x="928" y="778" on="0"/>
        <pt x="836" y="842" on="0"/>
        <pt x="784" y="842" on="1"/>
        <pt x="684" y="842" on="0"/>
        <pt x="592" y="788" on="1"/>
        <pt x="451" y="696" on="0"/>
        <pt x="256" y="395" on="0"/>
        <pt x="256" y="228" on="1"/>
        <pt x="256" y="136" on="0"/>
        <pt x="370" y="8" on="0"/>
        <pt x="456" y="8" on="1"/>
        <pt x="600" y="8" on="0"/>
        <pt x="761" y="125" on="0"/>
        <pt x="790" y="216" on="1"/>
        <pt x="797" y="240" on="0"/>
        <pt x="802" y="240" on="1"/>
        <pt x="812" y="240" on="0"/>
        <pt x="834" y="205" on="0"/>
        <pt x="834" y="181" on="0"/>
        <pt x="802" y="131" on="0"/>
        <pt x="732" y="69" on="0"/>
        <pt x="639" y="14" on="0"/>
        <pt x="499" y="-24" on="0"/>
        <pt x="422" y="-24" on="1"/>
        <pt x="309" y="-24" on="0"/>
        <pt x="160" y="123" on="0"/>
        <pt x="160" y="234" on="1"/>
        <pt x="160" y="390" on="0"/>
        <pt x="403" y="711" on="0"/>
        <pt x="578" y="810" on="1"/>
        <pt x="710" y="886" on="0"/>
        <pt x="848" y="886" on="1"/>
        <pt x="927" y="886" on="0"/>
        <pt x="971" y="840" on="1"/>
        <pt x="992" y="818" on="0"/>
      </contour>
      <contour>
        <pt x="776" y="1016" on="1"/>
        <pt x="1014" y="1154" on="1"/>
        <pt x="1023" y="1160" on="0"/>
        <pt x="1030" y="1160" on="1"/>
        <pt x="1034" y="1160" on="0"/>
        <pt x="1034" y="1144" on="0"/>
        <pt x="1021" y="1119" on="0"/>
        <pt x="1014" y="1116" on="1"/>
        <pt x="982" y="1102" on="0"/>
        <pt x="918" y="1072" on="1"/>
        <pt x="766" y="1000" on="0"/>
        <pt x="754" y="1000" on="0"/>
        <pt x="754" y="1003" on="0"/>
      </contour>
    </TTGlyph>
    <TTGlyph name="Ccaron" xMin="160" yMin="-24" xMax="1102" yMax="1195">
      <contour>
        <pt x="992" y="798" on="0"/>
        <pt x="951" y="756" on="0"/>
        <pt x="939" y="736" on="0"/>
        <pt x="928" y="736" on="0"/>
        <pt x="928" y="744" on="1"/>
        <pt x="928" y="778" on="0"/>
        <pt x="836" y="842" on="0"/>
        <pt x="784" y="842" on="1"/>
        <pt x="684" y="842" on="0"/>
        <pt x="592" y="788" on="1"/>
        <pt x="451" y="696" on="0"/>
        <pt x="256" y="395" on="0"/>
        <pt x="256" y="228" on="1"/>
        <pt x="256" y="136" on="0"/>
        <pt x="370" y="8" on="0"/>
        <pt x="456" y="8" on="1"/>
        <pt x="600" y="8" on="0"/>
        <pt x="761" y="125" on="0"/>
        <pt x="790" y="216" on="1"/>
        <pt x="797" y="240" on="0"/>
        <pt x="802" y="240" on="1"/>
        <pt x="812" y="240" on="0"/>
        <pt x="834" y="205" on="0"/>
        <pt x="834" y="181" on="0"/>
        <pt x="802" y="131" on="0"/>
        <pt x="732" y="69" on="0"/>
        <pt x="639" y="14" on="0"/>
        <pt x="499" y="-24" on="0"/>
        <pt x="422" y="-24" on="1"/>
        <pt x="309" y="-24" on="0"/>
        <pt x="160" y="123" on="0"/>
        <pt x="160" y="234" on="1"/>
        <pt x="160" y="390" on="0"/>
        <pt x="403" y="711" on="0"/>
        <pt x="578" y="810" on="1"/>
        <pt x="710" y="886" on="0"/>
        <pt x="848" y="886" on="1"/>
        <pt x="927" y="886" on="0"/>
        <pt x="971" y="840" on="1"/>
        <pt x="992" y="818" on="0"/>
      </contour>
      <contour>
        <pt x="876" y="1044" on="1"/>
        <pt x="855" y="1028" on="0"/>
        <pt x="837" y="1028" on="0"/>
        <pt x="833" y="1040" on="0"/>
        <pt x="782" y="1141" on="0"/>
        <pt x="782" y="1167" on="1"/>
        <pt x="782" y="1169" on="0"/>
        <pt x="806" y="1180" on="0"/>
        <pt x="822" y="1194" on="0"/>
        <pt x="824" y="1194" on="1"/>
        <pt x="826" y="1195" on="1"/>
        <pt x="826" y="1194" on="1"/>
        <pt x="849" y="1137" on="0"/>
        <pt x="878" y="1076" on="1"/>
        <pt x="1070" y="1182" on="1"/>
        <pt x="1088" y="1192" on="0"/>
        <pt x="1100" y="1192" on="1"/>
        <pt x="1102" y="1190" on="1"/>
        <pt x="1102" y="1188" on="0"/>
        <pt x="1082" y="1176" on="1"/>
        <pt x="982" y="1114" on="0"/>
      </contour>
    </TTGlyph>
    <TTGlyph name="Ccedilla" xMin="160" yMin="-290" xMax="992" yMax="886">
      <contour>
        <pt x="992" y="798" on="0"/>
        <pt x="951" y="756" on="0"/>
        <pt x="939" y="736" on="0"/>
        <pt x="928" y="736" on="0"/>
        <pt x="928" y="744" on="1"/>
        <pt x="928" y="778" on="0"/>
        <pt x="836" y="842" on="0"/>
        <pt x="784" y="842" on="1"/>
        <pt x="684" y="842" on="0"/>
        <pt x="592" y="788" on="1"/>
        <pt x="451" y="696" on="0"/>
        <pt x="256" y="395" on="0"/>
        <pt x="256" y="228" on="1"/>
        <pt x="256" y="136" on="0"/>
        <pt x="370" y="8" on="0"/>
        <pt x="456" y="8" on="1"/>
        <pt x="600" y="8" on="0"/>
        <pt x="761" y="125" on="0"/>
        <pt x="790" y="216" on="1"/>
        <pt x="797" y="240" on="0"/>
        <pt x="802" y="240" on="1"/>
        <pt x="812" y="240" on="0"/>
        <pt x="834" y="205" on="0"/>
        <pt x="834" y="181" on="0"/>
        <pt x="802" y="131" on="0"/>
        <pt x="732" y="69" on="0"/>
        <pt x="639" y="14" on="0"/>
        <pt x="499" y="-24" on="0"/>
        <pt x="422" y="-24" on="1"/>
        <pt x="309" y="-24" on="0"/>
        <pt x="160" y="123" on="0"/>
        <pt x="160" y="234" on="1"/>
        <pt x="160" y="390" on="0"/>
        <pt x="403" y="711" on="0"/>
        <pt x="578" y="810" on="1"/>
        <pt x="710" y="886" on="0"/>
        <pt x="848" y="886" on="1"/>
        <pt x="927" y="886" on="0"/>
        <pt x="971" y="840" on="1"/>
        <pt x="992" y="818" on="0"/>
      </contour>
      <contour>
        <pt x="426" y="0" on="1"/>
        <pt x="426" y="-4" on="0"/>
        <pt x="372" y="-94" on="1"/>
        <pt x="434" y="-94" on="0"/>
        <pt x="488" y="-148" on="0"/>
        <pt x="488" y="-223" on="0"/>
        <pt x="420" y="-290" on="0"/>
        <pt x="331" y="-290" on="0"/>
        <pt x="276" y="-246" on="0"/>
        <pt x="276" y="-228" on="1"/>
        <pt x="276" y="-225" on="0"/>
        <pt x="296" y="-216" on="0"/>
        <pt x="302" y="-216" on="1"/>
        <pt x="304" y="-216" on="0"/>
        <pt x="319" y="-248" on="0"/>
        <pt x="352" y="-280" on="0"/>
        <pt x="408" y="-280" on="0"/>
        <pt x="450" y="-236" on="0"/>
        <pt x="450" y="-186" on="0"/>
        <pt x="430" y="-159" on="0"/>
        <pt x="412" y="-154" on="1"/>
        <pt x="383" y="-146" on="0"/>
        <pt x="336" y="-146" on="0"/>
        <pt x="328" y="-154" on="0"/>
        <pt x="314" y="-154" on="0"/>
        <pt x="314" y="-152" on="1"/>
        <pt x="314" y="-148" on="0"/>
        <pt x="328" y="-126" on="1"/>
        <pt x="376" y="-51" on="0"/>
        <pt x="406" y="0" on="1"/>
        <pt x="408" y="2" on="0"/>
        <pt x="426" y="2" on="0"/>
      </contour>
    </TTGlyph>
    <TTGlyph name="Ccircumflex" xMin="160" yMin="-24" xMax="1010" yMax="1166">
      <contour>
        <pt x="992" y="798" on="0"/>
        <pt x="951" y="756" on="0"/>
        <pt x="939" y="736" on="0"/>
        <pt x="928" y="736" on="0"/>
        <pt x="928" y="744" on="1"/>
        <pt x="928" y="778" on="0"/>
        <pt x="836" y="842" on="0"/>
        <pt x="784" y="842" on="1"/>
        <pt x="684" y="842" on="0"/>
        <pt x="592" y="788" on="1"/>
        <pt x="451" y="696" on="0"/>
        <pt x="256" y="395" on="0"/>
        <pt x="256" y="228" on="1"/>
        <pt x="256" y="136" on="0"/>
        <pt x="370" y="8" on="0"/>
        <pt x="456" y="8" on="1"/>
        <pt x="600" y="8" on="0"/>
        <pt x="761" y="125" on="0"/>
        <pt x="790" y="216" on="1"/>
        <pt x="797" y="240" on="0"/>
        <pt x="802" y="240" on="1"/>
        <pt x="812" y="240" on="0"/>
        <pt x="834" y="205" on="0"/>
        <pt x="834" y="181" on="0"/>
        <pt x="802" y="131" on="0"/>
        <pt x="732" y="69" on="0"/>
        <pt x="639" y="14" on="0"/>
        <pt x="499" y="-24" on="0"/>
        <pt x="422" y="-24" on="1"/>
        <pt x="309" y="-24" on="0"/>
        <pt x="160" y="123" on="0"/>
        <pt x="160" y="234" on="1"/>
        <pt x="160" y="390" on="0"/>
        <pt x="403" y="711" on="0"/>
        <pt x="578" y="810" on="1"/>
        <pt x="710" y="886" on="0"/>
        <pt x="848" y="886" on="1"/>
        <pt x="927" y="886" on="0"/>
        <pt x="971" y="840" on="1"/>
        <pt x="992" y="818" on="0"/>
      </contour>
      <contour>
        <pt x="916" y="1150" on="1"/>
        <pt x="937" y="1166" on="0"/>
        <pt x="955" y="1166" on="0"/>
        <pt x="959" y="1154" on="0"/>
        <pt x="1010" y="1053" on="0"/>
        <pt x="1010" y="1027" on="1"/>
        <pt x="1010" y="1025" on="0"/>
        <pt x="986" y="1014" on="0"/>
        <pt x="970" y="1000" on="0"/>
        <pt x="968" y="1000" on="1"/>
        <pt x="966" y="999" on="1"/>
        <pt x="966" y="1000" on="1"/>
        <pt x="943" y="1057" on="0"/>
        <pt x="914" y="1118" on="1"/>
        <pt x="722" y="1012" on="1"/>
        <pt x="704" y="1002" on="0"/>
        <pt x="692" y="1002" on="1"/>
        <pt x="690" y="1004" on="1"/>
        <pt x="690" y="1006" on="0"/>
        <pt x="710" y="1018" on="1"/>
        <pt x="810" y="1080" on="0"/>
      </contour>
    </TTGlyph>
    <TTGlyph name="Cdotaccent" xMin="160" yMin="-24" xMax="992" yMax="1124">
      <contour>
        <pt x="992" y="798" on="0"/>
        <pt x="951" y="756" on="0"/>
        <pt x="939" y="736" on="0"/>
        <pt x="928" y="736" on="0"/>
        <pt x="928" y="744" on="1"/>
        <pt x="928" y="778" on="0"/>
        <pt x="836" y="842" on="0"/>
        <pt x="784" y="842" on="1"/>
        <pt x="684" y="842" on="0"/>
        <pt x="592" y="788" on="1"/>
        <pt x="451" y="696" on="0"/>
        <pt x="256" y="395" on="0"/>
        <pt x="256" y="228" on="1"/>
        <pt x="256" y="136" on="0"/>
        <pt x="370" y="8" on="0"/>
        <pt x="456" y="8" on="1"/>
        <pt x="600" y="8" on="0"/>
        <pt x="761" y="125" on="0"/>
        <pt x="790" y="216" on="1"/>
        <pt x="797" y="240" on="0"/>
        <pt x="802" y="240" on="1"/>
        <pt x="812" y="240" on="0"/>
        <pt x="834" y="205" on="0"/>
        <pt x="834" y="181" on="0"/>
        <pt x="802" y="131" on="0"/>
        <pt x="732" y="69" on="0"/>
        <pt x="639" y="14" on="0"/>
        <pt x="499" y="-24" on="0"/>
        <pt x="422" y="-24" on="1"/>
        <pt x="309" y="-24" on="0"/>
        <pt x="160" y="123" on="0"/>
        <pt x="160" y="234" on="1"/>
        <pt x="160" y="390" on="0"/>
        <pt x="403" y="711" on="0"/>
        <pt x="578" y="810" on="1"/>
        <pt x="710" y="886" on="0"/>
        <pt x="848" y="886" on="1"/>
        <pt x="927" y="886" on="0"/>
        <pt x="971" y="840" on="1"/>
        <pt x="992" y="818" on="0"/>
      </contour>
      <contour>
        <pt x="838" y="1054" on="1"/>
        <pt x="838" y="1076" on="0"/>
        <pt x="858" y="1100" on="1"/>
        <pt x="876" y="1124" on="0"/>
        <pt x="912" y="1124" on="0"/>
        <pt x="930" y="1103" on="0"/>
        <pt x="930" y="1065" on="0"/>
        <pt x="894" y="1018" on="0"/>
        <pt x="870" y="1018" on="1"/>
        <pt x="838" y="1018" on="0"/>
      </contour>
    </TTGlyph>
    <TTGlyph name="Chi" xMin="-20" yMin="-106" xMax="1210" yMax="886">
      <contour>
        <pt x="36" y="72" on="0"/>
        <pt x="48" y="82" on="0"/>
        <pt x="54" y="82" on="0"/>
        <pt x="62" y="70" on="0"/>
        <pt x="68" y="62" on="1"/>
        <pt x="83" y="42" on="0"/>
        <pt x="192" y="42" on="0"/>
        <pt x="220" y="64" on="1"/>
        <pt x="283" y="101" on="0"/>
        <pt x="372" y="193" on="1"/>
        <pt x="459" y="284" on="0"/>
        <pt x="574" y="412" on="1"/>
        <pt x="554" y="640" on="0"/>
        <pt x="541" y="700" on="1"/>
        <pt x="516" y="820" on="0"/>
        <pt x="458" y="832" on="1"/>
        <pt x="450" y="834" on="0"/>
        <pt x="440" y="834" on="1"/>
        <pt x="394" y="834" on="0"/>
        <pt x="342" y="782" on="1"/>
        <pt x="322" y="762" on="0"/>
        <pt x="320" y="762" on="1"/>
        <pt x="314" y="762" on="0"/>
        <pt x="314" y="774" on="0"/>
        <pt x="336" y="796" on="1"/>
        <pt x="420" y="886" on="0"/>
        <pt x="492" y="886" on="1"/>
        <pt x="538" y="886" on="0"/>
        <pt x="572" y="848" on="1"/>
        <pt x="596" y="822" on="0"/>
        <pt x="616" y="743" on="1"/>
        <pt x="633" y="679" on="0"/>
        <pt x="650" y="496" on="1"/>
        <pt x="773" y="631" on="0"/>
        <pt x="927" y="778" on="0"/>
        <pt x="988" y="822" on="1"/>
        <pt x="1090" y="886" on="0"/>
        <pt x="1148" y="886" on="1"/>
        <pt x="1170" y="886" on="0"/>
        <pt x="1186" y="878" on="1"/>
        <pt x="1210" y="867" on="0"/>
        <pt x="1210" y="852" on="1"/>
        <pt x="1210" y="846" on="0"/>
        <pt x="1205" y="840" on="0"/>
        <pt x="1188" y="827" on="0"/>
        <pt x="1177" y="817" on="0"/>
        <pt x="1152" y="792" on="0"/>
        <pt x="1134" y="776" on="0"/>
        <pt x="1126" y="776" on="0"/>
        <pt x="1126" y="782" on="0"/>
        <pt x="1134" y="793" on="0"/>
        <pt x="1134" y="815" on="0"/>
        <pt x="1103" y="838" on="0"/>
        <pt x="1058" y="838" on="0"/>
        <pt x="1027" y="823" on="0"/>
        <pt x="998" y="798" on="1"/>
        <pt x="890" y="710" on="0"/>
        <pt x="654" y="448" on="1"/>
        <pt x="682" y="135" on="0"/>
        <pt x="714" y="54" on="1"/>
        <pt x="757" y="-58" on="0"/>
        <pt x="868" y="-58" on="1"/>
        <pt x="934" y="-58" on="0"/>
        <pt x="966" y="-26" on="1"/>
        <pt x="980" y="-12" on="0"/>
        <pt x="984" y="-12" on="1"/>
        <pt x="992" y="-12" on="0"/>
        <pt x="992" y="-30" on="0"/>
        <pt x="942" y="-70" on="0"/>
        <pt x="848" y="-106" on="0"/>
        <pt x="800" y="-106" on="1"/>
        <pt x="669" y="-106" on="0"/>
        <pt x="626" y="42" on="1"/>
        <pt x="600" y="133" on="0"/>
        <pt x="578" y="362" on="1"/>
        <pt x="371" y="127" on="0"/>
        <pt x="228" y="44" on="1"/>
        <pt x="133" y="-8" on="0"/>
        <pt x="58" y="-8" on="1"/>
        <pt x="22" y="-8" on="0"/>
        <pt x="-9" y="10" on="1"/>
        <pt x="-20" y="16" on="0"/>
        <pt x="-20" y="24" on="0"/>
        <pt x="19" y="53" on="0"/>
      </contour>
    </TTGlyph>
    <TTGlyph name="D" xMin="130" yMin="-20" xMax="1256" yMax="1030">
      <contour>
        <pt x="480" y="186" on="1"/>
        <pt x="427" y="260" on="0"/>
        <pt x="381" y="296" on="0"/>
        <pt x="360" y="296" on="1"/>
        <pt x="301" y="296" on="0"/>
        <pt x="186" y="149" on="0"/>
        <pt x="186" y="90" on="1"/>
        <pt x="186" y="26" on="0"/>
        <pt x="266" y="26" on="1"/>
        <pt x="308" y="26" on="0"/>
        <pt x="425" y="105" on="0"/>
      </contour>
      <contour>
        <pt x="558" y="240" on="1"/>
        <pt x="568" y="222" on="0"/>
        <pt x="604" y="144" on="0"/>
        <pt x="632" y="93" on="0"/>
        <pt x="654" y="64" on="1"/>
        <pt x="699" y="6" on="0"/>
        <pt x="864" y="6" on="0"/>
        <pt x="1014" y="100" on="0"/>
        <pt x="1113" y="249" on="0"/>
        <pt x="1170" y="429" on="0"/>
        <pt x="1170" y="516" on="1"/>
        <pt x="1170" y="800" on="0"/>
        <pt x="904" y="854" on="1"/>
        <pt x="821" y="689" on="0"/>
        <pt x="618" y="324" on="0"/>
      </contour>
      <contour>
        <pt x="392" y="614" on="1"/>
        <pt x="392" y="602" on="0"/>
        <pt x="398" y="586" on="1"/>
        <pt x="398" y="582" on="0"/>
        <pt x="384" y="582" on="0"/>
        <pt x="360" y="606" on="0"/>
        <pt x="352" y="612" on="1"/>
        <pt x="336" y="624" on="0"/>
        <pt x="336" y="636" on="1"/>
        <pt x="336" y="705" on="0"/>
        <pt x="473" y="823" on="0"/>
        <pt x="669" y="886" on="0"/>
        <pt x="766" y="886" on="1"/>
        <pt x="810" y="886" on="0"/>
        <pt x="830" y="884" on="1"/>
        <pt x="840" y="907" on="0"/>
        <pt x="840" y="928" on="1"/>
        <pt x="840" y="970" on="0"/>
        <pt x="793" y="1006" on="0"/>
        <pt x="710" y="1006" on="0"/>
        <pt x="647" y="980" on="0"/>
        <pt x="608" y="954" on="0"/>
        <pt x="606" y="954" on="1"/>
        <pt x="600" y="954" on="0"/>
        <pt x="600" y="960" on="1"/>
        <pt x="600" y="964" on="0"/>
        <pt x="644" y="996" on="0"/>
        <pt x="730" y="1030" on="0"/>
        <pt x="807" y="1030" on="0"/>
        <pt x="867" y="1015" on="0"/>
        <pt x="920" y="966" on="0"/>
        <pt x="920" y="926" on="1"/>
        <pt x="920" y="904" on="0"/>
        <pt x="910" y="874" on="1"/>
        <pt x="1256" y="817" on="0"/>
        <pt x="1256" y="468" on="1"/>
        <pt x="1256" y="374" on="0"/>
        <pt x="1180" y="194" on="0"/>
        <pt x="1052" y="61" on="0"/>
        <pt x="875" y="-20" on="0"/>
        <pt x="780" y="-20" on="1"/>
        <pt x="710" y="-20" on="0"/>
        <pt x="648" y="8" on="1"/>
        <pt x="626" y="18" on="0"/>
        <pt x="571" y="71" on="0"/>
        <pt x="542" y="105" on="0"/>
        <pt x="503" y="156" on="0"/>
        <pt x="498" y="162" on="1"/>
        <pt x="445" y="102" on="0"/>
        <pt x="361" y="31" on="0"/>
        <pt x="260" y="-16" on="0"/>
        <pt x="186" y="-16" on="0"/>
        <pt x="130" y="20" on="0"/>
        <pt x="130" y="96" on="0"/>
        <pt x="192" y="201" on="0"/>
        <pt x="280" y="290" on="0"/>
        <pt x="387" y="352" on="0"/>
        <pt x="428" y="352" on="1"/>
        <pt x="480" y="352" on="0"/>
        <pt x="534" y="276" on="1"/>
        <pt x="624" y="435" on="0"/>
        <pt x="782" y="764" on="0"/>
        <pt x="822" y="866" on="1"/>
        <pt x="802" y="868" on="0"/>
        <pt x="760" y="868" on="1"/>
        <pt x="678" y="868" on="0"/>
        <pt x="506" y="795" on="0"/>
        <pt x="392" y="675" on="0"/>
      </contour>
    </TTGlyph>
    <TTGlyph name="Dcaron" xMin="130" yMin="-20" xMax="1256" yMax="1255">
      <contour>
        <pt x="480" y="186" on="1"/>
        <pt x="427" y="260" on="0"/>
        <pt x="381" y="296" on="0"/>
        <pt x="360" y="296" on="1"/>
        <pt x="301" y="296" on="0"/>
        <pt x="186" y="149" on="0"/>
        <pt x="186" y="90" on="1"/>
        <pt x="186" y="26" on="0"/>
        <pt x="266" y="26" on="1"/>
        <pt x="308" y="26" on="0"/>
        <pt x="425" y="105" on="0"/>
      </contour>
      <contour>
        <pt x="558" y="240" on="1"/>
        <pt x="568" y="222" on="0"/>
        <pt x="604" y="144" on="0"/>
        <pt x="632" y="93" on="0"/>
        <pt x="654" y="64" on="1"/>
        <pt x="699" y="6" on="0"/>
        <pt x="864" y="6" on="0"/>
        <pt x="1014" y="100" on="0"/>
        <pt x="1113" y="249" on="0"/>
        <pt x="1170" y="429" on="0"/>
        <pt x="1170" y="516" on="1"/>
        <pt x="1170" y="800" on="0"/>
        <pt x="904" y="854" on="1"/>
        <pt x="821" y="689" on="0"/>
        <pt x="618" y="324" on="0"/>
      </contour>
      <contour>
        <pt x="392" y="614" on="1"/>
        <pt x="392" y="602" on="0"/>
        <pt x="398" y="586" on="1"/>
        <pt x="398" y="582" on="0"/>
        <pt x="384" y="582" on="0"/>
        <pt x="360" y="606" on="0"/>
        <pt x="352" y="612" on="1"/>
        <pt x="336" y="624" on="0"/>
        <pt x="336" y="636" on="1"/>
        <pt x="336" y="705" on="0"/>
        <pt x="473" y="823" on="0"/>
        <pt x="669" y="886" on="0"/>
        <pt x="766" y="886" on="1"/>
        <pt x="810" y="886" on="0"/>
        <pt x="830" y="884" on="1"/>
        <pt x="840" y="907" on="0"/>
        <pt x="840" y="928" on="1"/>
        <pt x="840" y="970" on="0"/>
        <pt x="793" y="1006" on="0"/>
        <pt x="710" y="1006" on="0"/>
        <pt x="647" y="980" on="0"/>
        <pt x="608" y="954" on="0"/>
        <pt x="606" y="954" on="1"/>
        <pt x="600" y="954" on="0"/>
        <pt x="600" y="960" on="1"/>
        <pt x="600" y="964" on="0"/>
        <pt x="644" y="996" on="0"/>
        <pt x="730" y="1030" on="0"/>
        <pt x="807" y="1030" on="0"/>
        <pt x="867" y="1015" on="0"/>
        <pt x="920" y="966" on="0"/>
        <pt x="920" y="926" on="1"/>
        <pt x="920" y="904" on="0"/>
        <pt x="910" y="874" on="1"/>
        <pt x="1256" y="817" on="0"/>
        <pt x="1256" y="468" on="1"/>
        <pt x="1256" y="374" on="0"/>
        <pt x="1180" y="194" on="0"/>
        <pt x="1052" y="61" on="0"/>
        <pt x="875" y="-20" on="0"/>
        <pt x="780" y="-20" on="1"/>
        <pt x="710" y="-20" on="0"/>
        <pt x="648" y="8" on="1"/>
        <pt x="626" y="18" on="0"/>
        <pt x="571" y="71" on="0"/>
        <pt x="542" y="105" on="0"/>
        <pt x="503" y="156" on="0"/>
        <pt x="498" y="162" on="1"/>
        <pt x="445" y="102" on="0"/>
        <pt x="361" y="31" on="0"/>
        <pt x="260" y="-16" on="0"/>
        <pt x="186" y="-16" on="0"/>
        <pt x="130" y="20" on="0"/>
        <pt x="130" y="96" on="0"/>
        <pt x="192" y="201" on="0"/>
        <pt x="280" y="290" on="0"/>
        <pt x="387" y="352" on="0"/>
        <pt x="428" y="352" on="1"/>
        <pt x="480" y="352" on="0"/>
        <pt x="534" y="276" on="1"/>
        <pt x="624" y="435" on="0"/>
        <pt x="782" y="764" on="0"/>
        <pt x="822" y="866" on="1"/>
        <pt x="802" y="868" on="0"/>
        <pt x="760" y="868" on="1"/>
        <pt x="678" y="868" on="0"/>
        <pt x="506" y="795" on="0"/>
        <pt x="392" y="675" on="0"/>
      </contour>
      <contour>
        <pt x="942" y="1104" on="1"/>
        <pt x="921" y="1088" on="0"/>
        <pt x="903" y="1088" on="0"/>
        <pt x="899" y="1100" on="0"/>
        <pt x="848" y="1201" on="0"/>
        <pt x="848" y="1227" on="1"/>
        <pt x="848" y="1229" on="0"/>
        <pt x="872" y="1240" on="0"/>
        <pt x="888" y="1254" on="0"/>
        <pt x="890" y="1254" on="1"/>
        <pt x="892" y="1255" on="1"/>
        <pt x="892" y="1254" on="1"/>
        <pt x="915" y="1197" on="0"/>
        <pt x="944" y="1136" on="1"/>
        <pt x="1136" y="1242" on="1"/>
        <pt x="1154" y="1252" on="0"/>
        <pt x="1166" y="1252" on="1"/>
        <pt x="1168" y="1250" on="1"/>
        <pt x="1168" y="1248" on="0"/>
        <pt x="1148" y="1236" on="1"/>
        <pt x="1048" y="1174" on="0"/>
      </contour>
    </TTGlyph>
    <TTGlyph name="Dcroat" xMin="130" yMin="-20" xMax="1256" yMax="1030">
      <contour>
        <pt x="480" y="186" on="1"/>
        <pt x="427" y="260" on="0"/>
        <pt x="381" y="296" on="0"/>
        <pt x="360" y="296" on="1"/>
        <pt x="301" y="296" on="0"/>
        <pt x="186" y="149" on="0"/>
        <pt x="186" y="90" on="1"/>
        <pt x="186" y="26" on="0"/>
        <pt x="266" y="26" on="1"/>
        <pt x="308" y="26" on="0"/>
        <pt x="425" y="105" on="0"/>
      </contour>
      <contour>
        <pt x="558" y="240" on="1"/>
        <pt x="568" y="222" on="0"/>
        <pt x="604" y="144" on="0"/>
        <pt x="632" y="93" on="0"/>
        <pt x="654" y="64" on="1"/>
        <pt x="699" y="6" on="0"/>
        <pt x="864" y="6" on="0"/>
        <pt x="1014" y="100" on="0"/>
        <pt x="1113" y="249" on="0"/>
        <pt x="1170" y="429" on="0"/>
        <pt x="1170" y="516" on="1"/>
        <pt x="1170" y="800" on="0"/>
        <pt x="904" y="854" on="1"/>
        <pt x="821" y="689" on="0"/>
        <pt x="618" y="324" on="0"/>
      </contour>
      <contour>
        <pt x="392" y="614" on="1"/>
        <pt x="392" y="602" on="0"/>
        <pt x="398" y="586" on="1"/>
        <pt x="398" y="582" on="0"/>
        <pt x="384" y="582" on="0"/>
        <pt x="360" y="606" on="0"/>
        <pt x="352" y="612" on="1"/>
        <pt x="336" y="624" on="0"/>
        <pt x="336" y="636" on="1"/>
        <pt x="336" y="705" on="0"/>
        <pt x="473" y="823" on="0"/>
        <pt x="669" y="886" on="0"/>
        <pt x="766" y="886" on="1"/>
        <pt x="810" y="886" on="0"/>
        <pt x="830" y="884" on="1"/>
        <pt x="840" y="907" on="0"/>
        <pt x="840" y="928" on="1"/>
        <pt x="840" y="970" on="0"/>
        <pt x="793" y="1006" on="0"/>
        <pt x="710" y="1006" on="0"/>
        <pt x="647" y="980" on="0"/>
        <pt x="608" y="954" on="0"/>
        <pt x="606" y="954" on="1"/>
        <pt x="600" y="954" on="0"/>
        <pt x="600" y="960" on="1"/>
        <pt x="600" y="964" on="0"/>
        <pt x="644" y="996" on="0"/>
        <pt x="730" y="1030" on="0"/>
        <pt x="807" y="1030" on="0"/>
        <pt x="867" y="1015" on="0"/>
        <pt x="920" y="966" on="0"/>
        <pt x="920" y="926" on="1"/>
        <pt x="920" y="904" on="0"/>
        <pt x="910" y="874" on="1"/>
        <pt x="1256" y="817" on="0"/>
        <pt x="1256" y="468" on="1"/>
        <pt x="1256" y="374" on="0"/>
        <pt x="1180" y="194" on="0"/>
        <pt x="1052" y="61" on="0"/>
        <pt x="875" y="-20" on="0"/>
        <pt x="780" y="-20" on="1"/>
        <pt x="710" y="-20" on="0"/>
        <pt x="648" y="8" on="1"/>
        <pt x="626" y="18" on="0"/>
        <pt x="571" y="71" on="0"/>
        <pt x="542" y="105" on="0"/>
        <pt x="503" y="156" on="0"/>
        <pt x="498" y="162" on="1"/>
        <pt x="445" y="102" on="0"/>
        <pt x="361" y="31" on="0"/>
        <pt x="260" y="-16" on="0"/>
        <pt x="186" y="-16" on="0"/>
        <pt x="130" y="20" on="0"/>
        <pt x="130" y="96" on="0"/>
        <pt x="192" y="201" on="0"/>
        <pt x="280" y="290" on="0"/>
        <pt x="387" y="352" on="0"/>
        <pt x="428" y="352" on="1"/>
        <pt x="480" y="352" on="0"/>
        <pt x="534" y="276" on="1"/>
        <pt x="624" y="435" on="0"/>
        <pt x="782" y="764" on="0"/>
        <pt x="822" y="866" on="1"/>
        <pt x="802" y="868" on="0"/>
        <pt x="760" y="868" on="1"/>
        <pt x="678" y="868" on="0"/>
        <pt x="506" y="795" on="0"/>
        <pt x="392" y="675" on="0"/>
      </contour>
      <contour>
        <pt x="916" y="500" on="1"/>
        <pt x="920" y="500" on="0"/>
        <pt x="920" y="490" on="0"/>
        <pt x="884" y="470" on="1"/>
        <pt x="855" y="452" on="0"/>
        <pt x="848" y="452" on="1"/>
        <pt x="800" y="451" on="0"/>
        <pt x="544" y="449" on="0"/>
        <pt x="448" y="444" on="1"/>
        <pt x="444" y="444" on="0"/>
        <pt x="444" y="446" on="1"/>
        <pt x="444" y="452" on="0"/>
        <pt x="508" y="492" on="0"/>
        <pt x="520" y="492" on="1"/>
        <pt x="696" y="500" on="0"/>
      </contour>
    </TTGlyph>
    <TTGlyph name="Delta" xMin="22" yMin="0" xMax="936" yMax="896">
      <contour>
        <pt x="46" y="0" on="1"/>
        <pt x="22" y="0" on="0"/>
        <pt x="22" y="18" on="1"/>
        <pt x="22" y="43" on="0"/>
        <pt x="154" y="180" on="0"/>
        <pt x="550" y="570" on="0"/>
        <pt x="749" y="780" on="0"/>
        <pt x="776" y="808" on="0"/>
        <pt x="785" y="817" on="0"/>
        <pt x="803" y="836" on="0"/>
        <pt x="810" y="842" on="0"/>
        <pt x="824" y="855" on="0"/>
        <pt x="831" y="859" on="0"/>
        <pt x="843" y="868" on="0"/>
        <pt x="854" y="872" on="0"/>
        <pt x="867" y="879" on="0"/>
        <pt x="918" y="896" on="0"/>
        <pt x="922" y="896" on="1"/>
        <pt x="930" y="896" on="0"/>
        <pt x="930" y="888" on="1"/>
        <pt x="930" y="878" on="0"/>
        <pt x="928" y="844" on="1"/>
        <pt x="924" y="740" on="0"/>
        <pt x="924" y="407" on="0"/>
        <pt x="925" y="329" on="0"/>
        <pt x="927" y="264" on="0"/>
        <pt x="930" y="202" on="0"/>
        <pt x="932" y="178" on="1"/>
        <pt x="936" y="136" on="0"/>
        <pt x="936" y="110" on="1"/>
        <pt x="936" y="100" on="1"/>
        <pt x="936" y="43" on="0"/>
        <pt x="872" y="0" on="0"/>
        <pt x="810" y="0" on="1"/>
      </contour>
      <contour>
        <pt x="846" y="98" on="1"/>
        <pt x="846" y="219" on="0"/>
        <pt x="824" y="776" on="0"/>
        <pt x="824" y="794" on="1"/>
        <pt x="824" y="800" on="0"/>
        <pt x="814" y="800" on="0"/>
        <pt x="792" y="778" on="1"/>
        <pt x="775" y="759" on="0"/>
        <pt x="601" y="571" on="1"/>
        <pt x="114" y="45" on="0"/>
        <pt x="114" y="40" on="1"/>
        <pt x="114" y="32" on="0"/>
        <pt x="126" y="32" on="1"/>
        <pt x="692" y="32" on="0"/>
        <pt x="799" y="62" on="1"/>
        <pt x="836" y="72" on="0"/>
        <pt x="846" y="86" on="0"/>
      </contour>
    </TTGlyph>
    <TTGlyph name="E" xMin="158" yMin="-24" xMax="994" yMax="886">
      <contour>
        <pt x="778" y="250" on="1"/>
        <pt x="774" y="276" on="1"/>
        <pt x="774" y="282" on="0"/>
        <pt x="778" y="282" on="1"/>
        <pt x="802" y="266" on="1"/>
        <pt x="804" y="265" on="0"/>
        <pt x="809" y="260" on="0"/>
        <pt x="812" y="258" on="0"/>
        <pt x="814" y="256" on="1"/>
        <pt x="815" y="256" on="0"/>
        <pt x="816" y="254" on="1"/>
        <pt x="818" y="251" on="0"/>
        <pt x="818" y="244" on="1"/>
        <pt x="818" y="214" on="0"/>
        <pt x="765" y="127" on="0"/>
        <pt x="672" y="38" on="0"/>
        <pt x="518" y="-24" on="0"/>
        <pt x="330" y="-24" on="0"/>
        <pt x="158" y="96" on="0"/>
        <pt x="158" y="190" on="1"/>
        <pt x="158" y="258" on="0"/>
        <pt x="217" y="374" on="0"/>
        <pt x="305" y="445" on="0"/>
        <pt x="409" y="502" on="0"/>
        <pt x="453" y="516" on="1"/>
        <pt x="556" y="550" on="0"/>
        <pt x="556" y="554" on="1"/>
        <pt x="556" y="562" on="0"/>
        <pt x="544" y="570" on="1"/>
        <pt x="484" y="611" on="0"/>
        <pt x="484" y="754" on="0"/>
        <pt x="645" y="886" on="0"/>
        <pt x="782" y="886" on="1"/>
        <pt x="831" y="886" on="0"/>
        <pt x="886" y="874" on="1"/>
        <pt x="994" y="849" on="0"/>
        <pt x="994" y="806" on="1"/>
        <pt x="994" y="794" on="0"/>
        <pt x="972" y="759" on="0"/>
        <pt x="958" y="730" on="0"/>
        <pt x="950" y="730" on="0"/>
        <pt x="946" y="742" on="1"/>
        <pt x="934" y="783" on="0"/>
        <pt x="835" y="862" on="0"/>
        <pt x="696" y="862" on="0"/>
        <pt x="652" y="848" on="1"/>
        <pt x="607" y="836" on="0"/>
        <pt x="587" y="814" on="1"/>
        <pt x="552" y="776" on="0"/>
        <pt x="552" y="699" on="0"/>
        <pt x="595" y="619" on="0"/>
        <pt x="628" y="600" on="1"/>
        <pt x="668" y="581" on="0"/>
        <pt x="668" y="576" on="1"/>
        <pt x="668" y="559" on="0"/>
        <pt x="652" y="539" on="0"/>
        <pt x="626" y="536" on="1"/>
        <pt x="538" y="526" on="0"/>
        <pt x="404" y="474" on="0"/>
        <pt x="325" y="409" on="0"/>
        <pt x="300" y="367" on="1"/>
        <pt x="258" y="296" on="0"/>
        <pt x="258" y="204" on="1"/>
        <pt x="258" y="154" on="0"/>
        <pt x="300" y="78" on="0"/>
        <pt x="334" y="58" on="1"/>
        <pt x="428" y="21" on="0"/>
        <pt x="474" y="18" on="1"/>
        <pt x="613" y="18" on="0"/>
        <pt x="778" y="160" on="0"/>
      </contour>
    </TTGlyph>
    <TTGlyph name="Eacute" xMin="158" yMin="-24" xMax="994" yMax="1160">
      <contour>
        <pt x="778" y="250" on="1"/>
        <pt x="774" y="276" on="1"/>
        <pt x="774" y="282" on="0"/>
        <pt x="778" y="282" on="1"/>
        <pt x="802" y="266" on="1"/>
        <pt x="804" y="265" on="0"/>
        <pt x="809" y="260" on="0"/>
        <pt x="812" y="258" on="0"/>
        <pt x="814" y="256" on="1"/>
        <pt x="815" y="256" on="0"/>
        <pt x="816" y="254" on="1"/>
        <pt x="818" y="251" on="0"/>
        <pt x="818" y="244" on="1"/>
        <pt x="818" y="214" on="0"/>
        <pt x="765" y="127" on="0"/>
        <pt x="672" y="38" on="0"/>
        <pt x="518" y="-24" on="0"/>
        <pt x="330" y="-24" on="0"/>
        <pt x="158" y="96" on="0"/>
        <pt x="158" y="190" on="1"/>
        <pt x="158" y="258" on="0"/>
        <pt x="217" y="374" on="0"/>
        <pt x="305" y="445" on="0"/>
        <pt x="409" y="502" on="0"/>
        <pt x="453" y="516" on="1"/>
        <pt x="556" y="550" on="0"/>
        <pt x="556" y="554" on="1"/>
        <pt x="556" y="562" on="0"/>
        <pt x="544" y="570" on="1"/>
        <pt x="484" y="611" on="0"/>
        <pt x="484" y="754" on="0"/>
        <pt x="645" y="886" on="0"/>
        <pt x="782" y="886" on="1"/>
        <pt x="831" y="886" on="0"/>
        <pt x="886" y="874" on="1"/>
        <pt x="994" y="849" on="0"/>
        <pt x="994" y="806" on="1"/>
        <pt x="994" y="794" on="0"/>
        <pt x="972" y="759" on="0"/>
        <pt x="958" y="730" on="0"/>
        <pt x="950" y="730" on="0"/>
        <pt x="946" y="742" on="1"/>
        <pt x="934" y="783" on="0"/>
        <pt x="835" y="862" on="0"/>
        <pt x="696" y="862" on="0"/>
        <pt x="652" y="848" on="1"/>
        <pt x="607" y="836" on="0"/>
        <pt x="587" y="814" on="1"/>
        <pt x="552" y="776" on="0"/>
        <pt x="552" y="699" on="0"/>
        <pt x="595" y="619" on="0"/>
        <pt x="628" y="600" on="1"/>
        <pt x="668" y="581" on="0"/>
        <pt x="668" y="576" on="1"/>
        <pt x="668" y="559" on="0"/>
        <pt x="652" y="539" on="0"/>
        <pt x="626" y="536" on="1"/>
        <pt x="538" y="526" on="0"/>
        <pt x="404" y="474" on="0"/>
        <pt x="325" y="409" on="0"/>
        <pt x="300" y="367" on="1"/>
        <pt x="258" y="296" on="0"/>
        <pt x="258" y="204" on="1"/>
        <pt x="258" y="154" on="0"/>
        <pt x="300" y="78" on="0"/>
        <pt x="334" y="58" on="1"/>
        <pt x="428" y="21" on="0"/>
        <pt x="474" y="18" on="1"/>
        <pt x="613" y="18" on="0"/>
        <pt x="778" y="160" on="0"/>
      </contour>
      <contour>
        <pt x="724" y="1016" on="1"/>
        <pt x="962" y="1154" on="1"/>
        <pt x="971" y="1160" on="0"/>
        <pt x="978" y="1160" on="1"/>
        <pt x="982" y="1160" on="0"/>
        <pt x="982" y="1144" on="0"/>
        <pt x="969" y="1119" on="0"/>
        <pt x="962" y="1116" on="1"/>
        <pt x="930" y="1102" on="0"/>
        <pt x="866" y="1072" on="1"/>
        <pt x="714" y="1000" on="0"/>
        <pt x="702" y="1000" on="0"/>
        <pt x="702" y="1003" on="0"/>
      </contour>
    </TTGlyph>
    <TTGlyph name="Ebreve" xMin="158" yMin="-24" xMax="1100" yMax="1176">
      <contour>
        <pt x="778" y="250" on="1"/>
        <pt x="774" y="276" on="1"/>
        <pt x="774" y="282" on="0"/>
        <pt x="778" y="282" on="1"/>
        <pt x="802" y="266" on="1"/>
        <pt x="804" y="265" on="0"/>
        <pt x="809" y="260" on="0"/>
        <pt x="812" y="258" on="0"/>
        <pt x="814" y="256" on="1"/>
        <pt x="815" y="256" on="0"/>
        <pt x="816" y="254" on="1"/>
        <pt x="818" y="251" on="0"/>
        <pt x="818" y="244" on="1"/>
        <pt x="818" y="214" on="0"/>
        <pt x="765" y="127" on="0"/>
        <pt x="672" y="38" on="0"/>
        <pt x="518" y="-24" on="0"/>
        <pt x="330" y="-24" on="0"/>
        <pt x="158" y="96" on="0"/>
        <pt x="158" y="190" on="1"/>
        <pt x="158" y="258" on="0"/>
        <pt x="217" y="374" on="0"/>
        <pt x="305" y="445" on="0"/>
        <pt x="409" y="502" on="0"/>
        <pt x="453" y="516" on="1"/>
        <pt x="556" y="550" on="0"/>
        <pt x="556" y="554" on="1"/>
        <pt x="556" y="562" on="0"/>
        <pt x="544" y="570" on="1"/>
        <pt x="484" y="611" on="0"/>
        <pt x="484" y="754" on="0"/>
        <pt x="645" y="886" on="0"/>
        <pt x="782" y="886" on="1"/>
        <pt x="831" y="886" on="0"/>
        <pt x="886" y="874" on="1"/>
        <pt x="994" y="849" on="0"/>
        <pt x="994" y="806" on="1"/>
        <pt x="994" y="794" on="0"/>
        <pt x="972" y="759" on="0"/>
        <pt x="958" y="730" on="0"/>
        <pt x="950" y="730" on="0"/>
        <pt x="946" y="742" on="1"/>
        <pt x="934" y="783" on="0"/>
        <pt x="835" y="862" on="0"/>
        <pt x="696" y="862" on="0"/>
        <pt x="652" y="848" on="1"/>
        <pt x="607" y="836" on="0"/>
        <pt x="587" y="814" on="1"/>
        <pt x="552" y="776" on="0"/>
        <pt x="552" y="699" on="0"/>
        <pt x="595" y="619" on="0"/>
        <pt x="628" y="600" on="1"/>
        <pt x="668" y="581" on="0"/>
        <pt x="668" y="576" on="1"/>
        <pt x="668" y="559" on="0"/>
        <pt x="652" y="539" on="0"/>
        <pt x="626" y="536" on="1"/>
        <pt x="538" y="526" on="0"/>
        <pt x="404" y="474" on="0"/>
        <pt x="325" y="409" on="0"/>
        <pt x="300" y="367" on="1"/>
        <pt x="258" y="296" on="0"/>
        <pt x="258" y="204" on="1"/>
        <pt x="258" y="154" on="0"/>
        <pt x="300" y="78" on="0"/>
        <pt x="334" y="58" on="1"/>
        <pt x="428" y="21" on="0"/>
        <pt x="474" y="18" on="1"/>
        <pt x="613" y="18" on="0"/>
        <pt x="778" y="160" on="0"/>
      </contour>
      <contour>
        <pt x="838" y="1174" on="1"/>
        <pt x="828" y="1148" on="0"/>
        <pt x="828" y="1097" on="0"/>
        <pt x="873" y="1060" on="0"/>
        <pt x="906" y="1060" on="1"/>
        <pt x="990" y="1060" on="0"/>
        <pt x="1050" y="1148" on="1"/>
        <pt x="1055" y="1153" on="0"/>
        <pt x="1089" y="1174" on="0"/>
        <pt x="1098" y="1174" on="1"/>
        <pt x="1100" y="1174" on="1"/>
        <pt x="1100" y="1166" on="0"/>
        <pt x="1032" y="1099" on="0"/>
        <pt x="913" y="1032" on="0"/>
        <pt x="816" y="1032" on="0"/>
        <pt x="780" y="1075" on="0"/>
        <pt x="780" y="1123" on="0"/>
        <pt x="790" y="1150" on="1"/>
        <pt x="793" y="1157" on="0"/>
        <pt x="827" y="1176" on="0"/>
        <pt x="836" y="1176" on="1"/>
      </contour>
    </TTGlyph>
    <TTGlyph name="Ecaron" xMin="158" yMin="-24" xMax="1096" yMax="1195">
      <contour>
        <pt x="778" y="250" on="1"/>
        <pt x="774" y="276" on="1"/>
        <pt x="774" y="282" on="0"/>
        <pt x="778" y="282" on="1"/>
        <pt x="802" y="266" on="1"/>
        <pt x="804" y="265" on="0"/>
        <pt x="809" y="260" on="0"/>
        <pt x="812" y="258" on="0"/>
        <pt x="814" y="256" on="1"/>
        <pt x="815" y="256" on="0"/>
        <pt x="816" y="254" on="1"/>
        <pt x="818" y="251" on="0"/>
        <pt x="818" y="244" on="1"/>
        <pt x="818" y="214" on="0"/>
        <pt x="765" y="127" on="0"/>
        <pt x="672" y="38" on="0"/>
        <pt x="518" y="-24" on="0"/>
        <pt x="330" y="-24" on="0"/>
        <pt x="158" y="96" on="0"/>
        <pt x="158" y="190" on="1"/>
        <pt x="158" y="258" on="0"/>
        <pt x="217" y="374" on="0"/>
        <pt x="305" y="445" on="0"/>
        <pt x="409" y="502" on="0"/>
        <pt x="453" y="516" on="1"/>
        <pt x="556" y="550" on="0"/>
        <pt x="556" y="554" on="1"/>
        <pt x="556" y="562" on="0"/>
        <pt x="544" y="570" on="1"/>
        <pt x="484" y="611" on="0"/>
        <pt x="484" y="754" on="0"/>
        <pt x="645" y="886" on="0"/>
        <pt x="782" y="886" on="1"/>
        <pt x="831" y="886" on="0"/>
        <pt x="886" y="874" on="1"/>
        <pt x="994" y="849" on="0"/>
        <pt x="994" y="806" on="1"/>
        <pt x="994" y="794" on="0"/>
        <pt x="972" y="759" on="0"/>
        <pt x="958" y="730" on="0"/>
        <pt x="950" y="730" on="0"/>
        <pt x="946" y="742" on="1"/>
        <pt x="934" y="783" on="0"/>
        <pt x="835" y="862" on="0"/>
        <pt x="696" y="862" on="0"/>
        <pt x="652" y="848" on="1"/>
        <pt x="607" y="836" on="0"/>
        <pt x="587" y="814" on="1"/>
        <pt x="552" y="776" on="0"/>
        <pt x="552" y="699" on="0"/>
        <pt x="595" y="619" on="0"/>
        <pt x="628" y="600" on="1"/>
        <pt x="668" y="581" on="0"/>
        <pt x="668" y="576" on="1"/>
        <pt x="668" y="559" on="0"/>
        <pt x="652" y="539" on="0"/>
        <pt x="626" y="536" on="1"/>
        <pt x="538" y="526" on="0"/>
        <pt x="404" y="474" on="0"/>
        <pt x="325" y="409" on="0"/>
        <pt x="300" y="367" on="1"/>
        <pt x="258" y="296" on="0"/>
        <pt x="258" y="204" on="1"/>
        <pt x="258" y="154" on="0"/>
        <pt x="300" y="78" on="0"/>
        <pt x="334" y="58" on="1"/>
        <pt x="428" y="21" on="0"/>
        <pt x="474" y="18" on="1"/>
        <pt x="613" y="18" on="0"/>
        <pt x="778" y="160" on="0"/>
      </contour>
      <contour>
        <pt x="870" y="1044" on="1"/>
        <pt x="849" y="1028" on="0"/>
        <pt x="831" y="1028" on="0"/>
        <pt x="827" y="1040" on="0"/>
        <pt x="776" y="1141" on="0"/>
        <pt x="776" y="1167" on="1"/>
        <pt x="776" y="1169" on="0"/>
        <pt x="800" y="1180" on="0"/>
        <pt x="816" y="1194" on="0"/>
        <pt x="818" y="1194" on="1"/>
        <pt x="820" y="1195" on="1"/>
        <pt x="820" y="1194" on="1"/>
        <pt x="843" y="1137" on="0"/>
        <pt x="872" y="1076" on="1"/>
        <pt x="1064" y="1182" on="1"/>
        <pt x="1082" y="1192" on="0"/>
        <pt x="1094" y="1192" on="1"/>
        <pt x="1096" y="1190" on="1"/>
        <pt x="1096" y="1188" on="0"/>
        <pt x="1076" y="1176" on="1"/>
        <pt x="976" y="1114" on="0"/>
      </contour>
    </TTGlyph>
    <TTGlyph name="Ecircumflex" xMin="158" yMin="-24" xMax="1004" yMax="1166">
      <contour>
        <pt x="778" y="250" on="1"/>
        <pt x="774" y="276" on="1"/>
        <pt x="774" y="282" on="0"/>
        <pt x="778" y="282" on="1"/>
        <pt x="802" y="266" on="1"/>
        <pt x="804" y="265" on="0"/>
        <pt x="809" y="260" on="0"/>
        <pt x="812" y="258" on="0"/>
        <pt x="814" y="256" on="1"/>
        <pt x="815" y="256" on="0"/>
        <pt x="816" y="254" on="1"/>
        <pt x="818" y="251" on="0"/>
        <pt x="818" y="244" on="1"/>
        <pt x="818" y="214" on="0"/>
        <pt x="765" y="127" on="0"/>
        <pt x="672" y="38" on="0"/>
        <pt x="518" y="-24" on="0"/>
        <pt x="330" y="-24" on="0"/>
        <pt x="158" y="96" on="0"/>
        <pt x="158" y="190" on="1"/>
        <pt x="158" y="258" on="0"/>
        <pt x="217" y="374" on="0"/>
        <pt x="305" y="445" on="0"/>
        <pt x="409" y="502" on="0"/>
        <pt x="453" y="516" on="1"/>
        <pt x="556" y="550" on="0"/>
        <pt x="556" y="554" on="1"/>
        <pt x="556" y="562" on="0"/>
        <pt x="544" y="570" on="1"/>
        <pt x="484" y="611" on="0"/>
        <pt x="484" y="754" on="0"/>
        <pt x="645" y="886" on="0"/>
        <pt x="782" y="886" on="1"/>
        <pt x="831" y="886" on="0"/>
        <pt x="886" y="874" on="1"/>
        <pt x="994" y="849" on="0"/>
        <pt x="994" y="806" on="1"/>
        <pt x="994" y="794" on="0"/>
        <pt x="972" y="759" on="0"/>
        <pt x="958" y="730" on="0"/>
        <pt x="950" y="730" on="0"/>
        <pt x="946" y="742" on="1"/>
        <pt x="934" y="783" on="0"/>
        <pt x="835" y="862" on="0"/>
        <pt x="696" y="862" on="0"/>
        <pt x="652" y="848" on="1"/>
        <pt x="607" y="836" on="0"/>
        <pt x="587" y="814" on="1"/>
        <pt x="552" y="776" on="0"/>
        <pt x="552" y="699" on="0"/>
        <pt x="595" y="619" on="0"/>
        <pt x="628" y="600" on="1"/>
        <pt x="668" y="581" on="0"/>
        <pt x="668" y="576" on="1"/>
        <pt x="668" y="559" on="0"/>
        <pt x="652" y="539" on="0"/>
        <pt x="626" y="536" on="1"/>
        <pt x="538" y="526" on="0"/>
        <pt x="404" y="474" on="0"/>
        <pt x="325" y="409" on="0"/>
        <pt x="300" y="367" on="1"/>
        <pt x="258" y="296" on="0"/>
        <pt x="258" y="204" on="1"/>
        <pt x="258" y="154" on="0"/>
        <pt x="300" y="78" on="0"/>
        <pt x="334" y="58" on="1"/>
        <pt x="428" y="21" on="0"/>
        <pt x="474" y="18" on="1"/>
        <pt x="613" y="18" on="0"/>
        <pt x="778" y="160" on="0"/>
      </contour>
      <contour>
        <pt x="910" y="1150" on="1"/>
        <pt x="931" y="1166" on="0"/>
        <pt x="949" y="1166" on="0"/>
        <pt x="953" y="1154" on="0"/>
        <pt x="1004" y="1053" on="0"/>
        <pt x="1004" y="1027" on="1"/>
        <pt x="1004" y="1025" on="0"/>
        <pt x="980" y="1014" on="0"/>
        <pt x="964" y="1000" on="0"/>
        <pt x="962" y="1000" on="1"/>
        <pt x="960" y="999" on="1"/>
        <pt x="960" y="1000" on="1"/>
        <pt x="937" y="1057" on="0"/>
        <pt x="908" y="1118" on="1"/>
        <pt x="716" y="1012" on="1"/>
        <pt x="698" y="1002" on="0"/>
        <pt x="686" y="1002" on="1"/>
        <pt x="684" y="1004" on="1"/>
        <pt x="684" y="1006" on="0"/>
        <pt x="704" y="1018" on="1"/>
        <pt x="804" y="1080" on="0"/>
      </contour>
    </TTGlyph>
    <TTGlyph name="Edieresis" xMin="158" yMin="-24" xMax="1004" yMax="1124">
      <contour>
        <pt x="778" y="250" on="1"/>
        <pt x="774" y="276" on="1"/>
        <pt x="774" y="282" on="0"/>
        <pt x="778" y="282" on="1"/>
        <pt x="802" y="266" on="1"/>
        <pt x="804" y="265" on="0"/>
        <pt x="809" y="260" on="0"/>
        <pt x="812" y="258" on="0"/>
        <pt x="814" y="256" on="1"/>
        <pt x="815" y="256" on="0"/>
        <pt x="816" y="254" on="1"/>
        <pt x="818" y="251" on="0"/>
        <pt x="818" y="244" on="1"/>
        <pt x="818" y="214" on="0"/>
        <pt x="765" y="127" on="0"/>
        <pt x="672" y="38" on="0"/>
        <pt x="518" y="-24" on="0"/>
        <pt x="330" y="-24" on="0"/>
        <pt x="158" y="96" on="0"/>
        <pt x="158" y="190" on="1"/>
        <pt x="158" y="258" on="0"/>
        <pt x="217" y="374" on="0"/>
        <pt x="305" y="445" on="0"/>
        <pt x="409" y="502" on="0"/>
        <pt x="453" y="516" on="1"/>
        <pt x="556" y="550" on="0"/>
        <pt x="556" y="554" on="1"/>
        <pt x="556" y="562" on="0"/>
        <pt x="544" y="570" on="1"/>
        <pt x="484" y="611" on="0"/>
        <pt x="484" y="754" on="0"/>
        <pt x="645" y="886" on="0"/>
        <pt x="782" y="886" on="1"/>
        <pt x="831" y="886" on="0"/>
        <pt x="886" y="874" on="1"/>
        <pt x="994" y="849" on="0"/>
        <pt x="994" y="806" on="1"/>
        <pt x="994" y="794" on="0"/>
        <pt x="972" y="759" on="0"/>
        <pt x="958" y="730" on="0"/>
        <pt x="950" y="730" on="0"/>
        <pt x="946" y="742" on="1"/>
        <pt x="934" y="783" on="0"/>
        <pt x="835" y="862" on="0"/>
        <pt x="696" y="862" on="0"/>
        <pt x="652" y="848" on="1"/>
        <pt x="607" y="836" on="0"/>
        <pt x="587" y="814" on="1"/>
        <pt x="552" y="776" on="0"/>
        <pt x="552" y="699" on="0"/>
        <pt x="595" y="619" on="0"/>
        <pt x="628" y="600" on="1"/>
        <pt x="668" y="581" on="0"/>
        <pt x="668" y="576" on="1"/>
        <pt x="668" y="559" on="0"/>
        <pt x="652" y="539" on="0"/>
        <pt x="626" y="536" on="1"/>
        <pt x="538" y="526" on="0"/>
        <pt x="404" y="474" on="0"/>
        <pt x="325" y="409" on="0"/>
        <pt x="300" y="367" on="1"/>
        <pt x="258" y="296" on="0"/>
        <pt x="258" y="204" on="1"/>
        <pt x="258" y="154" on="0"/>
        <pt x="300" y="78" on="0"/>
        <pt x="334" y="58" on="1"/>
        <pt x="428" y="21" on="0"/>
        <pt x="474" y="18" on="1"/>
        <pt x="613" y="18" on="0"/>
        <pt x="778" y="160" on="0"/>
      </contour>
      <contour>
        <pt x="760" y="1054" on="1"/>
        <pt x="760" y="1076" on="0"/>
        <pt x="780" y="1100" on="1"/>
        <pt x="798" y="1124" on="0"/>
        <pt x="834" y="1124" on="0"/>
        <pt x="852" y="1103" on="0"/>
        <pt x="852" y="1065" on="0"/>
        <pt x="816" y="1018" on="0"/>
        <pt x="792" y="1018" on="1"/>
        <pt x="760" y="1018" on="0"/>
      </contour>
      <contour>
        <pt x="912" y="1054" on="1"/>
        <pt x="912" y="1076" on="0"/>
        <pt x="932" y="1100" on="1"/>
        <pt x="950" y="1124" on="0"/>
        <pt x="986" y="1124" on="0"/>
        <pt x="1004" y="1103" on="0"/>
        <pt x="1004" y="1065" on="0"/>
        <pt x="968" y="1018" on="0"/>
        <pt x="944" y="1018" on="1"/>
        <pt x="912" y="1018" on="0"/>
      </contour>
    </TTGlyph>
    <TTGlyph name="Edotaccent" xMin="158" yMin="-24" xMax="994" yMax="1124">
      <contour>
        <pt x="778" y="250" on="1"/>
        <pt x="774" y="276" on="1"/>
        <pt x="774" y="282" on="0"/>
        <pt x="778" y="282" on="1"/>
        <pt x="802" y="266" on="1"/>
        <pt x="804" y="265" on="0"/>
        <pt x="809" y="260" on="0"/>
        <pt x="812" y="258" on="0"/>
        <pt x="814" y="256" on="1"/>
        <pt x="815" y="256" on="0"/>
        <pt x="816" y="254" on="1"/>
        <pt x="818" y="251" on="0"/>
        <pt x="818" y="244" on="1"/>
        <pt x="818" y="214" on="0"/>
        <pt x="765" y="127" on="0"/>
        <pt x="672" y="38" on="0"/>
        <pt x="518" y="-24" on="0"/>
        <pt x="330" y="-24" on="0"/>
        <pt x="158" y="96" on="0"/>
        <pt x="158" y="190" on="1"/>
        <pt x="158" y="258" on="0"/>
        <pt x="217" y="374" on="0"/>
        <pt x="305" y="445" on="0"/>
        <pt x="409" y="502" on="0"/>
        <pt x="453" y="516" on="1"/>
        <pt x="556" y="550" on="0"/>
        <pt x="556" y="554" on="1"/>
        <pt x="556" y="562" on="0"/>
        <pt x="544" y="570" on="1"/>
        <pt x="484" y="611" on="0"/>
        <pt x="484" y="754" on="0"/>
        <pt x="645" y="886" on="0"/>
        <pt x="782" y="886" on="1"/>
        <pt x="831" y="886" on="0"/>
        <pt x="886" y="874" on="1"/>
        <pt x="994" y="849" on="0"/>
        <pt x="994" y="806" on="1"/>
        <pt x="994" y="794" on="0"/>
        <pt x="972" y="759" on="0"/>
        <pt x="958" y="730" on="0"/>
        <pt x="950" y="730" on="0"/>
        <pt x="946" y="742" on="1"/>
        <pt x="934" y="783" on="0"/>
        <pt x="835" y="862" on="0"/>
        <pt x="696" y="862" on="0"/>
        <pt x="652" y="848" on="1"/>
        <pt x="607" y="836" on="0"/>
        <pt x="587" y="814" on="1"/>
        <pt x="552" y="776" on="0"/>
        <pt x="552" y="699" on="0"/>
        <pt x="595" y="619" on="0"/>
        <pt x="628" y="600" on="1"/>
        <pt x="668" y="581" on="0"/>
        <pt x="668" y="576" on="1"/>
        <pt x="668" y="559" on="0"/>
        <pt x="652" y="539" on="0"/>
        <pt x="626" y="536" on="1"/>
        <pt x="538" y="526" on="0"/>
        <pt x="404" y="474" on="0"/>
        <pt x="325" y="409" on="0"/>
        <pt x="300" y="367" on="1"/>
        <pt x="258" y="296" on="0"/>
        <pt x="258" y="204" on="1"/>
        <pt x="258" y="154" on="0"/>
        <pt x="300" y="78" on="0"/>
        <pt x="334" y="58" on="1"/>
        <pt x="428" y="21" on="0"/>
        <pt x="474" y="18" on="1"/>
        <pt x="613" y="18" on="0"/>
        <pt x="778" y="160" on="0"/>
      </contour>
      <contour>
        <pt x="832" y="1054" on="1"/>
        <pt x="832" y="1076" on="0"/>
        <pt x="852" y="1100" on="1"/>
        <pt x="870" y="1124" on="0"/>
        <pt x="906" y="1124" on="0"/>
        <pt x="924" y="1103" on="0"/>
        <pt x="924" y="1065" on="0"/>
        <pt x="888" y="1018" on="0"/>
        <pt x="864" y="1018" on="1"/>
        <pt x="832" y="1018" on="0"/>
      </contour>
    </TTGlyph>
    <TTGlyph name="Egrave" xMin="158" yMin="-24" xMax="994" yMax="1242">
      <contour>
        <pt x="778" y="250" on="1"/>
        <pt x="774" y="276" on="1"/>
        <pt x="774" y="282" on="0"/>
        <pt x="778" y="282" on="1"/>
        <pt x="802" y="266" on="1"/>
        <pt x="804" y="265" on="0"/>
        <pt x="809" y="260" on="0"/>
        <pt x="812" y="258" on="0"/>
        <pt x="814" y="256" on="1"/>
        <pt x="815" y="256" on="0"/>
        <pt x="816" y="254" on="1"/>
        <pt x="818" y="251" on="0"/>
        <pt x="818" y="244" on="1"/>
        <pt x="818" y="214" on="0"/>
        <pt x="765" y="127" on="0"/>
        <pt x="672" y="38" on="0"/>
        <pt x="518" y="-24" on="0"/>
        <pt x="330" y="-24" on="0"/>
        <pt x="158" y="96" on="0"/>
        <pt x="158" y="190" on="1"/>
        <pt x="158" y="258" on="0"/>
        <pt x="217" y="374" on="0"/>
        <pt x="305" y="445" on="0"/>
        <pt x="409" y="502" on="0"/>
        <pt x="453" y="516" on="1"/>
        <pt x="556" y="550" on="0"/>
        <pt x="556" y="554" on="1"/>
        <pt x="556" y="562" on="0"/>
        <pt x="544" y="570" on="1"/>
        <pt x="484" y="611" on="0"/>
        <pt x="484" y="754" on="0"/>
        <pt x="645" y="886" on="0"/>
        <pt x="782" y="886" on="1"/>
        <pt x="831" y="886" on="0"/>
        <pt x="886" y="874" on="1"/>
        <pt x="994" y="849" on="0"/>
        <pt x="994" y="806" on="1"/>
        <pt x="994" y="794" on="0"/>
        <pt x="972" y="759" on="0"/>
        <pt x="958" y="730" on="0"/>
        <pt x="950" y="730" on="0"/>
        <pt x="946" y="742" on="1"/>
        <pt x="934" y="783" on="0"/>
        <pt x="835" y="862" on="0"/>
        <pt x="696" y="862" on="0"/>
        <pt x="652" y="848" on="1"/>
        <pt x="607" y="836" on="0"/>
        <pt x="587" y="814" on="1"/>
        <pt x="552" y="776" on="0"/>
        <pt x="552" y="699" on="0"/>
        <pt x="595" y="619" on="0"/>
        <pt x="628" y="600" on="1"/>
        <pt x="668" y="581" on="0"/>
        <pt x="668" y="576" on="1"/>
        <pt x="668" y="559" on="0"/>
        <pt x="652" y="539" on="0"/>
        <pt x="626" y="536" on="1"/>
        <pt x="538" y="526" on="0"/>
        <pt x="404" y="474" on="0"/>
        <pt x="325" y="409" on="0"/>
        <pt x="300" y="367" on="1"/>
        <pt x="258" y="296" on="0"/>
        <pt x="258" y="204" on="1"/>
        <pt x="258" y="154" on="0"/>
        <pt x="300" y="78" on="0"/>
        <pt x="334" y="58" on="1"/>
        <pt x="428" y="21" on="0"/>
        <pt x="474" y="18" on="1"/>
        <pt x="613" y="18" on="0"/>
        <pt x="778" y="160" on="0"/>
      </contour>
      <contour>
        <pt x="856" y="1011" on="0"/>
        <pt x="860" y="1003" on="0"/>
        <pt x="860" y="1000" on="0"/>
        <pt x="848" y="1000" on="0"/>
        <pt x="844" y="1008" on="1"/>
        <pt x="732" y="1192" on="1"/>
        <pt x="730" y="1194" on="0"/>
        <pt x="730" y="1217" on="0"/>
        <pt x="742" y="1242" on="0"/>
        <pt x="759" y="1242" on="0"/>
        <pt x="764" y="1232" on="1"/>
        <pt x="850" y="1024" on="1"/>
        <pt x="851" y="1022" on="0"/>
      </contour>
    </TTGlyph>
    <TTGlyph name="Emacron" xMin="158" yMin="-24" xMax="1062" yMax="1082">
      <contour>
        <pt x="778" y="250" on="1"/>
        <pt x="774" y="276" on="1"/>
        <pt x="774" y="282" on="0"/>
        <pt x="778" y="282" on="1"/>
        <pt x="802" y="266" on="1"/>
        <pt x="804" y="265" on="0"/>
        <pt x="809" y="260" on="0"/>
        <pt x="812" y="258" on="0"/>
        <pt x="814" y="256" on="1"/>
        <pt x="815" y="256" on="0"/>
        <pt x="816" y="254" on="1"/>
        <pt x="818" y="251" on="0"/>
        <pt x="818" y="244" on="1"/>
        <pt x="818" y="214" on="0"/>
        <pt x="765" y="127" on="0"/>
        <pt x="672" y="38" on="0"/>
        <pt x="518" y="-24" on="0"/>
        <pt x="330" y="-24" on="0"/>
        <pt x="158" y="96" on="0"/>
        <pt x="158" y="190" on="1"/>
        <pt x="158" y="258" on="0"/>
        <pt x="217" y="374" on="0"/>
        <pt x="305" y="445" on="0"/>
        <pt x="409" y="502" on="0"/>
        <pt x="453" y="516" on="1"/>
        <pt x="556" y="550" on="0"/>
        <pt x="556" y="554" on="1"/>
        <pt x="556" y="562" on="0"/>
        <pt x="544" y="570" on="1"/>
        <pt x="484" y="611" on="0"/>
        <pt x="484" y="754" on="0"/>
        <pt x="645" y="886" on="0"/>
        <pt x="782" y="886" on="1"/>
        <pt x="831" y="886" on="0"/>
        <pt x="886" y="874" on="1"/>
        <pt x="994" y="849" on="0"/>
        <pt x="994" y="806" on="1"/>
        <pt x="994" y="794" on="0"/>
        <pt x="972" y="759" on="0"/>
        <pt x="958" y="730" on="0"/>
        <pt x="950" y="730" on="0"/>
        <pt x="946" y="742" on="1"/>
        <pt x="934" y="783" on="0"/>
        <pt x="835" y="862" on="0"/>
        <pt x="696" y="862" on="0"/>
        <pt x="652" y="848" on="1"/>
        <pt x="607" y="836" on="0"/>
        <pt x="587" y="814" on="1"/>
        <pt x="552" y="776" on="0"/>
        <pt x="552" y="699" on="0"/>
        <pt x="595" y="619" on="0"/>
        <pt x="628" y="600" on="1"/>
        <pt x="668" y="581" on="0"/>
        <pt x="668" y="576" on="1"/>
        <pt x="668" y="559" on="0"/>
        <pt x="652" y="539" on="0"/>
        <pt x="626" y="536" on="1"/>
        <pt x="538" y="526" on="0"/>
        <pt x="404" y="474" on="0"/>
        <pt x="325" y="409" on="0"/>
        <pt x="300" y="367" on="1"/>
        <pt x="258" y="296" on="0"/>
        <pt x="258" y="204" on="1"/>
        <pt x="258" y="154" on="0"/>
        <pt x="300" y="78" on="0"/>
        <pt x="334" y="58" on="1"/>
        <pt x="428" y="21" on="0"/>
        <pt x="474" y="18" on="1"/>
        <pt x="613" y="18" on="0"/>
        <pt x="778" y="160" on="0"/>
      </contour>
      <contour>
        <pt x="1004" y="1052" on="1"/>
        <pt x="722" y="1054" on="1"/>
        <pt x="708" y="1054" on="0"/>
        <pt x="708" y="1082" on="0"/>
        <pt x="716" y="1082" on="1"/>
        <pt x="1046" y="1080" on="1"/>
        <pt x="1062" y="1080" on="0"/>
        <pt x="1062" y="1070" on="1"/>
        <pt x="1062" y="1052" on="0"/>
      </contour>
    </TTGlyph>
    <TTGlyph name="Eng" xMin="34" yMin="-576" xMax="1230" yMax="874">
      <contour>
        <pt x="678" y="-30" on="1"/>
        <pt x="414" y="-576" on="0"/>
        <pt x="134" y="-576" on="1"/>
        <pt x="81" y="-576" on="0"/>
        <pt x="34" y="-508" on="0"/>
        <pt x="34" y="-470" on="1"/>
        <pt x="34" y="-296" on="0"/>
        <pt x="232" y="-154" on="1"/>
        <pt x="251" y="-139" on="0"/>
        <pt x="331" y="-90" on="0"/>
        <pt x="340" y="-90" on="0"/>
        <pt x="340" y="-97" on="0"/>
        <pt x="327" y="-106" on="1"/>
        <pt x="314" y="-116" on="0"/>
        <pt x="289" y="-132" on="1"/>
        <pt x="196" y="-192" on="0"/>
        <pt x="141" y="-292" on="1"/>
        <pt x="102" y="-362" on="0"/>
        <pt x="102" y="-424" on="1"/>
        <pt x="102" y="-461" on="0"/>
        <pt x="149" y="-536" on="0"/>
        <pt x="200" y="-536" on="1"/>
        <pt x="229" y="-536" on="0"/>
        <pt x="276" y="-523" on="0"/>
        <pt x="351" y="-468" on="0"/>
        <pt x="390" y="-418" on="1"/>
        <pt x="482" y="-301" on="0"/>
        <pt x="604" y="-56" on="1"/>
        <pt x="594" y="24" on="0"/>
        <pt x="594" y="72" on="1"/>
        <pt x="598" y="760" on="1"/>
        <pt x="598" y="794" on="0"/>
        <pt x="596" y="808" on="0"/>
        <pt x="592" y="808" on="1"/>
        <pt x="580" y="808" on="0"/>
        <pt x="562" y="772" on="1"/>
        <pt x="174" y="36" on="1"/>
        <pt x="162" y="12" on="0"/>
        <pt x="136" y="0" on="1"/>
        <pt x="114" y="-11" on="0"/>
        <pt x="98" y="-32" on="0"/>
        <pt x="86" y="-32" on="0"/>
        <pt x="86" y="-28" on="1"/>
        <pt x="86" y="-24" on="0"/>
        <pt x="92" y="-10" on="1"/>
        <pt x="170" y="163" on="0"/>
        <pt x="170" y="294" on="0"/>
        <pt x="154" y="294" on="1"/>
        <pt x="149" y="294" on="0"/>
        <pt x="132" y="284" on="0"/>
        <pt x="124" y="284" on="0"/>
        <pt x="124" y="290" on="1"/>
        <pt x="156" y="310" on="1"/>
        <pt x="161" y="313" on="0"/>
        <pt x="168" y="318" on="1"/>
        <pt x="182" y="328" on="0"/>
        <pt x="190" y="328" on="1"/>
        <pt x="198" y="328" on="0"/>
        <pt x="212" y="318" on="1"/>
        <pt x="240" y="298" on="0"/>
        <pt x="240" y="248" on="1"/>
        <pt x="548" y="814" on="1"/>
        <pt x="560" y="839" on="0"/>
        <pt x="611" y="872" on="0"/>
        <pt x="648" y="872" on="1"/>
        <pt x="682" y="872" on="0"/>
        <pt x="682" y="812" on="1"/>
        <pt x="676" y="96" on="1"/>
        <pt x="755" y="267" on="0"/>
        <pt x="1027" y="765" on="0"/>
        <pt x="1064" y="802" on="1"/>
        <pt x="1118" y="856" on="0"/>
        <pt x="1152" y="868" on="1"/>
        <pt x="1167" y="874" on="0"/>
        <pt x="1200" y="874" on="0"/>
        <pt x="1230" y="859" on="0"/>
        <pt x="1230" y="843" on="0"/>
        <pt x="1215" y="830" on="1"/>
        <pt x="1200" y="816" on="0"/>
        <pt x="1185" y="802" on="1"/>
        <pt x="1152" y="773" on="0"/>
        <pt x="1151" y="774" on="1"/>
        <pt x="1146" y="774" on="0"/>
        <pt x="1146" y="786" on="0"/>
        <pt x="1132" y="798" on="0"/>
        <pt x="1122" y="798" on="1"/>
        <pt x="1093" y="798" on="0"/>
        <pt x="1070" y="764" on="1"/>
        <pt x="962" y="608" on="0"/>
        <pt x="767" y="168" on="1"/>
        <pt x="686" y="-14" on="0"/>
      </contour>
    </TTGlyph>
    <TTGlyph name="Eogonek" xMin="158" yMin="-226" xMax="994" yMax="886">
      <contour>
        <pt x="778" y="250" on="1"/>
        <pt x="774" y="276" on="1"/>
        <pt x="774" y="282" on="0"/>
        <pt x="778" y="282" on="1"/>
        <pt x="802" y="266" on="1"/>
        <pt x="804" y="265" on="0"/>
        <pt x="809" y="260" on="0"/>
        <pt x="812" y="258" on="0"/>
        <pt x="814" y="256" on="1"/>
        <pt x="815" y="256" on="0"/>
        <pt x="816" y="254" on="1"/>
        <pt x="818" y="251" on="0"/>
        <pt x="818" y="244" on="1"/>
        <pt x="818" y="214" on="0"/>
        <pt x="765" y="127" on="0"/>
        <pt x="672" y="38" on="0"/>
        <pt x="518" y="-24" on="0"/>
        <pt x="330" y="-24" on="0"/>
        <pt x="158" y="96" on="0"/>
        <pt x="158" y="190" on="1"/>
        <pt x="158" y="258" on="0"/>
        <pt x="217" y="374" on="0"/>
        <pt x="305" y="445" on="0"/>
        <pt x="409" y="502" on="0"/>
        <pt x="453" y="516" on="1"/>
        <pt x="556" y="550" on="0"/>
        <pt x="556" y="554" on="1"/>
        <pt x="556" y="562" on="0"/>
        <pt x="544" y="570" on="1"/>
        <pt x="484" y="611" on="0"/>
        <pt x="484" y="754" on="0"/>
        <pt x="645" y="886" on="0"/>
        <pt x="782" y="886" on="1"/>
        <pt x="831" y="886" on="0"/>
        <pt x="886" y="874" on="1"/>
        <pt x="994" y="849" on="0"/>
        <pt x="994" y="806" on="1"/>
        <pt x="994" y="794" on="0"/>
        <pt x="972" y="759" on="0"/>
        <pt x="958" y="730" on="0"/>
        <pt x="950" y="730" on="0"/>
        <pt x="946" y="742" on="1"/>
        <pt x="934" y="783" on="0"/>
        <pt x="835" y="862" on="0"/>
        <pt x="696" y="862" on="0"/>
        <pt x="652" y="848" on="1"/>
        <pt x="607" y="836" on="0"/>
        <pt x="587" y="814" on="1"/>
        <pt x="552" y="776" on="0"/>
        <pt x="552" y="699" on="0"/>
        <pt x="595" y="619" on="0"/>
        <pt x="628" y="600" on="1"/>
        <pt x="668" y="581" on="0"/>
        <pt x="668" y="576" on="1"/>
        <pt x="668" y="559" on="0"/>
        <pt x="652" y="539" on="0"/>
        <pt x="626" y="536" on="1"/>
        <pt x="538" y="526" on="0"/>
        <pt x="404" y="474" on="0"/>
        <pt x="325" y="409" on="0"/>
        <pt x="300" y="367" on="1"/>
        <pt x="258" y="296" on="0"/>
        <pt x="258" y="204" on="1"/>
        <pt x="258" y="154" on="0"/>
        <pt x="300" y="78" on="0"/>
        <pt x="334" y="58" on="1"/>
        <pt x="428" y="21" on="0"/>
        <pt x="474" y="18" on="1"/>
        <pt x="613" y="18" on="0"/>
        <pt x="778" y="160" on="0"/>
      </contour>
      <contour>
        <pt x="339" y="-45" on="0"/>
        <pt x="437" y="6" on="0"/>
        <pt x="442" y="6" on="0"/>
        <pt x="442" y="2" on="1"/>
        <pt x="442" y="-1" on="0"/>
        <pt x="374" y="-39" on="0"/>
        <pt x="368" y="-42" on="1"/>
        <pt x="284" y="-96" on="0"/>
        <pt x="284" y="-152" on="1"/>
        <pt x="284" y="-176" on="0"/>
        <pt x="321" y="-210" on="0"/>
        <pt x="360" y="-210" on="0"/>
        <pt x="374" y="-206" on="1"/>
        <pt x="388" y="-202" on="1"/>
        <pt x="396" y="-202" on="0"/>
        <pt x="396" y="-206" on="0"/>
        <pt x="380" y="-212" on="1"/>
        <pt x="338" y="-226" on="0"/>
        <pt x="308" y="-226" on="1"/>
        <pt x="222" y="-226" on="0"/>
        <pt x="222" y="-170" on="1"/>
        <pt x="222" y="-143" on="0"/>
        <pt x="261" y="-93" on="0"/>
        <pt x="300" y="-67" on="0"/>
      </contour>
    </TTGlyph>
    <TTGlyph name="Epsilon" xMin="158" yMin="-24" xMax="994" yMax="886">
      <contour>
        <pt x="778" y="250" on="1"/>
        <pt x="774" y="276" on="1"/>
        <pt x="774" y="282" on="0"/>
        <pt x="778" y="282" on="1"/>
        <pt x="802" y="266" on="1"/>
        <pt x="804" y="265" on="0"/>
        <pt x="809" y="260" on="0"/>
        <pt x="812" y="258" on="0"/>
        <pt x="814" y="256" on="1"/>
        <pt x="815" y="256" on="0"/>
        <pt x="816" y="254" on="1"/>
        <pt x="818" y="251" on="0"/>
        <pt x="818" y="244" on="1"/>
        <pt x="818" y="214" on="0"/>
        <pt x="765" y="127" on="0"/>
        <pt x="672" y="38" on="0"/>
        <pt x="518" y="-24" on="0"/>
        <pt x="330" y="-24" on="0"/>
        <pt x="158" y="96" on="0"/>
        <pt x="158" y="190" on="1"/>
        <pt x="158" y="258" on="0"/>
        <pt x="217" y="374" on="0"/>
        <pt x="305" y="445" on="0"/>
        <pt x="409" y="502" on="0"/>
        <pt x="453" y="516" on="1"/>
        <pt x="556" y="550" on="0"/>
        <pt x="556" y="554" on="1"/>
        <pt x="556" y="562" on="0"/>
        <pt x="544" y="570" on="1"/>
        <pt x="484" y="611" on="0"/>
        <pt x="484" y="754" on="0"/>
        <pt x="645" y="886" on="0"/>
        <pt x="782" y="886" on="1"/>
        <pt x="831" y="886" on="0"/>
        <pt x="886" y="874" on="1"/>
        <pt x="994" y="849" on="0"/>
        <pt x="994" y="806" on="1"/>
        <pt x="994" y="794" on="0"/>
        <pt x="972" y="759" on="0"/>
        <pt x="958" y="730" on="0"/>
        <pt x="950" y="730" on="0"/>
        <pt x="946" y="742" on="1"/>
        <pt x="934" y="783" on="0"/>
        <pt x="835" y="862" on="0"/>
        <pt x="696" y="862" on="0"/>
        <pt x="652" y="848" on="1"/>
        <pt x="607" y="836" on="0"/>
        <pt x="587" y="814" on="1"/>
        <pt x="552" y="776" on="0"/>
        <pt x="552" y="699" on="0"/>
        <pt x="595" y="619" on="0"/>
        <pt x="628" y="600" on="1"/>
        <pt x="668" y="581" on="0"/>
        <pt x="668" y="576" on="1"/>
        <pt x="668" y="559" on="0"/>
        <pt x="652" y="539" on="0"/>
        <pt x="626" y="536" on="1"/>
        <pt x="538" y="526" on="0"/>
        <pt x="404" y="474" on="0"/>
        <pt x="325" y="409" on="0"/>
        <pt x="300" y="367" on="1"/>
        <pt x="258" y="296" on="0"/>
        <pt x="258" y="204" on="1"/>
        <pt x="258" y="154" on="0"/>
        <pt x="300" y="78" on="0"/>
        <pt x="334" y="58" on="1"/>
        <pt x="428" y="21" on="0"/>
        <pt x="474" y="18" on="1"/>
        <pt x="613" y="18" on="0"/>
        <pt x="778" y="160" on="0"/>
      </contour>
    </TTGlyph>
    <TTGlyph name="Epsilontonos" xMin="158" yMin="-24" xMax="994" yMax="1022">
      <contour>
        <pt x="778" y="250" on="1"/>
        <pt x="774" y="276" on="1"/>
        <pt x="774" y="282" on="0"/>
        <pt x="778" y="282" on="1"/>
        <pt x="802" y="266" on="1"/>
        <pt x="804" y="265" on="0"/>
        <pt x="809" y="260" on="0"/>
        <pt x="812" y="258" on="0"/>
        <pt x="814" y="256" on="1"/>
        <pt x="815" y="256" on="0"/>
        <pt x="816" y="254" on="1"/>
        <pt x="818" y="251" on="0"/>
        <pt x="818" y="244" on="1"/>
        <pt x="818" y="214" on="0"/>
        <pt x="765" y="127" on="0"/>
        <pt x="672" y="38" on="0"/>
        <pt x="518" y="-24" on="0"/>
        <pt x="330" y="-24" on="0"/>
        <pt x="158" y="96" on="0"/>
        <pt x="158" y="190" on="1"/>
        <pt x="158" y="258" on="0"/>
        <pt x="217" y="374" on="0"/>
        <pt x="305" y="445" on="0"/>
        <pt x="409" y="502" on="0"/>
        <pt x="453" y="516" on="1"/>
        <pt x="556" y="550" on="0"/>
        <pt x="556" y="554" on="1"/>
        <pt x="556" y="562" on="0"/>
        <pt x="544" y="570" on="1"/>
        <pt x="484" y="611" on="0"/>
        <pt x="484" y="754" on="0"/>
        <pt x="645" y="886" on="0"/>
        <pt x="782" y="886" on="1"/>
        <pt x="831" y="886" on="0"/>
        <pt x="886" y="874" on="1"/>
        <pt x="994" y="849" on="0"/>
        <pt x="994" y="806" on="1"/>
        <pt x="994" y="794" on="0"/>
        <pt x="972" y="759" on="0"/>
        <pt x="958" y="730" on="0"/>
        <pt x="950" y="730" on="0"/>
        <pt x="946" y="742" on="1"/>
        <pt x="934" y="783" on="0"/>
        <pt x="835" y="862" on="0"/>
        <pt x="696" y="862" on="0"/>
        <pt x="652" y="848" on="1"/>
        <pt x="607" y="836" on="0"/>
        <pt x="587" y="814" on="1"/>
        <pt x="552" y="776" on="0"/>
        <pt x="552" y="699" on="0"/>
        <pt x="595" y="619" on="0"/>
        <pt x="628" y="600" on="1"/>
        <pt x="668" y="581" on="0"/>
        <pt x="668" y="576" on="1"/>
        <pt x="668" y="559" on="0"/>
        <pt x="652" y="539" on="0"/>
        <pt x="626" y="536" on="1"/>
        <pt x="538" y="526" on="0"/>
        <pt x="404" y="474" on="0"/>
        <pt x="325" y="409" on="0"/>
        <pt x="300" y="367" on="1"/>
        <pt x="258" y="296" on="0"/>
        <pt x="258" y="204" on="1"/>
        <pt x="258" y="154" on="0"/>
        <pt x="300" y="78" on="0"/>
        <pt x="334" y="58" on="1"/>
        <pt x="428" y="21" on="0"/>
        <pt x="474" y="18" on="1"/>
        <pt x="613" y="18" on="0"/>
        <pt x="778" y="160" on="0"/>
      </contour>
      <contour>
        <pt x="422" y="804" on="1"/>
        <pt x="616" y="1004" on="1"/>
        <pt x="634" y="1022" on="0"/>
        <pt x="642" y="1022" on="0"/>
        <pt x="652" y="999" on="0"/>
        <pt x="652" y="985" on="0"/>
        <pt x="644" y="980" on="1"/>
        <pt x="603" y="944" on="0"/>
        <pt x="474" y="841" on="0"/>
        <pt x="430" y="802" on="1"/>
        <pt x="426" y="794" on="0"/>
        <pt x="416" y="794" on="0"/>
        <pt x="416" y="796" on="1"/>
      </contour>
    </TTGlyph>
    <TTGlyph name="Eta" xMin="82" yMin="-24" xMax="1224" yMax="886">
      <contour>
        <pt x="984" y="36" on="1"/>
        <pt x="880" y="-24" on="0"/>
        <pt x="784" y="-24" on="1"/>
        <pt x="724" y="-24" on="0"/>
        <pt x="678" y="33" on="0"/>
        <pt x="678" y="72" on="1"/>
        <pt x="678" y="146" on="0"/>
        <pt x="814" y="406" on="1"/>
        <pt x="618" y="368" on="0"/>
        <pt x="456" y="368" on="1"/>
        <pt x="413" y="368" on="0"/>
        <pt x="380" y="374" on="1"/>
        <pt x="233" y="100" on="0"/>
        <pt x="192" y="10" on="1"/>
        <pt x="185" y="-2" on="0"/>
        <pt x="128" y="-8" on="0"/>
        <pt x="105" y="-13" on="0"/>
        <pt x="92" y="-20" on="0"/>
        <pt x="82" y="-20" on="0"/>
        <pt x="82" y="-10" on="0"/>
        <pt x="148" y="106" on="1"/>
        <pt x="322" y="410" on="1"/>
        <pt x="314" y="426" on="0"/>
        <pt x="314" y="454" on="0"/>
        <pt x="343" y="472" on="0"/>
        <pt x="356" y="472" on="1"/>
        <pt x="496" y="721" on="0"/>
        <pt x="496" y="782" on="1"/>
        <pt x="496" y="812" on="0"/>
        <pt x="458" y="858" on="0"/>
        <pt x="372" y="858" on="0"/>
        <pt x="297" y="825" on="0"/>
        <pt x="254" y="782" on="1"/>
        <pt x="249" y="777" on="0"/>
        <pt x="244" y="771" on="1"/>
        <pt x="235" y="760" on="0"/>
        <pt x="232" y="760" on="1"/>
        <pt x="226" y="760" on="0"/>
        <pt x="226" y="774" on="0"/>
        <pt x="248" y="796" on="1"/>
        <pt x="335" y="886" on="0"/>
        <pt x="454" y="886" on="1"/>
        <pt x="514" y="886" on="0"/>
        <pt x="574" y="830" on="0"/>
        <pt x="574" y="786" on="1"/>
        <pt x="574" y="758" on="0"/>
        <pt x="548" y="694" on="0"/>
        <pt x="528" y="651" on="0"/>
        <pt x="512" y="620" on="0"/>
        <pt x="483" y="565" on="0"/>
        <pt x="473" y="547" on="1"/>
        <pt x="438" y="484" on="0"/>
        <pt x="416" y="442" on="1"/>
        <pt x="492" y="404" on="0"/>
        <pt x="698" y="404" on="0"/>
        <pt x="828" y="432" on="1"/>
        <pt x="902" y="570" on="0"/>
        <pt x="1054" y="842" on="1"/>
        <pt x="1062" y="854" on="0"/>
        <pt x="1082" y="860" on="0"/>
        <pt x="1111" y="866" on="0"/>
        <pt x="1127" y="870" on="0"/>
        <pt x="1165" y="886" on="0"/>
        <pt x="1182" y="886" on="0"/>
        <pt x="1182" y="880" on="1"/>
        <pt x="1182" y="868" on="0"/>
        <pt x="1147" y="825" on="1"/>
        <pt x="1130" y="804" on="1"/>
        <pt x="1052" y="687" on="0"/>
        <pt x="922" y="454" on="1"/>
        <pt x="978" y="467" on="0"/>
        <pt x="1003" y="478" on="0"/>
        <pt x="1006" y="478" on="1"/>
        <pt x="1012" y="478" on="0"/>
        <pt x="1012" y="465" on="0"/>
        <pt x="1001" y="454" on="0"/>
        <pt x="976" y="445" on="0"/>
        <pt x="957" y="439" on="0"/>
        <pt x="918" y="430" on="0"/>
        <pt x="910" y="428" on="1"/>
        <pt x="778" y="169" on="0"/>
        <pt x="778" y="102" on="1"/>
        <pt x="778" y="24" on="0"/>
        <pt x="856" y="24" on="1"/>
        <pt x="936" y="24" on="0"/>
        <pt x="1004" y="66" on="1"/>
        <pt x="1016" y="74" on="0"/>
        <pt x="1029" y="82" on="1"/>
        <pt x="1061" y="102" on="0"/>
        <pt x="1112" y="142" on="1"/>
        <pt x="1152" y="176" on="0"/>
        <pt x="1212" y="248" on="1"/>
        <pt x="1216" y="254" on="0"/>
        <pt x="1224" y="254" on="0"/>
        <pt x="1224" y="248" on="0"/>
        <pt x="1222" y="244" on="1"/>
        <pt x="1169" y="173" on="0"/>
        <pt x="1067" y="86" on="0"/>
      </contour>
    </TTGlyph>
    <TTGlyph name="Etatonos" xMin="82" yMin="-24" xMax="1224" yMax="1022">
      <contour>
        <pt x="984" y="36" on="1"/>
        <pt x="880" y="-24" on="0"/>
        <pt x="784" y="-24" on="1"/>
        <pt x="724" y="-24" on="0"/>
        <pt x="678" y="33" on="0"/>
        <pt x="678" y="72" on="1"/>
        <pt x="678" y="146" on="0"/>
        <pt x="814" y="406" on="1"/>
        <pt x="618" y="368" on="0"/>
        <pt x="456" y="368" on="1"/>
        <pt x="413" y="368" on="0"/>
        <pt x="380" y="374" on="1"/>
        <pt x="233" y="100" on="0"/>
        <pt x="192" y="10" on="1"/>
        <pt x="185" y="-2" on="0"/>
        <pt x="128" y="-8" on="0"/>
        <pt x="105" y="-13" on="0"/>
        <pt x="92" y="-20" on="0"/>
        <pt x="82" y="-20" on="0"/>
        <pt x="82" y="-10" on="0"/>
        <pt x="148" y="106" on="1"/>
        <pt x="322" y="410" on="1"/>
        <pt x="314" y="426" on="0"/>
        <pt x="314" y="454" on="0"/>
        <pt x="343" y="472" on="0"/>
        <pt x="356" y="472" on="1"/>
        <pt x="496" y="721" on="0"/>
        <pt x="496" y="782" on="1"/>
        <pt x="496" y="812" on="0"/>
        <pt x="458" y="858" on="0"/>
        <pt x="372" y="858" on="0"/>
        <pt x="297" y="825" on="0"/>
        <pt x="254" y="782" on="1"/>
        <pt x="249" y="777" on="0"/>
        <pt x="244" y="771" on="1"/>
        <pt x="235" y="760" on="0"/>
        <pt x="232" y="760" on="1"/>
        <pt x="226" y="760" on="0"/>
        <pt x="226" y="774" on="0"/>
        <pt x="248" y="796" on="1"/>
        <pt x="335" y="886" on="0"/>
        <pt x="454" y="886" on="1"/>
        <pt x="514" y="886" on="0"/>
        <pt x="574" y="830" on="0"/>
        <pt x="574" y="786" on="1"/>
        <pt x="574" y="758" on="0"/>
        <pt x="548" y="694" on="0"/>
        <pt x="528" y="651" on="0"/>
        <pt x="512" y="620" on="0"/>
        <pt x="483" y="565" on="0"/>
        <pt x="473" y="547" on="1"/>
        <pt x="438" y="484" on="0"/>
        <pt x="416" y="442" on="1"/>
        <pt x="492" y="404" on="0"/>
        <pt x="698" y="404" on="0"/>
        <pt x="828" y="432" on="1"/>
        <pt x="902" y="570" on="0"/>
        <pt x="1054" y="842" on="1"/>
        <pt x="1062" y="854" on="0"/>
        <pt x="1082" y="860" on="0"/>
        <pt x="1111" y="866" on="0"/>
        <pt x="1127" y="870" on="0"/>
        <pt x="1165" y="886" on="0"/>
        <pt x="1182" y="886" on="0"/>
        <pt x="1182" y="880" on="1"/>
        <pt x="1182" y="868" on="0"/>
        <pt x="1147" y="825" on="1"/>
        <pt x="1130" y="804" on="1"/>
        <pt x="1052" y="687" on="0"/>
        <pt x="922" y="454" on="1"/>
        <pt x="978" y="467" on="0"/>
        <pt x="1003" y="478" on="0"/>
        <pt x="1006" y="478" on="1"/>
        <pt x="1012" y="478" on="0"/>
        <pt x="1012" y="465" on="0"/>
        <pt x="1001" y="454" on="0"/>
        <pt x="976" y="445" on="0"/>
        <pt x="957" y="439" on="0"/>
        <pt x="918" y="430" on="0"/>
        <pt x="910" y="428" on="1"/>
        <pt x="778" y="169" on="0"/>
        <pt x="778" y="102" on="1"/>
        <pt x="778" y="24" on="0"/>
        <pt x="856" y="24" on="1"/>
        <pt x="936" y="24" on="0"/>
        <pt x="1004" y="66" on="1"/>
        <pt x="1016" y="74" on="0"/>
        <pt x="1029" y="82" on="1"/>
        <pt x="1061" y="102" on="0"/>
        <pt x="1112" y="142" on="1"/>
        <pt x="1152" y="176" on="0"/>
        <pt x="1212" y="248" on="1"/>
        <pt x="1216" y="254" on="0"/>
        <pt x="1224" y="254" on="0"/>
        <pt x="1224" y="248" on="0"/>
        <pt x="1222" y="244" on="1"/>
        <pt x="1169" y="173" on="0"/>
        <pt x="1067" y="86" on="0"/>
      </contour>
      <contour>
        <pt x="154" y="804" on="1"/>
        <pt x="348" y="1004" on="1"/>
        <pt x="366" y="1022" on="0"/>
        <pt x="374" y="1022" on="0"/>
        <pt x="384" y="999" on="0"/>
        <pt x="384" y="985" on="0"/>
        <pt x="376" y="980" on="1"/>
        <pt x="335" y="944" on="0"/>
        <pt x="206" y="841" on="0"/>
        <pt x="162" y="802" on="1"/>
        <pt x="158" y="794" on="0"/>
        <pt x="148" y="794" on="0"/>
        <pt x="148" y="796" on="1"/>
      </contour>
    </TTGlyph>
    <TTGlyph name="Eth" xMin="130" yMin="-20" xMax="1256" yMax="1030">
      <contour>
        <pt x="480" y="186" on="1"/>
        <pt x="427" y="260" on="0"/>
        <pt x="381" y="296" on="0"/>
        <pt x="360" y="296" on="1"/>
        <pt x="301" y="296" on="0"/>
        <pt x="186" y="149" on="0"/>
        <pt x="186" y="90" on="1"/>
        <pt x="186" y="26" on="0"/>
        <pt x="266" y="26" on="1"/>
        <pt x="308" y="26" on="0"/>
        <pt x="425" y="105" on="0"/>
      </contour>
      <contour>
        <pt x="558" y="240" on="1"/>
        <pt x="568" y="222" on="0"/>
        <pt x="604" y="144" on="0"/>
        <pt x="632" y="93" on="0"/>
        <pt x="654" y="64" on="1"/>
        <pt x="699" y="6" on="0"/>
        <pt x="864" y="6" on="0"/>
        <pt x="1014" y="100" on="0"/>
        <pt x="1113" y="249" on="0"/>
        <pt x="1170" y="429" on="0"/>
        <pt x="1170" y="516" on="1"/>
        <pt x="1170" y="800" on="0"/>
        <pt x="904" y="854" on="1"/>
        <pt x="821" y="689" on="0"/>
        <pt x="618" y="324" on="0"/>
      </contour>
      <contour>
        <pt x="392" y="614" on="1"/>
        <pt x="392" y="602" on="0"/>
        <pt x="398" y="586" on="1"/>
        <pt x="398" y="582" on="0"/>
        <pt x="384" y="582" on="0"/>
        <pt x="360" y="606" on="0"/>
        <pt x="352" y="612" on="1"/>
        <pt x="336" y="624" on="0"/>
        <pt x="336" y="636" on="1"/>
        <pt x="336" y="705" on="0"/>
        <pt x="473" y="823" on="0"/>
        <pt x="669" y="886" on="0"/>
        <pt x="766" y="886" on="1"/>
        <pt x="810" y="886" on="0"/>
        <pt x="830" y="884" on="1"/>
        <pt x="840" y="907" on="0"/>
        <pt x="840" y="928" on="1"/>
        <pt x="840" y="970" on="0"/>
        <pt x="793" y="1006" on="0"/>
        <pt x="710" y="1006" on="0"/>
        <pt x="647" y="980" on="0"/>
        <pt x="608" y="954" on="0"/>
        <pt x="606" y="954" on="1"/>
        <pt x="600" y="954" on="0"/>
        <pt x="600" y="960" on="1"/>
        <pt x="600" y="964" on="0"/>
        <pt x="644" y="996" on="0"/>
        <pt x="730" y="1030" on="0"/>
        <pt x="807" y="1030" on="0"/>
        <pt x="867" y="1015" on="0"/>
        <pt x="920" y="966" on="0"/>
        <pt x="920" y="926" on="1"/>
        <pt x="920" y="904" on="0"/>
        <pt x="910" y="874" on="1"/>
        <pt x="1256" y="817" on="0"/>
        <pt x="1256" y="468" on="1"/>
        <pt x="1256" y="374" on="0"/>
        <pt x="1180" y="194" on="0"/>
        <pt x="1052" y="61" on="0"/>
        <pt x="875" y="-20" on="0"/>
        <pt x="780" y="-20" on="1"/>
        <pt x="710" y="-20" on="0"/>
        <pt x="648" y="8" on="1"/>
        <pt x="626" y="18" on="0"/>
        <pt x="571" y="71" on="0"/>
        <pt x="542" y="105" on="0"/>
        <pt x="503" y="156" on="0"/>
        <pt x="498" y="162" on="1"/>
        <pt x="445" y="102" on="0"/>
        <pt x="361" y="31" on="0"/>
        <pt x="260" y="-16" on="0"/>
        <pt x="186" y="-16" on="0"/>
        <pt x="130" y="20" on="0"/>
        <pt x="130" y="96" on="0"/>
        <pt x="192" y="201" on="0"/>
        <pt x="280" y="290" on="0"/>
        <pt x="387" y="352" on="0"/>
        <pt x="428" y="352" on="1"/>
        <pt x="480" y="352" on="0"/>
        <pt x="534" y="276" on="1"/>
        <pt x="624" y="435" on="0"/>
        <pt x="782" y="764" on="0"/>
        <pt x="822" y="866" on="1"/>
        <pt x="802" y="868" on="0"/>
        <pt x="760" y="868" on="1"/>
        <pt x="678" y="868" on="0"/>
        <pt x="506" y="795" on="0"/>
        <pt x="392" y="675" on="0"/>
      </contour>
      <contour>
        <pt x="916" y="500" on="1"/>
        <pt x="920" y="500" on="0"/>
        <pt x="920" y="490" on="0"/>
        <pt x="884" y="470" on="1"/>
        <pt x="855" y="452" on="0"/>
        <pt x="848" y="452" on="1"/>
        <pt x="800" y="451" on="0"/>
        <pt x="544" y="449" on="0"/>
        <pt x="448" y="444" on="1"/>
        <pt x="444" y="444" on="0"/>
        <pt x="444" y="446" on="1"/>
        <pt x="444" y="452" on="0"/>
        <pt x="508" y="492" on="0"/>
        <pt x="520" y="492" on="1"/>
        <pt x="696" y="500" on="0"/>
      </contour>
    </TTGlyph>
    <TTGlyph name="Euro" xMin="120" yMin="-24" xMax="1050" yMax="886">
      <contour>
        <pt x="234" y="346" on="1"/>
        <pt x="130" y="344" on="1"/>
        <pt x="120" y="344" on="0"/>
        <pt x="120" y="356" on="0"/>
        <pt x="155" y="380" on="0"/>
        <pt x="174" y="380" on="0"/>
        <pt x="211" y="376" on="0"/>
        <pt x="246" y="376" on="1"/>
        <pt x="260" y="413" on="0"/>
        <pt x="292" y="470" on="1"/>
        <pt x="256" y="468" on="0"/>
        <pt x="190" y="468" on="1"/>
        <pt x="182" y="468" on="0"/>
        <pt x="182" y="474" on="0"/>
        <pt x="185" y="476" on="0"/>
        <pt x="192" y="480" on="0"/>
        <pt x="198" y="486" on="0"/>
        <pt x="202" y="492" on="1"/>
        <pt x="205" y="498" on="0"/>
        <pt x="207" y="500" on="1"/>
        <pt x="212" y="506" on="0"/>
        <pt x="272" y="506" on="0"/>
        <pt x="312" y="504" on="1"/>
        <pt x="439" y="700" on="0"/>
        <pt x="636" y="810" on="1"/>
        <pt x="768" y="886" on="0"/>
        <pt x="906" y="886" on="1"/>
        <pt x="987" y="886" on="0"/>
        <pt x="1031" y="840" on="1"/>
        <pt x="1050" y="820" on="0"/>
        <pt x="1050" y="799" on="0"/>
        <pt x="1005" y="760" on="0"/>
        <pt x="997" y="734" on="0"/>
        <pt x="986" y="734" on="0"/>
        <pt x="986" y="744" on="1"/>
        <pt x="978" y="781" on="0"/>
        <pt x="893" y="842" on="0"/>
        <pt x="842" y="842" on="1"/>
        <pt x="742" y="842" on="0"/>
        <pt x="650" y="788" on="1"/>
        <pt x="572" y="736" on="0"/>
        <pt x="434" y="589" on="0"/>
        <pt x="388" y="502" on="1"/>
        <pt x="512" y="500" on="1"/>
        <pt x="800" y="502" on="1"/>
        <pt x="806" y="502" on="0"/>
        <pt x="806" y="481" on="0"/>
        <pt x="774" y="466" on="0"/>
        <pt x="756" y="466" on="1"/>
        <pt x="372" y="472" on="1"/>
        <pt x="351" y="424" on="0"/>
        <pt x="336" y="376" on="1"/>
        <pt x="742" y="378" on="1"/>
        <pt x="750" y="378" on="0"/>
        <pt x="750" y="372" on="1"/>
        <pt x="750" y="368" on="0"/>
        <pt x="737" y="359" on="0"/>
        <pt x="720" y="342" on="0"/>
        <pt x="706" y="342" on="1"/>
        <pt x="468" y="348" on="1"/>
        <pt x="328" y="346" on="1"/>
        <pt x="312" y="279" on="0"/>
        <pt x="312" y="220" on="1"/>
        <pt x="312" y="129" on="0"/>
        <pt x="427" y="8" on="0"/>
        <pt x="514" y="8" on="1"/>
        <pt x="650" y="8" on="0"/>
        <pt x="754" y="106" on="1"/>
        <pt x="789" y="139" on="0"/>
        <pt x="832" y="190" on="0"/>
        <pt x="867" y="238" on="0"/>
        <pt x="878" y="238" on="0"/>
        <pt x="878" y="159" on="0"/>
        <pt x="868" y="144" on="1"/>
        <pt x="807" y="66" on="0"/>
        <pt x="610" y="-24" on="0"/>
        <pt x="364" y="-24" on="0"/>
        <pt x="212" y="104" on="0"/>
        <pt x="212" y="212" on="1"/>
        <pt x="212" y="274" on="0"/>
      </contour>
    </TTGlyph>
    <TTGlyph name="F" xMin="142" yMin="-28" xMax="1142" yMax="1086">
      <contour>
        <pt x="726" y="830" on="1"/>
        <pt x="678" y="699" on="0"/>
        <pt x="542" y="444" on="1"/>
        <pt x="542" y="444" on="0"/>
        <pt x="732" y="452" on="1"/>
        <pt x="736" y="452" on="0"/>
        <pt x="736" y="450" on="1"/>
        <pt x="736" y="445" on="0"/>
        <pt x="720" y="432" on="1"/>
        <pt x="703" y="420" on="0"/>
        <pt x="696" y="416" on="1"/>
        <pt x="673" y="404" on="0"/>
        <pt x="520" y="404" on="1"/>
        <pt x="447" y="268" on="0"/>
        <pt x="307" y="27" on="0"/>
        <pt x="286" y="-2" on="1"/>
        <pt x="270" y="-22" on="0"/>
        <pt x="254" y="-22" on="1"/>
        <pt x="206" y="-28" on="0"/>
        <pt x="156" y="-28" on="1"/>
        <pt x="148" y="-28" on="1"/>
        <pt x="142" y="-28" on="0"/>
        <pt x="142" y="-22" on="1"/>
        <pt x="142" y="-20" on="0"/>
        <pt x="149" y="-18" on="1"/>
        <pt x="176" y="-8" on="0"/>
        <pt x="192" y="16" on="1"/>
        <pt x="305" y="173" on="0"/>
        <pt x="434" y="402" on="1"/>
        <pt x="304" y="402" on="0"/>
        <pt x="259" y="382" on="1"/>
        <pt x="250" y="378" on="0"/>
        <pt x="244" y="378" on="0"/>
        <pt x="244" y="380" on="1"/>
        <pt x="244" y="396" on="0"/>
        <pt x="314" y="426" on="1"/>
        <pt x="324" y="430" on="0"/>
        <pt x="399" y="442" on="0"/>
        <pt x="456" y="442" on="1"/>
        <pt x="593" y="695" on="0"/>
        <pt x="640" y="828" on="1"/>
        <pt x="612" y="828" on="0"/>
        <pt x="479" y="821" on="0"/>
        <pt x="378" y="805" on="0"/>
        <pt x="331" y="788" on="0"/>
        <pt x="304" y="772" on="0"/>
        <pt x="294" y="762" on="0"/>
        <pt x="292" y="762" on="1"/>
        <pt x="286" y="762" on="0"/>
        <pt x="286" y="774" on="0"/>
        <pt x="308" y="796" on="1"/>
        <pt x="350" y="838" on="0"/>
        <pt x="502" y="867" on="0"/>
        <pt x="654" y="870" on="1"/>
        <pt x="668" y="915" on="0"/>
        <pt x="668" y="948" on="1"/>
        <pt x="668" y="1066" on="0"/>
        <pt x="570" y="1066" on="1"/>
        <pt x="542" y="1066" on="0"/>
        <pt x="509" y="1054" on="0"/>
        <pt x="493" y="1048" on="0"/>
        <pt x="476" y="1035" on="0"/>
        <pt x="472" y="1032" on="1"/>
        <pt x="470" y="1030" on="0"/>
        <pt x="462" y="1023" on="1"/>
        <pt x="454" y="1016" on="1"/>
        <pt x="440" y="1002" on="0"/>
        <pt x="438" y="1002" on="1"/>
        <pt x="432" y="1002" on="0"/>
        <pt x="432" y="1010" on="0"/>
        <pt x="448" y="1026" on="1"/>
        <pt x="512" y="1086" on="0"/>
        <pt x="586" y="1086" on="1"/>
        <pt x="752" y="1086" on="0"/>
        <pt x="752" y="938" on="1"/>
        <pt x="752" y="904" on="0"/>
        <pt x="742" y="872" on="1"/>
        <pt x="917" y="875" on="0"/>
        <pt x="1076" y="894" on="1"/>
        <pt x="1104" y="898" on="0"/>
        <pt x="1122" y="898" on="1"/>
        <pt x="1130" y="898" on="1"/>
        <pt x="1142" y="898" on="0"/>
        <pt x="1142" y="891" on="0"/>
        <pt x="1136" y="888" on="1"/>
        <pt x="1087" y="855" on="0"/>
        <pt x="895" y="834" on="0"/>
      </contour>
    </TTGlyph>
    <TTGlyph name="G" xMin="14" yMin="-808" xMax="1290" yMax="884">
      <contour>
        <pt x="734" y="-88" on="1"/>
        <pt x="487" y="-131" on="0"/>
        <pt x="286" y="-211" on="0"/>
        <pt x="146" y="-355" on="0"/>
        <pt x="90" y="-510" on="0"/>
        <pt x="90" y="-596" on="1"/>
        <pt x="90" y="-790" on="0"/>
        <pt x="224" y="-790" on="1"/>
        <pt x="373" y="-790" on="0"/>
        <pt x="470" y="-620" on="1"/>
        <pt x="581" y="-429" on="0"/>
      </contour>
      <contour>
        <pt x="1044" y="724" on="1"/>
        <pt x="1046" y="758" on="1"/>
        <pt x="1046" y="798" on="0"/>
        <pt x="988" y="866" on="0"/>
        <pt x="936" y="866" on="1"/>
        <pt x="849" y="866" on="0"/>
        <pt x="575" y="709" on="0"/>
        <pt x="468" y="602" on="1"/>
        <pt x="381" y="517" on="0"/>
        <pt x="251" y="269" on="0"/>
        <pt x="250" y="170" on="1"/>
        <pt x="250" y="93" on="0"/>
        <pt x="325" y="2" on="0"/>
        <pt x="392" y="2" on="1"/>
        <pt x="458" y="2" on="0"/>
        <pt x="564" y="56" on="1"/>
        <pt x="738" y="146" on="0"/>
        <pt x="904" y="300" on="1"/>
        <pt x="939" y="335" on="0"/>
        <pt x="1098" y="611" on="0"/>
        <pt x="1154" y="736" on="1"/>
        <pt x="1168" y="770" on="0"/>
        <pt x="1189" y="770" on="0"/>
        <pt x="1252" y="734" on="0"/>
        <pt x="1252" y="718" on="1"/>
        <pt x="1252" y="685" on="0"/>
        <pt x="1178" y="551" on="0"/>
        <pt x="1128" y="494" on="1"/>
        <pt x="1087" y="446" on="0"/>
        <pt x="1039" y="357" on="0"/>
        <pt x="992" y="265" on="0"/>
        <pt x="986" y="254" on="1"/>
        <pt x="828" y="-50" on="1"/>
        <pt x="1020" y="5" on="0"/>
        <pt x="1180" y="142" on="1"/>
        <pt x="1247" y="201" on="0"/>
        <pt x="1278" y="248" on="1"/>
        <pt x="1282" y="254" on="0"/>
        <pt x="1290" y="254" on="0"/>
        <pt x="1290" y="248" on="0"/>
        <pt x="1288" y="244" on="1"/>
        <pt x="1234" y="172" on="0"/>
        <pt x="1127" y="78" on="0"/>
        <pt x="1056" y="36" on="1"/>
        <pt x="928" y="-38" on="0"/>
        <pt x="816" y="-70" on="1"/>
        <pt x="803" y="-96" on="0"/>
        <pt x="667" y="-385" on="0"/>
        <pt x="612" y="-480" on="1"/>
        <pt x="528" y="-614" on="0"/>
        <pt x="462" y="-687" on="0"/>
        <pt x="398" y="-747" on="0"/>
        <pt x="368" y="-765" on="1"/>
        <pt x="295" y="-808" on="0"/>
        <pt x="222" y="-808" on="1"/>
        <pt x="128" y="-808" on="0"/>
        <pt x="14" y="-672" on="0"/>
        <pt x="14" y="-568" on="1"/>
        <pt x="15" y="-491" on="0"/>
        <pt x="51" y="-420" on="1"/>
        <pt x="86" y="-349" on="0"/>
        <pt x="146" y="-296" on="1"/>
        <pt x="267" y="-188" on="0"/>
        <pt x="414" y="-140" on="1"/>
        <pt x="504" y="-110" on="0"/>
        <pt x="742" y="-68" on="1"/>
        <pt x="810" y="74" on="0"/>
        <pt x="912" y="262" on="1"/>
        <pt x="841" y="203" on="0"/>
        <pt x="681" y="89" on="0"/>
        <pt x="456" y="-22" on="0"/>
        <pt x="294" y="-22" on="0"/>
        <pt x="164" y="83" on="0"/>
        <pt x="164" y="180" on="1"/>
        <pt x="164" y="256" on="0"/>
        <pt x="198" y="343" on="1"/>
        <pt x="294" y="587" on="0"/>
        <pt x="595" y="769" on="1"/>
        <pt x="786" y="884" on="0"/>
        <pt x="960" y="884" on="1"/>
        <pt x="999" y="884" on="0"/>
        <pt x="1102" y="847" on="0"/>
        <pt x="1102" y="814" on="1"/>
        <pt x="1102" y="807" on="0"/>
        <pt x="1082" y="775" on="0"/>
        <pt x="1074" y="758" on="0"/>
        <pt x="1070" y="744" on="1"/>
        <pt x="1061" y="718" on="0"/>
        <pt x="1056" y="718" on="1"/>
        <pt x="1044" y="718" on="0"/>
      </contour>
    </TTGlyph>
    <TTGlyph name="Gamma" xMin="26" yMin="-26" xMax="1102" yMax="890">
      <contour>
        <pt x="300" y="756" on="1"/>
        <pt x="293" y="749" on="0"/>
        <pt x="283" y="755" on="0"/>
        <pt x="290" y="766" on="1"/>
        <pt x="305" y="785" on="0"/>
        <pt x="330" y="810" on="0"/>
        <pt x="389" y="842" on="0"/>
        <pt x="426" y="848" on="1"/>
        <pt x="502" y="862" on="0"/>
        <pt x="901" y="866" on="0"/>
        <pt x="1036" y="882" on="1"/>
        <pt x="1068" y="887" on="0"/>
        <pt x="1079" y="888" on="0"/>
        <pt x="1086" y="890" on="0"/>
        <pt x="1088" y="890" on="1"/>
        <pt x="1088" y="890" on="0"/>
        <pt x="1090" y="890" on="1"/>
        <pt x="1102" y="890" on="0"/>
        <pt x="1102" y="884" on="0"/>
        <pt x="1096" y="880" on="1"/>
        <pt x="1047" y="847" on="0"/>
        <pt x="895" y="830" on="0"/>
        <pt x="774" y="825" on="0"/>
        <pt x="632" y="825" on="0"/>
        <pt x="592" y="824" on="1"/>
        <pt x="570" y="784" on="0"/>
        <pt x="350" y="346" on="0"/>
        <pt x="197" y="53" on="0"/>
        <pt x="170" y="0" on="1"/>
        <pt x="166" y="-8" on="0"/>
        <pt x="156" y="-14" on="1"/>
        <pt x="135" y="-26" on="0"/>
        <pt x="40" y="-26" on="1"/>
        <pt x="26" y="-26" on="0"/>
        <pt x="26" y="-20" on="1"/>
        <pt x="26" y="-18" on="0"/>
        <pt x="34" y="-16" on="1"/>
        <pt x="62" y="-9" on="0"/>
        <pt x="78" y="18" on="1"/>
        <pt x="172" y="164" on="0"/>
        <pt x="330" y="460" on="1"/>
        <pt x="343" y="481" on="0"/>
        <pt x="474" y="745" on="0"/>
        <pt x="504" y="820" on="1"/>
        <pt x="409" y="814" on="0"/>
        <pt x="339" y="792" on="0"/>
      </contour>
    </TTGlyph>
    <TTGlyph name="Gbreve" xMin="14" yMin="-808" xMax="1290" yMax="1176">
      <contour>
        <pt x="734" y="-88" on="1"/>
        <pt x="487" y="-131" on="0"/>
        <pt x="286" y="-211" on="0"/>
        <pt x="146" y="-355" on="0"/>
        <pt x="90" y="-510" on="0"/>
        <pt x="90" y="-596" on="1"/>
        <pt x="90" y="-790" on="0"/>
        <pt x="224" y="-790" on="1"/>
        <pt x="373" y="-790" on="0"/>
        <pt x="470" y="-620" on="1"/>
        <pt x="581" y="-429" on="0"/>
      </contour>
      <contour>
        <pt x="1044" y="724" on="1"/>
        <pt x="1046" y="758" on="1"/>
        <pt x="1046" y="798" on="0"/>
        <pt x="988" y="866" on="0"/>
        <pt x="936" y="866" on="1"/>
        <pt x="849" y="866" on="0"/>
        <pt x="575" y="709" on="0"/>
        <pt x="468" y="602" on="1"/>
        <pt x="381" y="517" on="0"/>
        <pt x="251" y="269" on="0"/>
        <pt x="250" y="170" on="1"/>
        <pt x="250" y="93" on="0"/>
        <pt x="325" y="2" on="0"/>
        <pt x="392" y="2" on="1"/>
        <pt x="458" y="2" on="0"/>
        <pt x="564" y="56" on="1"/>
        <pt x="738" y="146" on="0"/>
        <pt x="904" y="300" on="1"/>
        <pt x="939" y="335" on="0"/>
        <pt x="1098" y="611" on="0"/>
        <pt x="1154" y="736" on="1"/>
        <pt x="1168" y="770" on="0"/>
        <pt x="1189" y="770" on="0"/>
        <pt x="1252" y="734" on="0"/>
        <pt x="1252" y="718" on="1"/>
        <pt x="1252" y="685" on="0"/>
        <pt x="1178" y="551" on="0"/>
        <pt x="1128" y="494" on="1"/>
        <pt x="1087" y="446" on="0"/>
        <pt x="1039" y="357" on="0"/>
        <pt x="992" y="265" on="0"/>
        <pt x="986" y="254" on="1"/>
        <pt x="828" y="-50" on="1"/>
        <pt x="1020" y="5" on="0"/>
        <pt x="1180" y="142" on="1"/>
        <pt x="1247" y="201" on="0"/>
        <pt x="1278" y="248" on="1"/>
        <pt x="1282" y="254" on="0"/>
        <pt x="1290" y="254" on="0"/>
        <pt x="1290" y="248" on="0"/>
        <pt x="1288" y="244" on="1"/>
        <pt x="1234" y="172" on="0"/>
        <pt x="1127" y="78" on="0"/>
        <pt x="1056" y="36" on="1"/>
        <pt x="928" y="-38" on="0"/>
        <pt x="816" y="-70" on="1"/>
        <pt x="803" y="-96" on="0"/>
        <pt x="667" y="-385" on="0"/>
        <pt x="612" y="-480" on="1"/>
        <pt x="528" y="-614" on="0"/>
        <pt x="462" y="-687" on="0"/>
        <pt x="398" y="-747" on="0"/>
        <pt x="368" y="-765" on="1"/>
        <pt x="295" y="-808" on="0"/>
        <pt x="222" y="-808" on="1"/>
        <pt x="128" y="-808" on="0"/>
        <pt x="14" y="-672" on="0"/>
        <pt x="14" y="-568" on="1"/>
        <pt x="15" y="-491" on="0"/>
        <pt x="51" y="-420" on="1"/>
        <pt x="86" y="-349" on="0"/>
        <pt x="146" y="-296" on="1"/>
        <pt x="267" y="-188" on="0"/>
        <pt x="414" y="-140" on="1"/>
        <pt x="504" y="-110" on="0"/>
        <pt x="742" y="-68" on="1"/>
        <pt x="810" y="74" on="0"/>
        <pt x="912" y="262" on="1"/>
        <pt x="841" y="203" on="0"/>
        <pt x="681" y="89" on="0"/>
        <pt x="456" y="-22" on="0"/>
        <pt x="294" y="-22" on="0"/>
        <pt x="164" y="83" on="0"/>
        <pt x="164" y="180" on="1"/>
        <pt x="164" y="256" on="0"/>
        <pt x="198" y="343" on="1"/>
        <pt x="294" y="587" on="0"/>
        <pt x="595" y="769" on="1"/>
        <pt x="786" y="884" on="0"/>
        <pt x="960" y="884" on="1"/>
        <pt x="999" y="884" on="0"/>
        <pt x="1102" y="847" on="0"/>
        <pt x="1102" y="814" on="1"/>
        <pt x="1102" y="807" on="0"/>
        <pt x="1082" y="775" on="0"/>
        <pt x="1074" y="758" on="0"/>
        <pt x="1070" y="744" on="1"/>
        <pt x="1061" y="718" on="0"/>
        <pt x="1056" y="718" on="1"/>
        <pt x="1044" y="718" on="0"/>
      </contour>
      <contour>
        <pt x="1024" y="1174" on="1"/>
        <pt x="1014" y="1148" on="0"/>
        <pt x="1014" y="1097" on="0"/>
        <pt x="1059" y="1060" on="0"/>
        <pt x="1092" y="1060" on="1"/>
        <pt x="1176" y="1060" on="0"/>
        <pt x="1236" y="1148" on="1"/>
        <pt x="1241" y="1153" on="0"/>
        <pt x="1275" y="1174" on="0"/>
        <pt x="1284" y="1174" on="1"/>
        <pt x="1286" y="1174" on="1"/>
        <pt x="1286" y="1166" on="0"/>
        <pt x="1218" y="1099" on="0"/>
        <pt x="1099" y="1032" on="0"/>
        <pt x="1002" y="1032" on="0"/>
        <pt x="966" y="1075" on="0"/>
        <pt x="966" y="1123" on="0"/>
        <pt x="976" y="1150" on="1"/>
        <pt x="979" y="1157" on="0"/>
        <pt x="1013" y="1176" on="0"/>
        <pt x="1022" y="1176" on="1"/>
      </contour>
    </TTGlyph>
    <TTGlyph name="Gcaron" xMin="14" yMin="-808" xMax="1290" yMax="1195">
      <contour>
        <pt x="734" y="-88" on="1"/>
        <pt x="487" y="-131" on="0"/>
        <pt x="286" y="-211" on="0"/>
        <pt x="146" y="-355" on="0"/>
        <pt x="90" y="-510" on="0"/>
        <pt x="90" y="-596" on="1"/>
        <pt x="90" y="-790" on="0"/>
        <pt x="224" y="-790" on="1"/>
        <pt x="373" y="-790" on="0"/>
        <pt x="470" y="-620" on="1"/>
        <pt x="581" y="-429" on="0"/>
      </contour>
      <contour>
        <pt x="1044" y="724" on="1"/>
        <pt x="1046" y="758" on="1"/>
        <pt x="1046" y="798" on="0"/>
        <pt x="988" y="866" on="0"/>
        <pt x="936" y="866" on="1"/>
        <pt x="849" y="866" on="0"/>
        <pt x="575" y="709" on="0"/>
        <pt x="468" y="602" on="1"/>
        <pt x="381" y="517" on="0"/>
        <pt x="251" y="269" on="0"/>
        <pt x="250" y="170" on="1"/>
        <pt x="250" y="93" on="0"/>
        <pt x="325" y="2" on="0"/>
        <pt x="392" y="2" on="1"/>
        <pt x="458" y="2" on="0"/>
        <pt x="564" y="56" on="1"/>
        <pt x="738" y="146" on="0"/>
        <pt x="904" y="300" on="1"/>
        <pt x="939" y="335" on="0"/>
        <pt x="1098" y="611" on="0"/>
        <pt x="1154" y="736" on="1"/>
        <pt x="1168" y="770" on="0"/>
        <pt x="1189" y="770" on="0"/>
        <pt x="1252" y="734" on="0"/>
        <pt x="1252" y="718" on="1"/>
        <pt x="1252" y="685" on="0"/>
        <pt x="1178" y="551" on="0"/>
        <pt x="1128" y="494" on="1"/>
        <pt x="1087" y="446" on="0"/>
        <pt x="1039" y="357" on="0"/>
        <pt x="992" y="265" on="0"/>
        <pt x="986" y="254" on="1"/>
        <pt x="828" y="-50" on="1"/>
        <pt x="1020" y="5" on="0"/>
        <pt x="1180" y="142" on="1"/>
        <pt x="1247" y="201" on="0"/>
        <pt x="1278" y="248" on="1"/>
        <pt x="1282" y="254" on="0"/>
        <pt x="1290" y="254" on="0"/>
        <pt x="1290" y="248" on="0"/>
        <pt x="1288" y="244" on="1"/>
        <pt x="1234" y="172" on="0"/>
        <pt x="1127" y="78" on="0"/>
        <pt x="1056" y="36" on="1"/>
        <pt x="928" y="-38" on="0"/>
        <pt x="816" y="-70" on="1"/>
        <pt x="803" y="-96" on="0"/>
        <pt x="667" y="-385" on="0"/>
        <pt x="612" y="-480" on="1"/>
        <pt x="528" y="-614" on="0"/>
        <pt x="462" y="-687" on="0"/>
        <pt x="398" y="-747" on="0"/>
        <pt x="368" y="-765" on="1"/>
        <pt x="295" y="-808" on="0"/>
        <pt x="222" y="-808" on="1"/>
        <pt x="128" y="-808" on="0"/>
        <pt x="14" y="-672" on="0"/>
        <pt x="14" y="-568" on="1"/>
        <pt x="15" y="-491" on="0"/>
        <pt x="51" y="-420" on="1"/>
        <pt x="86" y="-349" on="0"/>
        <pt x="146" y="-296" on="1"/>
        <pt x="267" y="-188" on="0"/>
        <pt x="414" y="-140" on="1"/>
        <pt x="504" y="-110" on="0"/>
        <pt x="742" y="-68" on="1"/>
        <pt x="810" y="74" on="0"/>
        <pt x="912" y="262" on="1"/>
        <pt x="841" y="203" on="0"/>
        <pt x="681" y="89" on="0"/>
        <pt x="456" y="-22" on="0"/>
        <pt x="294" y="-22" on="0"/>
        <pt x="164" y="83" on="0"/>
        <pt x="164" y="180" on="1"/>
        <pt x="164" y="256" on="0"/>
        <pt x="198" y="343" on="1"/>
        <pt x="294" y="587" on="0"/>
        <pt x="595" y="769" on="1"/>
        <pt x="786" y="884" on="0"/>
        <pt x="960" y="884" on="1"/>
        <pt x="999" y="884" on="0"/>
        <pt x="1102" y="847" on="0"/>
        <pt x="1102" y="814" on="1"/>
        <pt x="1102" y="807" on="0"/>
        <pt x="1082" y="775" on="0"/>
        <pt x="1074" y="758" on="0"/>
        <pt x="1070" y="744" on="1"/>
        <pt x="1061" y="718" on="0"/>
        <pt x="1056" y="718" on="1"/>
        <pt x="1044" y="718" on="0"/>
      </contour>
      <contour>
        <pt x="1056" y="1044" on="1"/>
        <pt x="1035" y="1028" on="0"/>
        <pt x="1017" y="1028" on="0"/>
        <pt x="1013" y="1040" on="0"/>
        <pt x="962" y="1141" on="0"/>
        <pt x="962" y="1167" on="1"/>
        <pt x="962" y="1169" on="0"/>
        <pt x="986" y="1180" on="0"/>
        <pt x="1002" y="1194" on="0"/>
        <pt x="1004" y="1194" on="1"/>
        <pt x="1006" y="1195" on="1"/>
        <pt x="1006" y="1194" on="1"/>
        <pt x="1029" y="1137" on="0"/>
        <pt x="1058" y="1076" on="1"/>
        <pt x="1250" y="1182" on="1"/>
        <pt x="1268" y="1192" on="0"/>
        <pt x="1280" y="1192" on="1"/>
        <pt x="1282" y="1190" on="1"/>
        <pt x="1282" y="1188" on="0"/>
        <pt x="1262" y="1176" on="1"/>
        <pt x="1162" y="1114" on="0"/>
      </contour>
    </TTGlyph>
    <TTGlyph name="Gcircumflex" xMin="14" yMin="-808" xMax="1290" yMax="1166">
      <contour>
        <pt x="734" y="-88" on="1"/>
        <pt x="487" y="-131" on="0"/>
        <pt x="286" y="-211" on="0"/>
        <pt x="146" y="-355" on="0"/>
        <pt x="90" y="-510" on="0"/>
        <pt x="90" y="-596" on="1"/>
        <pt x="90" y="-790" on="0"/>
        <pt x="224" y="-790" on="1"/>
        <pt x="373" y="-790" on="0"/>
        <pt x="470" y="-620" on="1"/>
        <pt x="581" y="-429" on="0"/>
      </contour>
      <contour>
        <pt x="1044" y="724" on="1"/>
        <pt x="1046" y="758" on="1"/>
        <pt x="1046" y="798" on="0"/>
        <pt x="988" y="866" on="0"/>
        <pt x="936" y="866" on="1"/>
        <pt x="849" y="866" on="0"/>
        <pt x="575" y="709" on="0"/>
        <pt x="468" y="602" on="1"/>
        <pt x="381" y="517" on="0"/>
        <pt x="251" y="269" on="0"/>
        <pt x="250" y="170" on="1"/>
        <pt x="250" y="93" on="0"/>
        <pt x="325" y="2" on="0"/>
        <pt x="392" y="2" on="1"/>
        <pt x="458" y="2" on="0"/>
        <pt x="564" y="56" on="1"/>
        <pt x="738" y="146" on="0"/>
        <pt x="904" y="300" on="1"/>
        <pt x="939" y="335" on="0"/>
        <pt x="1098" y="611" on="0"/>
        <pt x="1154" y="736" on="1"/>
        <pt x="1168" y="770" on="0"/>
        <pt x="1189" y="770" on="0"/>
        <pt x="1252" y="734" on="0"/>
        <pt x="1252" y="718" on="1"/>
        <pt x="1252" y="685" on="0"/>
        <pt x="1178" y="551" on="0"/>
        <pt x="1128" y="494" on="1"/>
        <pt x="1087" y="446" on="0"/>
        <pt x="1039" y="357" on="0"/>
        <pt x="992" y="265" on="0"/>
        <pt x="986" y="254" on="1"/>
        <pt x="828" y="-50" on="1"/>
        <pt x="1020" y="5" on="0"/>
        <pt x="1180" y="142" on="1"/>
        <pt x="1247" y="201" on="0"/>
        <pt x="1278" y="248" on="1"/>
        <pt x="1282" y="254" on="0"/>
        <pt x="1290" y="254" on="0"/>
        <pt x="1290" y="248" on="0"/>
        <pt x="1288" y="244" on="1"/>
        <pt x="1234" y="172" on="0"/>
        <pt x="1127" y="78" on="0"/>
        <pt x="1056" y="36" on="1"/>
        <pt x="928" y="-38" on="0"/>
        <pt x="816" y="-70" on="1"/>
        <pt x="803" y="-96" on="0"/>
        <pt x="667" y="-385" on="0"/>
        <pt x="612" y="-480" on="1"/>
        <pt x="528" y="-614" on="0"/>
        <pt x="462" y="-687" on="0"/>
        <pt x="398" y="-747" on="0"/>
        <pt x="368" y="-765" on="1"/>
        <pt x="295" y="-808" on="0"/>
        <pt x="222" y="-808" on="1"/>
        <pt x="128" y="-808" on="0"/>
        <pt x="14" y="-672" on="0"/>
        <pt x="14" y="-568" on="1"/>
        <pt x="15" y="-491" on="0"/>
        <pt x="51" y="-420" on="1"/>
        <pt x="86" y="-349" on="0"/>
        <pt x="146" y="-296" on="1"/>
        <pt x="267" y="-188" on="0"/>
        <pt x="414" y="-140" on="1"/>
        <pt x="504" y="-110" on="0"/>
        <pt x="742" y="-68" on="1"/>
        <pt x="810" y="74" on="0"/>
        <pt x="912" y="262" on="1"/>
        <pt x="841" y="203" on="0"/>
        <pt x="681" y="89" on="0"/>
        <pt x="456" y="-22" on="0"/>
        <pt x="294" y="-22" on="0"/>
        <pt x="164" y="83" on="0"/>
        <pt x="164" y="180" on="1"/>
        <pt x="164" y="256" on="0"/>
        <pt x="198" y="343" on="1"/>
        <pt x="294" y="587" on="0"/>
        <pt x="595" y="769" on="1"/>
        <pt x="786" y="884" on="0"/>
        <pt x="960" y="884" on="1"/>
        <pt x="999" y="884" on="0"/>
        <pt x="1102" y="847" on="0"/>
        <pt x="1102" y="814" on="1"/>
        <pt x="1102" y="807" on="0"/>
        <pt x="1082" y="775" on="0"/>
        <pt x="1074" y="758" on="0"/>
        <pt x="1070" y="744" on="1"/>
        <pt x="1061" y="718" on="0"/>
        <pt x="1056" y="718" on="1"/>
        <pt x="1044" y="718" on="0"/>
      </contour>
      <contour>
        <pt x="1096" y="1150" on="1"/>
        <pt x="1117" y="1166" on="0"/>
        <pt x="1135" y="1166" on="0"/>
        <pt x="1139" y="1154" on="0"/>
        <pt x="1190" y="1053" on="0"/>
        <pt x="1190" y="1027" on="1"/>
        <pt x="1190" y="1025" on="0"/>
        <pt x="1166" y="1014" on="0"/>
        <pt x="1150" y="1000" on="0"/>
        <pt x="1148" y="1000" on="1"/>
        <pt x="1146" y="999" on="1"/>
        <pt x="1146" y="1000" on="1"/>
        <pt x="1123" y="1057" on="0"/>
        <pt x="1094" y="1118" on="1"/>
        <pt x="902" y="1012" on="1"/>
        <pt x="884" y="1002" on="0"/>
        <pt x="872" y="1002" on="1"/>
        <pt x="870" y="1004" on="1"/>
        <pt x="870" y="1006" on="0"/>
        <pt x="890" y="1018" on="1"/>
        <pt x="990" y="1080" on="0"/>
      </contour>
    </TTGlyph>
    <TTGlyph name="Gcommaaccent" xMin="-28" yMin="-1230" xMax="1290" yMax="884">
      <contour>
        <pt x="734" y="-88" on="1"/>
        <pt x="487" y="-131" on="0"/>
        <pt x="286" y="-211" on="0"/>
        <pt x="146" y="-355" on="0"/>
        <pt x="90" y="-510" on="0"/>
        <pt x="90" y="-596" on="1"/>
        <pt x="90" y="-790" on="0"/>
        <pt x="224" y="-790" on="1"/>
        <pt x="373" y="-790" on="0"/>
        <pt x="470" y="-620" on="1"/>
        <pt x="581" y="-429" on="0"/>
      </contour>
      <contour>
        <pt x="1044" y="724" on="1"/>
        <pt x="1046" y="758" on="1"/>
        <pt x="1046" y="798" on="0"/>
        <pt x="988" y="866" on="0"/>
        <pt x="936" y="866" on="1"/>
        <pt x="849" y="866" on="0"/>
        <pt x="575" y="709" on="0"/>
        <pt x="468" y="602" on="1"/>
        <pt x="381" y="517" on="0"/>
        <pt x="251" y="269" on="0"/>
        <pt x="250" y="170" on="1"/>
        <pt x="250" y="93" on="0"/>
        <pt x="325" y="2" on="0"/>
        <pt x="392" y="2" on="1"/>
        <pt x="458" y="2" on="0"/>
        <pt x="564" y="56" on="1"/>
        <pt x="738" y="146" on="0"/>
        <pt x="904" y="300" on="1"/>
        <pt x="939" y="335" on="0"/>
        <pt x="1098" y="611" on="0"/>
        <pt x="1154" y="736" on="1"/>
        <pt x="1168" y="770" on="0"/>
        <pt x="1189" y="770" on="0"/>
        <pt x="1252" y="734" on="0"/>
        <pt x="1252" y="718" on="1"/>
        <pt x="1252" y="685" on="0"/>
        <pt x="1178" y="551" on="0"/>
        <pt x="1128" y="494" on="1"/>
        <pt x="1087" y="446" on="0"/>
        <pt x="1039" y="357" on="0"/>
        <pt x="992" y="265" on="0"/>
        <pt x="986" y="254" on="1"/>
        <pt x="828" y="-50" on="1"/>
        <pt x="1020" y="5" on="0"/>
        <pt x="1180" y="142" on="1"/>
        <pt x="1247" y="201" on="0"/>
        <pt x="1278" y="248" on="1"/>
        <pt x="1282" y="254" on="0"/>
        <pt x="1290" y="254" on="0"/>
        <pt x="1290" y="248" on="0"/>
        <pt x="1288" y="244" on="1"/>
        <pt x="1234" y="172" on="0"/>
        <pt x="1127" y="78" on="0"/>
        <pt x="1056" y="36" on="1"/>
        <pt x="928" y="-38" on="0"/>
        <pt x="816" y="-70" on="1"/>
        <pt x="803" y="-96" on="0"/>
        <pt x="667" y="-385" on="0"/>
        <pt x="612" y="-480" on="1"/>
        <pt x="528" y="-614" on="0"/>
        <pt x="462" y="-687" on="0"/>
        <pt x="398" y="-747" on="0"/>
        <pt x="368" y="-765" on="1"/>
        <pt x="295" y="-808" on="0"/>
        <pt x="222" y="-808" on="1"/>
        <pt x="128" y="-808" on="0"/>
        <pt x="14" y="-672" on="0"/>
        <pt x="14" y="-568" on="1"/>
        <pt x="15" y="-491" on="0"/>
        <pt x="51" y="-420" on="1"/>
        <pt x="86" y="-349" on="0"/>
        <pt x="146" y="-296" on="1"/>
        <pt x="267" y="-188" on="0"/>
        <pt x="414" y="-140" on="1"/>
        <pt x="504" y="-110" on="0"/>
        <pt x="742" y="-68" on="1"/>
        <pt x="810" y="74" on="0"/>
        <pt x="912" y="262" on="1"/>
        <pt x="841" y="203" on="0"/>
        <pt x="681" y="89" on="0"/>
        <pt x="456" y="-22" on="0"/>
        <pt x="294" y="-22" on="0"/>
        <pt x="164" y="83" on="0"/>
        <pt x="164" y="180" on="1"/>
        <pt x="164" y="256" on="0"/>
        <pt x="198" y="343" on="1"/>
        <pt x="294" y="587" on="0"/>
        <pt x="595" y="769" on="1"/>
        <pt x="786" y="884" on="0"/>
        <pt x="960" y="884" on="1"/>
        <pt x="999" y="884" on="0"/>
        <pt x="1102" y="847" on="0"/>
        <pt x="1102" y="814" on="1"/>
        <pt x="1102" y="807" on="0"/>
        <pt x="1082" y="775" on="0"/>
        <pt x="1074" y="758" on="0"/>
        <pt x="1070" y="744" on="1"/>
        <pt x="1061" y="718" on="0"/>
        <pt x="1056" y="718" on="1"/>
        <pt x="1044" y="718" on="0"/>
      </contour>
      <contour>
        <pt x="128" y="-940" on="1"/>
        <pt x="160" y="-940" on="0"/>
        <pt x="160" y="-1012" on="1"/>
        <pt x="159" y="-1049" on="0"/>
        <pt x="106" y="-1132" on="0"/>
        <pt x="39" y="-1191" on="0"/>
        <pt x="-16" y="-1230" on="0"/>
        <pt x="-28" y="-1230" on="0"/>
        <pt x="-28" y="-1222" on="0"/>
        <pt x="-25" y="-1220" on="0"/>
        <pt x="-17" y="-1216" on="0"/>
        <pt x="-14" y="-1214" on="1"/>
        <pt x="35" y="-1182" on="0"/>
        <pt x="112" y="-1096" on="0"/>
        <pt x="112" y="-1052" on="1"/>
        <pt x="112" y="-1026" on="0"/>
        <pt x="78" y="-971" on="0"/>
        <pt x="78" y="-968" on="1"/>
        <pt x="78" y="-959" on="0"/>
        <pt x="120" y="-940" on="0"/>
      </contour>
    </TTGlyph>
    <TTGlyph name="Gdotaccent" xMin="14" yMin="-808" xMax="1290" yMax="1124">
      <contour>
        <pt x="734" y="-88" on="1"/>
        <pt x="487" y="-131" on="0"/>
        <pt x="286" y="-211" on="0"/>
        <pt x="146" y="-355" on="0"/>
        <pt x="90" y="-510" on="0"/>
        <pt x="90" y="-596" on="1"/>
        <pt x="90" y="-790" on="0"/>
        <pt x="224" y="-790" on="1"/>
        <pt x="373" y="-790" on="0"/>
        <pt x="470" y="-620" on="1"/>
        <pt x="581" y="-429" on="0"/>
      </contour>
      <contour>
        <pt x="1044" y="724" on="1"/>
        <pt x="1046" y="758" on="1"/>
        <pt x="1046" y="798" on="0"/>
        <pt x="988" y="866" on="0"/>
        <pt x="936" y="866" on="1"/>
        <pt x="849" y="866" on="0"/>
        <pt x="575" y="709" on="0"/>
        <pt x="468" y="602" on="1"/>
        <pt x="381" y="517" on="0"/>
        <pt x="251" y="269" on="0"/>
        <pt x="250" y="170" on="1"/>
        <pt x="250" y="93" on="0"/>
        <pt x="325" y="2" on="0"/>
        <pt x="392" y="2" on="1"/>
        <pt x="458" y="2" on="0"/>
        <pt x="564" y="56" on="1"/>
        <pt x="738" y="146" on="0"/>
        <pt x="904" y="300" on="1"/>
        <pt x="939" y="335" on="0"/>
        <pt x="1098" y="611" on="0"/>
        <pt x="1154" y="736" on="1"/>
        <pt x="1168" y="770" on="0"/>
        <pt x="1189" y="770" on="0"/>
        <pt x="1252" y="734" on="0"/>
        <pt x="1252" y="718" on="1"/>
        <pt x="1252" y="685" on="0"/>
        <pt x="1178" y="551" on="0"/>
        <pt x="1128" y="494" on="1"/>
        <pt x="1087" y="446" on="0"/>
        <pt x="1039" y="357" on="0"/>
        <pt x="992" y="265" on="0"/>
        <pt x="986" y="254" on="1"/>
        <pt x="828" y="-50" on="1"/>
        <pt x="1020" y="5" on="0"/>
        <pt x="1180" y="142" on="1"/>
        <pt x="1247" y="201" on="0"/>
        <pt x="1278" y="248" on="1"/>
        <pt x="1282" y="254" on="0"/>
        <pt x="1290" y="254" on="0"/>
        <pt x="1290" y="248" on="0"/>
        <pt x="1288" y="244" on="1"/>
        <pt x="1234" y="172" on="0"/>
        <pt x="1127" y="78" on="0"/>
        <pt x="1056" y="36" on="1"/>
        <pt x="928" y="-38" on="0"/>
        <pt x="816" y="-70" on="1"/>
        <pt x="803" y="-96" on="0"/>
        <pt x="667" y="-385" on="0"/>
        <pt x="612" y="-480" on="1"/>
        <pt x="528" y="-614" on="0"/>
        <pt x="462" y="-687" on="0"/>
        <pt x="398" y="-747" on="0"/>
        <pt x="368" y="-765" on="1"/>
        <pt x="295" y="-808" on="0"/>
        <pt x="222" y="-808" on="1"/>
        <pt x="128" y="-808" on="0"/>
        <pt x="14" y="-672" on="0"/>
        <pt x="14" y="-568" on="1"/>
        <pt x="15" y="-491" on="0"/>
        <pt x="51" y="-420" on="1"/>
        <pt x="86" y="-349" on="0"/>
        <pt x="146" y="-296" on="1"/>
        <pt x="267" y="-188" on="0"/>
        <pt x="414" y="-140" on="1"/>
        <pt x="504" y="-110" on="0"/>
        <pt x="742" y="-68" on="1"/>
        <pt x="810" y="74" on="0"/>
        <pt x="912" y="262" on="1"/>
        <pt x="841" y="203" on="0"/>
        <pt x="681" y="89" on="0"/>
        <pt x="456" y="-22" on="0"/>
        <pt x="294" y="-22" on="0"/>
        <pt x="164" y="83" on="0"/>
        <pt x="164" y="180" on="1"/>
        <pt x="164" y="256" on="0"/>
        <pt x="198" y="343" on="1"/>
        <pt x="294" y="587" on="0"/>
        <pt x="595" y="769" on="1"/>
        <pt x="786" y="884" on="0"/>
        <pt x="960" y="884" on="1"/>
        <pt x="999" y="884" on="0"/>
        <pt x="1102" y="847" on="0"/>
        <pt x="1102" y="814" on="1"/>
        <pt x="1102" y="807" on="0"/>
        <pt x="1082" y="775" on="0"/>
        <pt x="1074" y="758" on="0"/>
        <pt x="1070" y="744" on="1"/>
        <pt x="1061" y="718" on="0"/>
        <pt x="1056" y="718" on="1"/>
        <pt x="1044" y="718" on="0"/>
      </contour>
      <contour>
        <pt x="1018" y="1054" on="1"/>
        <pt x="1018" y="1076" on="0"/>
        <pt x="1038" y="1100" on="1"/>
        <pt x="1056" y="1124" on="0"/>
        <pt x="1092" y="1124" on="0"/>
        <pt x="1110" y="1103" on="0"/>
        <pt x="1110" y="1065" on="0"/>
        <pt x="1074" y="1018" on="0"/>
        <pt x="1050" y="1018" on="1"/>
        <pt x="1018" y="1018" on="0"/>
      </contour>
    </TTGlyph>
    <TTGlyph name="H" xMin="82" yMin="-24" xMax="1224" yMax="886">
      <contour>
        <pt x="984" y="36" on="1"/>
        <pt x="880" y="-24" on="0"/>
        <pt x="784" y="-24" on="1"/>
        <pt x="724" y="-24" on="0"/>
        <pt x="678" y="33" on="0"/>
        <pt x="678" y="72" on="1"/>
        <pt x="678" y="146" on="0"/>
        <pt x="814" y="406" on="1"/>
        <pt x="618" y="368" on="0"/>
        <pt x="456" y="368" on="1"/>
        <pt x="413" y="368" on="0"/>
        <pt x="380" y="374" on="1"/>
        <pt x="233" y="100" on="0"/>
        <pt x="192" y="10" on="1"/>
        <pt x="185" y="-2" on="0"/>
        <pt x="128" y="-8" on="0"/>
        <pt x="105" y="-13" on="0"/>
        <pt x="92" y="-20" on="0"/>
        <pt x="82" y="-20" on="0"/>
        <pt x="82" y="-10" on="0"/>
        <pt x="148" y="106" on="1"/>
        <pt x="322" y="410" on="1"/>
        <pt x="314" y="426" on="0"/>
        <pt x="314" y="454" on="0"/>
        <pt x="343" y="472" on="0"/>
        <pt x="356" y="472" on="1"/>
        <pt x="496" y="721" on="0"/>
        <pt x="496" y="782" on="1"/>
        <pt x="496" y="812" on="0"/>
        <pt x="458" y="858" on="0"/>
        <pt x="372" y="858" on="0"/>
        <pt x="297" y="825" on="0"/>
        <pt x="254" y="782" on="1"/>
        <pt x="249" y="777" on="0"/>
        <pt x="244" y="771" on="1"/>
        <pt x="235" y="760" on="0"/>
        <pt x="232" y="760" on="1"/>
        <pt x="226" y="760" on="0"/>
        <pt x="226" y="774" on="0"/>
        <pt x="248" y="796" on="1"/>
        <pt x="335" y="886" on="0"/>
        <pt x="454" y="886" on="1"/>
        <pt x="514" y="886" on="0"/>
        <pt x="574" y="830" on="0"/>
        <pt x="574" y="786" on="1"/>
        <pt x="574" y="758" on="0"/>
        <pt x="548" y="694" on="0"/>
        <pt x="528" y="651" on="0"/>
        <pt x="512" y="620" on="0"/>
        <pt x="483" y="565" on="0"/>
        <pt x="473" y="547" on="1"/>
        <pt x="438" y="484" on="0"/>
        <pt x="416" y="442" on="1"/>
        <pt x="492" y="404" on="0"/>
        <pt x="698" y="404" on="0"/>
        <pt x="828" y="432" on="1"/>
        <pt x="902" y="570" on="0"/>
        <pt x="1054" y="842" on="1"/>
        <pt x="1062" y="854" on="0"/>
        <pt x="1082" y="860" on="0"/>
        <pt x="1111" y="866" on="0"/>
        <pt x="1127" y="870" on="0"/>
        <pt x="1165" y="886" on="0"/>
        <pt x="1182" y="886" on="0"/>
        <pt x="1182" y="880" on="1"/>
        <pt x="1182" y="868" on="0"/>
        <pt x="1147" y="825" on="1"/>
        <pt x="1130" y="804" on="1"/>
        <pt x="1052" y="687" on="0"/>
        <pt x="922" y="454" on="1"/>
        <pt x="978" y="467" on="0"/>
        <pt x="1003" y="478" on="0"/>
        <pt x="1006" y="478" on="1"/>
        <pt x="1012" y="478" on="0"/>
        <pt x="1012" y="465" on="0"/>
        <pt x="1001" y="454" on="0"/>
        <pt x="976" y="445" on="0"/>
        <pt x="957" y="439" on="0"/>
        <pt x="918" y="430" on="0"/>
        <pt x="910" y="428" on="1"/>
        <pt x="778" y="169" on="0"/>
        <pt x="778" y="102" on="1"/>
        <pt x="778" y="24" on="0"/>
        <pt x="856" y="24" on="1"/>
        <pt x="936" y="24" on="0"/>
        <pt x="1004" y="66" on="1"/>
        <pt x="1016" y="74" on="0"/>
        <pt x="1029" y="82" on="1"/>
        <pt x="1061" y="102" on="0"/>
        <pt x="1112" y="142" on="1"/>
        <pt x="1152" y="176" on="0"/>
        <pt x="1212" y="248" on="1"/>
        <pt x="1216" y="254" on="0"/>
        <pt x="1224" y="254" on="0"/>
        <pt x="1224" y="248" on="0"/>
        <pt x="1222" y="244" on="1"/>
        <pt x="1169" y="173" on="0"/>
        <pt x="1067" y="86" on="0"/>
      </contour>
    </TTGlyph>
    <TTGlyph name="Hbar" xMin="82" yMin="-24" xMax="1224" yMax="886">
      <contour>
        <pt x="984" y="36" on="1"/>
        <pt x="880" y="-24" on="0"/>
        <pt x="784" y="-24" on="1"/>
        <pt x="724" y="-24" on="0"/>
        <pt x="678" y="33" on="0"/>
        <pt x="678" y="72" on="1"/>
        <pt x="678" y="146" on="0"/>
        <pt x="814" y="406" on="1"/>
        <pt x="618" y="368" on="0"/>
        <pt x="456" y="368" on="1"/>
        <pt x="413" y="368" on="0"/>
        <pt x="380" y="374" on="1"/>
        <pt x="233" y="100" on="0"/>
        <pt x="192" y="10" on="1"/>
        <pt x="185" y="-2" on="0"/>
        <pt x="128" y="-8" on="0"/>
        <pt x="105" y="-13" on="0"/>
        <pt x="92" y="-20" on="0"/>
        <pt x="82" y="-20" on="0"/>
        <pt x="82" y="-10" on="0"/>
        <pt x="148" y="106" on="1"/>
        <pt x="322" y="410" on="1"/>
        <pt x="314" y="426" on="0"/>
        <pt x="314" y="454" on="0"/>
        <pt x="343" y="472" on="0"/>
        <pt x="356" y="472" on="1"/>
        <pt x="496" y="721" on="0"/>
        <pt x="496" y="782" on="1"/>
        <pt x="496" y="812" on="0"/>
        <pt x="458" y="858" on="0"/>
        <pt x="372" y="858" on="0"/>
        <pt x="297" y="825" on="0"/>
        <pt x="254" y="782" on="1"/>
        <pt x="249" y="777" on="0"/>
        <pt x="244" y="771" on="1"/>
        <pt x="235" y="760" on="0"/>
        <pt x="232" y="760" on="1"/>
        <pt x="226" y="760" on="0"/>
        <pt x="226" y="774" on="0"/>
        <pt x="248" y="796" on="1"/>
        <pt x="335" y="886" on="0"/>
        <pt x="454" y="886" on="1"/>
        <pt x="514" y="886" on="0"/>
        <pt x="574" y="830" on="0"/>
        <pt x="574" y="786" on="1"/>
        <pt x="574" y="758" on="0"/>
        <pt x="548" y="694" on="0"/>
        <pt x="528" y="651" on="0"/>
        <pt x="512" y="620" on="0"/>
        <pt x="483" y="565" on="0"/>
        <pt x="473" y="547" on="1"/>
        <pt x="438" y="484" on="0"/>
        <pt x="416" y="442" on="1"/>
        <pt x="492" y="404" on="0"/>
        <pt x="698" y="404" on="0"/>
        <pt x="828" y="432" on="1"/>
        <pt x="902" y="570" on="0"/>
        <pt x="1054" y="842" on="1"/>
        <pt x="1062" y="854" on="0"/>
        <pt x="1082" y="860" on="0"/>
        <pt x="1111" y="866" on="0"/>
        <pt x="1127" y="870" on="0"/>
        <pt x="1165" y="886" on="0"/>
        <pt x="1182" y="886" on="0"/>
        <pt x="1182" y="880" on="1"/>
        <pt x="1182" y="868" on="0"/>
        <pt x="1147" y="825" on="1"/>
        <pt x="1130" y="804" on="1"/>
        <pt x="1052" y="687" on="0"/>
        <pt x="922" y="454" on="1"/>
        <pt x="978" y="467" on="0"/>
        <pt x="1003" y="478" on="0"/>
        <pt x="1006" y="478" on="1"/>
        <pt x="1012" y="478" on="0"/>
        <pt x="1012" y="465" on="0"/>
        <pt x="1001" y="454" on="0"/>
        <pt x="976" y="445" on="0"/>
        <pt x="957" y="439" on="0"/>
        <pt x="918" y="430" on="0"/>
        <pt x="910" y="428" on="1"/>
        <pt x="778" y="169" on="0"/>
        <pt x="778" y="102" on="1"/>
        <pt x="778" y="24" on="0"/>
        <pt x="856" y="24" on="1"/>
        <pt x="936" y="24" on="0"/>
        <pt x="1004" y="66" on="1"/>
        <pt x="1016" y="74" on="0"/>
        <pt x="1029" y="82" on="1"/>
        <pt x="1061" y="102" on="0"/>
        <pt x="1112" y="142" on="1"/>
        <pt x="1152" y="176" on="0"/>
        <pt x="1212" y="248" on="1"/>
        <pt x="1216" y="254" on="0"/>
        <pt x="1224" y="254" on="0"/>
        <pt x="1224" y="248" on="0"/>
        <pt x="1222" y="244" on="1"/>
        <pt x="1169" y="173" on="0"/>
        <pt x="1067" y="86" on="0"/>
      </contour>
      <contour>
        <pt x="364" y="642" on="1"/>
        <pt x="528" y="640" on="1"/>
        <pt x="940" y="640" on="0"/>
        <pt x="1092" y="658" on="1"/>
        <pt x="1142" y="664" on="0"/>
        <pt x="1158" y="664" on="0"/>
        <pt x="1158" y="662" on="1"/>
        <pt x="1158" y="658" on="0"/>
        <pt x="1118" y="638" on="0"/>
        <pt x="1108" y="636" on="1"/>
        <pt x="991" y="620" on="0"/>
        <pt x="621" y="606" on="0"/>
        <pt x="510" y="606" on="1"/>
        <pt x="314" y="610" on="1"/>
        <pt x="308" y="610" on="0"/>
        <pt x="308" y="612" on="1"/>
        <pt x="308" y="618" on="0"/>
        <pt x="358" y="642" on="0"/>
      </contour>
    </TTGlyph>
    <TTGlyph name="Hcircumflex" xMin="82" yMin="-24" xMax="1224" yMax="1166">
      <contour>
        <pt x="984" y="36" on="1"/>
        <pt x="880" y="-24" on="0"/>
        <pt x="784" y="-24" on="1"/>
        <pt x="724" y="-24" on="0"/>
        <pt x="678" y="33" on="0"/>
        <pt x="678" y="72" on="1"/>
        <pt x="678" y="146" on="0"/>
        <pt x="814" y="406" on="1"/>
        <pt x="618" y="368" on="0"/>
        <pt x="456" y="368" on="1"/>
        <pt x="413" y="368" on="0"/>
        <pt x="380" y="374" on="1"/>
        <pt x="233" y="100" on="0"/>
        <pt x="192" y="10" on="1"/>
        <pt x="185" y="-2" on="0"/>
        <pt x="128" y="-8" on="0"/>
        <pt x="105" y="-13" on="0"/>
        <pt x="92" y="-20" on="0"/>
        <pt x="82" y="-20" on="0"/>
        <pt x="82" y="-10" on="0"/>
        <pt x="148" y="106" on="1"/>
        <pt x="322" y="410" on="1"/>
        <pt x="314" y="426" on="0"/>
        <pt x="314" y="454" on="0"/>
        <pt x="343" y="472" on="0"/>
        <pt x="356" y="472" on="1"/>
        <pt x="496" y="721" on="0"/>
        <pt x="496" y="782" on="1"/>
        <pt x="496" y="812" on="0"/>
        <pt x="458" y="858" on="0"/>
        <pt x="372" y="858" on="0"/>
        <pt x="297" y="825" on="0"/>
        <pt x="254" y="782" on="1"/>
        <pt x="249" y="777" on="0"/>
        <pt x="244" y="771" on="1"/>
        <pt x="235" y="760" on="0"/>
        <pt x="232" y="760" on="1"/>
        <pt x="226" y="760" on="0"/>
        <pt x="226" y="774" on="0"/>
        <pt x="248" y="796" on="1"/>
        <pt x="335" y="886" on="0"/>
        <pt x="454" y="886" on="1"/>
        <pt x="514" y="886" on="0"/>
        <pt x="574" y="830" on="0"/>
        <pt x="574" y="786" on="1"/>
        <pt x="574" y="758" on="0"/>
        <pt x="548" y="694" on="0"/>
        <pt x="528" y="651" on="0"/>
        <pt x="512" y="620" on="0"/>
        <pt x="483" y="565" on="0"/>
        <pt x="473" y="547" on="1"/>
        <pt x="438" y="484" on="0"/>
        <pt x="416" y="442" on="1"/>
        <pt x="492" y="404" on="0"/>
        <pt x="698" y="404" on="0"/>
        <pt x="828" y="432" on="1"/>
        <pt x="902" y="570" on="0"/>
        <pt x="1054" y="842" on="1"/>
        <pt x="1062" y="854" on="0"/>
        <pt x="1082" y="860" on="0"/>
        <pt x="1111" y="866" on="0"/>
        <pt x="1127" y="870" on="0"/>
        <pt x="1165" y="886" on="0"/>
        <pt x="1182" y="886" on="0"/>
        <pt x="1182" y="880" on="1"/>
        <pt x="1182" y="868" on="0"/>
        <pt x="1147" y="825" on="1"/>
        <pt x="1130" y="804" on="1"/>
        <pt x="1052" y="687" on="0"/>
        <pt x="922" y="454" on="1"/>
        <pt x="978" y="467" on="0"/>
        <pt x="1003" y="478" on="0"/>
        <pt x="1006" y="478" on="1"/>
        <pt x="1012" y="478" on="0"/>
        <pt x="1012" y="465" on="0"/>
        <pt x="1001" y="454" on="0"/>
        <pt x="976" y="445" on="0"/>
        <pt x="957" y="439" on="0"/>
        <pt x="918" y="430" on="0"/>
        <pt x="910" y="428" on="1"/>
        <pt x="778" y="169" on="0"/>
        <pt x="778" y="102" on="1"/>
        <pt x="778" y="24" on="0"/>
        <pt x="856" y="24" on="1"/>
        <pt x="936" y="24" on="0"/>
        <pt x="1004" y="66" on="1"/>
        <pt x="1016" y="74" on="0"/>
        <pt x="1029" y="82" on="1"/>
        <pt x="1061" y="102" on="0"/>
        <pt x="1112" y="142" on="1"/>
        <pt x="1152" y="176" on="0"/>
        <pt x="1212" y="248" on="1"/>
        <pt x="1216" y="254" on="0"/>
        <pt x="1224" y="254" on="0"/>
        <pt x="1224" y="248" on="0"/>
        <pt x="1222" y="244" on="1"/>
        <pt x="1169" y="173" on="0"/>
        <pt x="1067" y="86" on="0"/>
      </contour>
      <contour>
        <pt x="904" y="1150" on="1"/>
        <pt x="925" y="1166" on="0"/>
        <pt x="943" y="1166" on="0"/>
        <pt x="947" y="1154" on="0"/>
        <pt x="998" y="1053" on="0"/>
        <pt x="998" y="1027" on="1"/>
        <pt x="998" y="1025" on="0"/>
        <pt x="974" y="1014" on="0"/>
        <pt x="958" y="1000" on="0"/>
        <pt x="956" y="1000" on="1"/>
        <pt x="954" y="999" on="1"/>
        <pt x="954" y="1000" on="1"/>
        <pt x="931" y="1057" on="0"/>
        <pt x="902" y="1118" on="1"/>
        <pt x="710" y="1012" on="1"/>
        <pt x="692" y="1002" on="0"/>
        <pt x="680" y="1002" on="1"/>
        <pt x="678" y="1004" on="1"/>
        <pt x="678" y="1006" on="0"/>
        <pt x="698" y="1018" on="1"/>
        <pt x="798" y="1080" on="0"/>
      </contour>
    </TTGlyph>
    <TTGlyph name="I" xMin="76" yMin="-12" xMax="946" yMax="974">
      <contour>
        <pt x="564" y="796" on="1"/>
        <pt x="602" y="851" on="0"/>
        <pt x="602" y="914" on="0"/>
        <pt x="558" y="950" on="0"/>
        <pt x="476" y="950" on="0"/>
        <pt x="396" y="903" on="0"/>
        <pt x="396" y="854" on="1"/>
        <pt x="396" y="831" on="0"/>
        <pt x="420" y="815" on="0"/>
        <pt x="436" y="806" on="0"/>
        <pt x="465" y="801" on="0"/>
        <pt x="486" y="798" on="0"/>
        <pt x="504" y="797" on="1"/>
        <pt x="524" y="796" on="0"/>
        <pt x="534" y="796" on="1"/>
      </contour>
      <contour>
        <pt x="166" y="230" on="1"/>
        <pt x="146" y="206" on="0"/>
        <pt x="146" y="107" on="0"/>
        <pt x="231" y="6" on="0"/>
        <pt x="336" y="6" on="0"/>
        <pt x="423" y="107" on="0"/>
        <pt x="470" y="208" on="1"/>
        <pt x="631" y="546" on="0"/>
        <pt x="820" y="810" on="1"/>
        <pt x="787" y="800" on="0"/>
        <pt x="620" y="778" on="0"/>
        <pt x="576" y="776" on="1"/>
        <pt x="550" y="743" on="0"/>
        <pt x="422" y="618" on="0"/>
        <pt x="370" y="574" on="1"/>
        <pt x="354" y="558" on="0"/>
        <pt x="342" y="558" on="0"/>
        <pt x="342" y="562" on="1"/>
        <pt x="342" y="569" on="0"/>
        <pt x="388" y="606" on="0"/>
        <pt x="518" y="739" on="0"/>
        <pt x="548" y="776" on="1"/>
        <pt x="340" y="776" on="0"/>
        <pt x="340" y="844" on="1"/>
        <pt x="340" y="882" on="0"/>
        <pt x="427" y="945" on="0"/>
        <pt x="528" y="974" on="0"/>
        <pt x="564" y="974" on="1"/>
        <pt x="648" y="974" on="0"/>
        <pt x="648" y="918" on="1"/>
        <pt x="648" y="885" on="0"/>
        <pt x="592" y="798" on="1"/>
        <pt x="728" y="805" on="0"/>
        <pt x="812" y="836" on="1"/>
        <pt x="830" y="843" on="0"/>
        <pt x="917" y="856" on="0"/>
        <pt x="946" y="856" on="0"/>
        <pt x="946" y="850" on="1"/>
        <pt x="946" y="848" on="0"/>
        <pt x="921" y="831" on="0"/>
        <pt x="918" y="826" on="1"/>
        <pt x="810" y="671" on="0"/>
        <pt x="663" y="416" on="0"/>
        <pt x="568" y="224" on="1"/>
        <pt x="452" y="-12" on="0"/>
        <pt x="242" y="-12" on="1"/>
        <pt x="178" y="-12" on="0"/>
        <pt x="76" y="69" on="0"/>
        <pt x="76" y="136" on="1"/>
        <pt x="76" y="142" on="0"/>
        <pt x="114" y="180" on="0"/>
        <pt x="143" y="215" on="0"/>
        <pt x="158" y="234" on="0"/>
        <pt x="160" y="234" on="1"/>
        <pt x="166" y="234" on="0"/>
      </contour>
    </TTGlyph>
</ttFont>
